<svg width="1922" height="892" viewBox="0 0 1922 892" fill="none" xmlns="http://www.w3.org/2000/svg">
<g clip-path="url(#clip0_748_391)">
<rect width="1922" height="892" fill="url(#paint0_linear_748_391)"/>
<mask id="mask0_748_391" style="mask-type:luminance" maskUnits="userSpaceOnUse" x="0" y="-56" width="1922" height="948">
<path d="M1921.5 -55.5V891.5H0.5V-55.5H1921.5Z" fill="white" stroke="white"/>
</mask>
<g mask="url(#mask0_748_391)">
<path fill-rule="evenodd" clip-rule="evenodd" d="M25.9869 -54.4502L3.30981 -28.7239H48.4452V22.4499L62.0405 -8.45275L71.1496 -3.27648V-54.4502H25.9869Z" stroke="#DDA1FF" stroke-opacity="0.41" stroke-miterlimit="10"/>
<path fill-rule="evenodd" clip-rule="evenodd" d="M125.859 -54.4502L103.182 -28.7239H148.317V22.4499L161.913 -8.45275L171.022 -3.27648V-54.4502H125.859Z" stroke="#DDA1FF" stroke-opacity="0.41" stroke-miterlimit="10"/>
<path fill-rule="evenodd" clip-rule="evenodd" d="M225.731 -54.4502L203.054 -28.7239H248.217V22.4499L261.785 -8.45275L270.921 -3.27648V-54.4502H225.731Z" stroke="#DDA1FF" stroke-opacity="0.41" stroke-miterlimit="10"/>
<path fill-rule="evenodd" clip-rule="evenodd" d="M325.631 -54.4502L302.927 -28.7239H348.089V22.4499L361.685 -8.45275L370.794 -3.27648V-54.4502H325.631Z" stroke="#DDA1FF" stroke-opacity="0.41" stroke-miterlimit="10"/>
<path fill-rule="evenodd" clip-rule="evenodd" d="M425.503 -54.4502L402.799 -28.7239H447.962V22.4499L461.557 -8.45275L470.666 -3.27648V-54.4502H425.503Z" stroke="#DDA1FF" stroke-opacity="0.41" stroke-miterlimit="10"/>
<path fill-rule="evenodd" clip-rule="evenodd" d="M525.375 -54.4502L502.698 -28.7239H547.834V22.4499L561.429 -8.45275L570.538 -3.27648V-54.4502H525.375Z" stroke="#DDA1FF" stroke-opacity="0.41" stroke-miterlimit="10"/>
<path fill-rule="evenodd" clip-rule="evenodd" d="M625.248 -54.4502L602.571 -28.7239H647.706V22.4499L661.301 -8.45275L670.41 -3.27648V-54.4502H625.248Z" stroke="#DDA1FF" stroke-opacity="0.41" stroke-miterlimit="10"/>
<path fill-rule="evenodd" clip-rule="evenodd" d="M725.12 -54.4502L702.443 -28.7239H747.605V22.4499L761.173 -8.45275L770.31 -3.27648V-54.4502H725.12Z" stroke="#DDA1FF" stroke-opacity="0.41" stroke-miterlimit="10"/>
<path fill-rule="evenodd" clip-rule="evenodd" d="M825.019 -54.4502L802.315 -28.7239H847.478V22.4499L861.073 -8.45275L870.182 -3.27648V-54.4502H825.019Z" stroke="#DDA1FF" stroke-opacity="0.41" stroke-miterlimit="10"/>
<path fill-rule="evenodd" clip-rule="evenodd" d="M924.891 -54.4502L902.187 -28.7239H947.35V22.4499L960.945 -8.45275L970.054 -3.27648V-54.4502H924.891Z" stroke="#DDA1FF" stroke-opacity="0.41" stroke-miterlimit="10"/>
<path fill-rule="evenodd" clip-rule="evenodd" d="M1024.76 -54.4502L1002.09 -28.7239H1047.22V22.4499L1060.82 -8.45275L1069.93 -3.27648V-54.4502H1024.76Z" stroke="#DDA1FF" stroke-opacity="0.41" stroke-miterlimit="10"/>
<path fill-rule="evenodd" clip-rule="evenodd" d="M1124.64 -54.4502L1101.96 -28.7239H1147.09V22.4499L1160.69 -8.45275L1169.8 -3.27648V-54.4502H1124.64Z" stroke="#DDA1FF" stroke-opacity="0.41" stroke-miterlimit="10"/>
<path fill-rule="evenodd" clip-rule="evenodd" d="M1224.51 -54.4502L1201.83 -28.7239H1246.99V22.4499L1260.59 -8.45275L1269.7 -3.27648V-54.4502H1224.51Z" stroke="#DDA1FF" stroke-opacity="0.41" stroke-miterlimit="10"/>
<path fill-rule="evenodd" clip-rule="evenodd" d="M1324.41 -54.4502L1301.7 -28.7239H1346.87V22.4499L1360.46 -8.45275L1369.57 -3.27648V-54.4502H1324.41Z" stroke="#DDA1FF" stroke-opacity="0.41" stroke-miterlimit="10"/>
<path fill-rule="evenodd" clip-rule="evenodd" d="M1424.28 -54.4502L1401.58 -28.7239H1446.74V22.4499L1460.33 -8.45275L1469.44 -3.27648V-54.4502H1424.28Z" stroke="#DDA1FF" stroke-opacity="0.41" stroke-miterlimit="10"/>
<path fill-rule="evenodd" clip-rule="evenodd" d="M1524.15 -54.4502L1501.48 -28.7239H1546.61V22.4499L1560.21 -8.45275L1569.31 -3.27648V-54.4502H1524.15Z" stroke="#DDA1FF" stroke-opacity="0.41" stroke-miterlimit="10"/>
<path fill-rule="evenodd" clip-rule="evenodd" d="M1624.02 -54.4502L1601.35 -28.7239H1646.51V22.4499L1660.08 -8.45275L1669.19 -3.27648V-54.4502H1624.02Z" stroke="#DDA1FF" stroke-opacity="0.41" stroke-miterlimit="10"/>
<path fill-rule="evenodd" clip-rule="evenodd" d="M1723.9 -54.4502L1701.22 -28.7239H1746.38V22.4499L1759.98 -8.45275L1769.09 -3.27648V-54.4502H1723.9Z" stroke="#DDA1FF" stroke-opacity="0.41" stroke-miterlimit="10"/>
<path fill-rule="evenodd" clip-rule="evenodd" d="M1823.8 -54.4502L1801.09 -28.7239H1846.25V22.4499L1859.85 -8.45275L1868.96 -3.27648V-54.4502H1823.8Z" stroke="#DDA1FF" stroke-opacity="0.41" stroke-miterlimit="10"/>
<path fill-rule="evenodd" clip-rule="evenodd" d="M1923.67 -54.4502L1900.96 -28.7239H1946.13V22.4499L1959.72 -8.45275L1968.83 -3.27648V-54.4502H1923.67Z" stroke="#DDA1FF" stroke-opacity="0.41" stroke-miterlimit="10"/>
<path fill-rule="evenodd" clip-rule="evenodd" d="M25.9869 61.5663L3.30981 87.2926H48.4452V138.435L62.0405 107.564L71.1496 112.74V61.5663H25.9869Z" stroke="#DDA1FF" stroke-opacity="0.41" stroke-miterlimit="10"/>
<path fill-rule="evenodd" clip-rule="evenodd" d="M125.859 61.5663L103.182 87.2926H148.317V138.435L161.913 107.564L171.022 112.74V61.5663H125.859Z" stroke="#DDA1FF" stroke-opacity="0.41" stroke-miterlimit="10"/>
<path fill-rule="evenodd" clip-rule="evenodd" d="M225.731 61.5663L203.054 87.2926H248.217V138.435L261.785 107.564L270.921 112.74V61.5663H225.731Z" stroke="#DDA1FF" stroke-opacity="0.41" stroke-miterlimit="10"/>
<path fill-rule="evenodd" clip-rule="evenodd" d="M325.631 61.5663L302.927 87.2926H348.089V138.435L361.685 107.564L370.794 112.74V61.5663H325.631Z" stroke="#DDA1FF" stroke-opacity="0.41" stroke-miterlimit="10"/>
<path fill-rule="evenodd" clip-rule="evenodd" d="M425.503 61.5663L402.799 87.2926H447.962V138.435L461.557 107.564L470.666 112.74V61.5663H425.503Z" stroke="#DDA1FF" stroke-opacity="0.41" stroke-miterlimit="10"/>
<path fill-rule="evenodd" clip-rule="evenodd" d="M525.375 61.5663L502.698 87.2926H547.834V138.435L561.429 107.564L570.538 112.74V61.5663H525.375Z" stroke="#DDA1FF" stroke-opacity="0.41" stroke-miterlimit="10"/>
<path fill-rule="evenodd" clip-rule="evenodd" d="M625.248 61.5663L602.571 87.2926H647.706V138.435L661.301 107.564L670.41 112.74V61.5663H625.248Z" stroke="#DDA1FF" stroke-opacity="0.41" stroke-miterlimit="10"/>
<path fill-rule="evenodd" clip-rule="evenodd" d="M725.12 61.5663L702.443 87.2926H747.605V138.435L761.173 107.564L770.31 112.74V61.5663H725.12Z" stroke="#DDA1FF" stroke-opacity="0.41" stroke-miterlimit="10"/>
<path fill-rule="evenodd" clip-rule="evenodd" d="M825.019 61.5663L802.315 87.2926H847.478V138.435L861.073 107.564L870.182 112.74V61.5663H825.019Z" stroke="#DDA1FF" stroke-opacity="0.41" stroke-miterlimit="10"/>
<path fill-rule="evenodd" clip-rule="evenodd" d="M924.891 61.5663L902.187 87.2926H947.35V138.435L960.945 107.564L970.054 112.74V61.5663H924.891Z" stroke="#DDA1FF" stroke-opacity="0.41" stroke-miterlimit="10"/>
<path fill-rule="evenodd" clip-rule="evenodd" d="M1024.76 61.5663L1002.09 87.2926H1047.22V138.435L1060.82 107.564L1069.93 112.74V61.5663H1024.76Z" stroke="#DDA1FF" stroke-opacity="0.41" stroke-miterlimit="10"/>
<path fill-rule="evenodd" clip-rule="evenodd" d="M1124.64 61.5663L1101.96 87.2926H1147.09V138.435L1160.69 107.564L1169.8 112.74V61.5663H1124.64Z" stroke="#DDA1FF" stroke-opacity="0.41" stroke-miterlimit="10"/>
<path fill-rule="evenodd" clip-rule="evenodd" d="M1224.51 61.5663L1201.83 87.2926H1246.99V138.435L1260.59 107.564L1269.7 112.74V61.5663H1224.51Z" stroke="#DDA1FF" stroke-opacity="0.41" stroke-miterlimit="10"/>
<path fill-rule="evenodd" clip-rule="evenodd" d="M1324.41 61.5663L1301.7 87.2926H1346.87V138.435L1360.46 107.564L1369.57 112.74V61.5663H1324.41Z" stroke="#DDA1FF" stroke-opacity="0.41" stroke-miterlimit="10"/>
<path fill-rule="evenodd" clip-rule="evenodd" d="M1424.28 61.5663L1401.58 87.2926H1446.74V138.435L1460.33 107.564L1469.44 112.74V61.5663H1424.28Z" stroke="#DDA1FF" stroke-opacity="0.41" stroke-miterlimit="10"/>
<path fill-rule="evenodd" clip-rule="evenodd" d="M1524.15 61.5663L1501.48 87.2926H1546.61V138.435L1560.21 107.564L1569.31 112.74V61.5663H1524.15Z" stroke="#DDA1FF" stroke-opacity="0.41" stroke-miterlimit="10"/>
<path fill-rule="evenodd" clip-rule="evenodd" d="M1624.02 61.5663L1601.35 87.2926H1646.51V138.435L1660.08 107.564L1669.19 112.74V61.5663H1624.02Z" stroke="#DDA1FF" stroke-opacity="0.41" stroke-miterlimit="10"/>
<path fill-rule="evenodd" clip-rule="evenodd" d="M1723.9 61.5663L1701.22 87.2926H1746.38V138.435L1759.98 107.564L1769.09 112.74V61.5663H1723.9Z" stroke="#DDA1FF" stroke-opacity="0.41" stroke-miterlimit="10"/>
<path fill-rule="evenodd" clip-rule="evenodd" d="M1823.8 61.5663L1801.09 87.2926H1846.25V138.435L1859.85 107.564L1868.96 112.74V61.5663H1823.8Z" stroke="#DDA1FF" stroke-opacity="0.41" stroke-miterlimit="10"/>
<path fill-rule="evenodd" clip-rule="evenodd" d="M1923.67 61.5663L1900.96 87.2926H1946.13V138.435L1959.72 107.564L1968.83 112.74V61.5663H1923.67Z" stroke="#DDA1FF" stroke-opacity="0.41" stroke-miterlimit="10"/>
<path fill-rule="evenodd" clip-rule="evenodd" d="M25.9869 177.583L3.30981 203.309H48.4452V254.452L62.0405 223.58L71.1496 228.756V177.583H25.9869Z" stroke="#DDA1FF" stroke-opacity="0.41" stroke-miterlimit="10"/>
<path fill-rule="evenodd" clip-rule="evenodd" d="M125.859 177.583L103.182 203.309H148.317V254.452L161.913 223.58L171.022 228.756V177.583H125.859Z" stroke="#DDA1FF" stroke-opacity="0.41" stroke-miterlimit="10"/>
<path fill-rule="evenodd" clip-rule="evenodd" d="M225.731 177.583L203.054 203.309H248.217V254.452L261.785 223.58L270.921 228.756V177.583H225.731Z" stroke="#DDA1FF" stroke-opacity="0.41" stroke-miterlimit="10"/>
<path fill-rule="evenodd" clip-rule="evenodd" d="M325.631 177.583L302.927 203.309H348.089V254.452L361.685 223.58L370.794 228.756V177.583H325.631Z" stroke="#DDA1FF" stroke-opacity="0.41" stroke-miterlimit="10"/>
<path fill-rule="evenodd" clip-rule="evenodd" d="M425.503 177.583L402.799 203.309H447.962V254.452L461.557 223.58L470.666 228.756V177.583H425.503Z" stroke="#DDA1FF" stroke-opacity="0.41" stroke-miterlimit="10"/>
<path fill-rule="evenodd" clip-rule="evenodd" d="M525.375 177.583L502.698 203.309H547.834V254.452L561.429 223.58L570.538 228.756V177.583H525.375Z" stroke="#DDA1FF" stroke-opacity="0.41" stroke-miterlimit="10"/>
<path fill-rule="evenodd" clip-rule="evenodd" d="M625.248 177.583L602.571 203.309H647.706V254.452L661.301 223.58L670.41 228.756V177.583H625.248Z" stroke="#DDA1FF" stroke-opacity="0.41" stroke-miterlimit="10"/>
<path fill-rule="evenodd" clip-rule="evenodd" d="M725.12 177.583L702.443 203.309H747.605V254.452L761.173 223.58L770.31 228.756V177.583H725.12Z" stroke="#DDA1FF" stroke-opacity="0.41" stroke-miterlimit="10"/>
<path fill-rule="evenodd" clip-rule="evenodd" d="M825.019 177.583L802.315 203.309H847.478V254.452L861.073 223.58L870.182 228.756V177.583H825.019Z" stroke="#DDA1FF" stroke-opacity="0.41" stroke-miterlimit="10"/>
<path fill-rule="evenodd" clip-rule="evenodd" d="M924.891 177.583L902.187 203.309H947.35V254.452L960.945 223.58L970.054 228.756V177.583H924.891Z" stroke="#DDA1FF" stroke-opacity="0.41" stroke-miterlimit="10"/>
<path fill-rule="evenodd" clip-rule="evenodd" d="M1024.76 177.583L1002.09 203.309H1047.22V254.452L1060.82 223.58L1069.93 228.756V177.583H1024.76Z" stroke="#DDA1FF" stroke-opacity="0.41" stroke-miterlimit="10"/>
<path fill-rule="evenodd" clip-rule="evenodd" d="M1124.64 177.583L1101.96 203.309H1147.09V254.452L1160.69 223.58L1169.8 228.756V177.583H1124.64Z" stroke="#DDA1FF" stroke-opacity="0.41" stroke-miterlimit="10"/>
<path fill-rule="evenodd" clip-rule="evenodd" d="M1224.51 177.583L1201.83 203.309H1246.99V254.452L1260.59 223.58L1269.7 228.756V177.583H1224.51Z" stroke="#DDA1FF" stroke-opacity="0.41" stroke-miterlimit="10"/>
<path fill-rule="evenodd" clip-rule="evenodd" d="M1324.41 177.583L1301.7 203.309H1346.87V254.452L1360.46 223.58L1369.57 228.756V177.583H1324.41Z" stroke="#DDA1FF" stroke-opacity="0.41" stroke-miterlimit="10"/>
<path fill-rule="evenodd" clip-rule="evenodd" d="M1424.28 177.583L1401.58 203.309H1446.74V254.452L1460.33 223.58L1469.44 228.756V177.583H1424.28Z" stroke="#DDA1FF" stroke-opacity="0.41" stroke-miterlimit="10"/>
<path fill-rule="evenodd" clip-rule="evenodd" d="M1524.15 177.583L1501.48 203.309H1546.61V254.452L1560.21 223.58L1569.31 228.756V177.583H1524.15Z" stroke="#DDA1FF" stroke-opacity="0.41" stroke-miterlimit="10"/>
<path fill-rule="evenodd" clip-rule="evenodd" d="M1624.02 177.583L1601.35 203.309H1646.51V254.452L1660.08 223.58L1669.19 228.756V177.583H1624.02Z" stroke="#DDA1FF" stroke-opacity="0.41" stroke-miterlimit="10"/>
<path fill-rule="evenodd" clip-rule="evenodd" d="M1723.9 177.583L1701.22 203.309H1746.38V254.452L1759.98 223.58L1769.09 228.756V177.583H1723.9Z" stroke="#DDA1FF" stroke-opacity="0.41" stroke-miterlimit="10"/>
<path fill-rule="evenodd" clip-rule="evenodd" d="M1823.8 177.583L1801.09 203.309H1846.25V254.452L1859.85 223.58L1868.96 228.756V177.583H1823.8Z" stroke="#DDA1FF" stroke-opacity="0.41" stroke-miterlimit="10"/>
<path fill-rule="evenodd" clip-rule="evenodd" d="M1923.67 177.583L1900.96 203.309H1946.13V254.452L1959.72 223.58L1968.83 228.756V177.583H1923.67Z" stroke="#DDA1FF" stroke-opacity="0.41" stroke-miterlimit="10"/>
<path fill-rule="evenodd" clip-rule="evenodd" d="M25.9869 293.599L3.30981 319.326H48.4452V370.468L62.0405 339.597L71.1496 344.773V293.599H25.9869Z" stroke="#DDA1FF" stroke-opacity="0.41" stroke-miterlimit="10"/>
<path fill-rule="evenodd" clip-rule="evenodd" d="M125.859 293.599L103.182 319.326H148.317V370.468L161.913 339.597L171.022 344.773V293.599H125.859Z" stroke="#DDA1FF" stroke-opacity="0.41" stroke-miterlimit="10"/>
<path fill-rule="evenodd" clip-rule="evenodd" d="M225.731 293.599L203.054 319.326H248.217V370.468L261.785 339.597L270.921 344.773V293.599H225.731Z" stroke="#DDA1FF" stroke-opacity="0.41" stroke-miterlimit="10"/>
<path fill-rule="evenodd" clip-rule="evenodd" d="M325.631 293.599L302.927 319.326H348.089V370.468L361.685 339.597L370.794 344.773V293.599H325.631Z" stroke="#DDA1FF" stroke-opacity="0.41" stroke-miterlimit="10"/>
<path fill-rule="evenodd" clip-rule="evenodd" d="M425.503 293.599L402.799 319.326H447.962V370.468L461.557 339.597L470.666 344.773V293.599H425.503Z" stroke="#DDA1FF" stroke-opacity="0.41" stroke-miterlimit="10"/>
<path fill-rule="evenodd" clip-rule="evenodd" d="M525.375 293.599L502.698 319.326H547.834V370.468L561.429 339.597L570.538 344.773V293.599H525.375Z" stroke="#DDA1FF" stroke-opacity="0.41" stroke-miterlimit="10"/>
<path fill-rule="evenodd" clip-rule="evenodd" d="M625.248 293.599L602.571 319.326H647.706V370.468L661.301 339.597L670.41 344.773V293.599H625.248Z" stroke="#DDA1FF" stroke-opacity="0.41" stroke-miterlimit="10"/>
<path fill-rule="evenodd" clip-rule="evenodd" d="M725.12 293.599L702.443 319.326H747.605V370.468L761.173 339.597L770.31 344.773V293.599H725.12Z" stroke="#DDA1FF" stroke-opacity="0.41" stroke-miterlimit="10"/>
<path fill-rule="evenodd" clip-rule="evenodd" d="M825.019 293.599L802.315 319.326H847.478V370.468L861.073 339.597L870.182 344.773V293.599H825.019Z" stroke="#DDA1FF" stroke-opacity="0.41" stroke-miterlimit="10"/>
<path fill-rule="evenodd" clip-rule="evenodd" d="M924.891 293.599L902.187 319.326H947.35V370.468L960.945 339.597L970.054 344.773V293.599H924.891Z" stroke="#DDA1FF" stroke-opacity="0.41" stroke-miterlimit="10"/>
<path fill-rule="evenodd" clip-rule="evenodd" d="M1024.76 293.599L1002.09 319.326H1047.22V370.468L1060.82 339.597L1069.93 344.773V293.599H1024.76Z" stroke="#DDA1FF" stroke-opacity="0.41" stroke-miterlimit="10"/>
<path fill-rule="evenodd" clip-rule="evenodd" d="M1124.64 293.599L1101.96 319.326H1147.09V370.468L1160.69 339.597L1169.8 344.773V293.599H1124.64Z" stroke="#DDA1FF" stroke-opacity="0.41" stroke-miterlimit="10"/>
<path fill-rule="evenodd" clip-rule="evenodd" d="M1224.51 293.599L1201.83 319.326H1246.99V370.468L1260.59 339.597L1269.7 344.773V293.599H1224.51Z" stroke="#DDA1FF" stroke-opacity="0.41" stroke-miterlimit="10"/>
<path fill-rule="evenodd" clip-rule="evenodd" d="M1324.41 293.599L1301.7 319.326H1346.87V370.468L1360.46 339.597L1369.57 344.773V293.599H1324.41Z" stroke="#DDA1FF" stroke-opacity="0.41" stroke-miterlimit="10"/>
<path fill-rule="evenodd" clip-rule="evenodd" d="M1424.28 293.599L1401.58 319.326H1446.74V370.468L1460.33 339.597L1469.44 344.773V293.599H1424.28Z" stroke="#DDA1FF" stroke-opacity="0.41" stroke-miterlimit="10"/>
<path fill-rule="evenodd" clip-rule="evenodd" d="M1524.15 293.599L1501.48 319.326H1546.61V370.468L1560.21 339.597L1569.31 344.773V293.599H1524.15Z" stroke="#DDA1FF" stroke-opacity="0.41" stroke-miterlimit="10"/>
<path fill-rule="evenodd" clip-rule="evenodd" d="M1624.02 293.599L1601.35 319.326H1646.51V370.468L1660.08 339.597L1669.19 344.773V293.599H1624.02Z" stroke="#DDA1FF" stroke-opacity="0.41" stroke-miterlimit="10"/>
<path fill-rule="evenodd" clip-rule="evenodd" d="M1723.9 293.599L1701.22 319.326H1746.38V370.468L1759.98 339.597L1769.09 344.773V293.599H1723.9Z" stroke="#DDA1FF" stroke-opacity="0.41" stroke-miterlimit="10"/>
<path fill-rule="evenodd" clip-rule="evenodd" d="M1823.8 293.599L1801.09 319.326H1846.25V370.468L1859.85 339.597L1868.96 344.773V293.599H1823.8Z" stroke="#DDA1FF" stroke-opacity="0.41" stroke-miterlimit="10"/>
<path fill-rule="evenodd" clip-rule="evenodd" d="M1923.67 293.599L1900.96 319.326H1946.13V370.468L1959.72 339.597L1968.83 344.773V293.599H1923.67Z" stroke="#DDA1FF" stroke-opacity="0.41" stroke-miterlimit="10"/>
<path fill-rule="evenodd" clip-rule="evenodd" d="M25.9869 409.616L3.30981 435.342H48.4452V486.485L62.0405 455.613L71.1496 460.789V409.616H25.9869Z" stroke="#DDA1FF" stroke-opacity="0.41" stroke-miterlimit="10"/>
<path fill-rule="evenodd" clip-rule="evenodd" d="M125.859 409.616L103.182 435.342H148.317V486.485L161.913 455.613L171.022 460.789V409.616H125.859Z" stroke="#DDA1FF" stroke-opacity="0.41" stroke-miterlimit="10"/>
<path fill-rule="evenodd" clip-rule="evenodd" d="M225.731 409.616L203.054 435.342H248.217V486.485L261.785 455.613L270.921 460.789V409.616H225.731Z" stroke="#DDA1FF" stroke-opacity="0.41" stroke-miterlimit="10"/>
<path fill-rule="evenodd" clip-rule="evenodd" d="M325.631 409.616L302.927 435.342H348.089V486.485L361.685 455.613L370.794 460.789V409.616H325.631Z" stroke="#DDA1FF" stroke-opacity="0.41" stroke-miterlimit="10"/>
<path fill-rule="evenodd" clip-rule="evenodd" d="M425.503 409.616L402.799 435.342H447.962V486.485L461.557 455.613L470.666 460.789V409.616H425.503Z" stroke="#DDA1FF" stroke-opacity="0.41" stroke-miterlimit="10"/>
<path fill-rule="evenodd" clip-rule="evenodd" d="M525.375 409.616L502.698 435.342H547.834V486.485L561.429 455.613L570.538 460.789V409.616H525.375Z" stroke="#DDA1FF" stroke-opacity="0.41" stroke-miterlimit="10"/>
<path fill-rule="evenodd" clip-rule="evenodd" d="M625.248 409.616L602.571 435.342H647.706V486.485L661.301 455.613L670.41 460.789V409.616H625.248Z" stroke="#DDA1FF" stroke-opacity="0.41" stroke-miterlimit="10"/>
<path fill-rule="evenodd" clip-rule="evenodd" d="M725.12 409.616L702.443 435.342H747.605V486.485L761.173 455.613L770.31 460.789V409.616H725.12Z" stroke="#DDA1FF" stroke-opacity="0.41" stroke-miterlimit="10"/>
<path fill-rule="evenodd" clip-rule="evenodd" d="M825.019 409.616L802.315 435.342H847.478V486.485L861.073 455.613L870.182 460.789V409.616H825.019Z" stroke="#DDA1FF" stroke-opacity="0.41" stroke-miterlimit="10"/>
<path fill-rule="evenodd" clip-rule="evenodd" d="M924.891 409.616L902.187 435.342H947.35V486.485L960.945 455.613L970.054 460.789V409.616H924.891Z" stroke="#DDA1FF" stroke-opacity="0.41" stroke-miterlimit="10"/>
<path fill-rule="evenodd" clip-rule="evenodd" d="M1024.76 409.616L1002.09 435.342H1047.22V486.485L1060.82 455.613L1069.93 460.789V409.616H1024.76Z" stroke="#DDA1FF" stroke-opacity="0.41" stroke-miterlimit="10"/>
<path fill-rule="evenodd" clip-rule="evenodd" d="M1124.64 409.616L1101.96 435.342H1147.09V486.485L1160.69 455.613L1169.8 460.789V409.616H1124.64Z" stroke="#DDA1FF" stroke-opacity="0.41" stroke-miterlimit="10"/>
<path fill-rule="evenodd" clip-rule="evenodd" d="M1224.51 409.616L1201.83 435.342H1246.99V486.485L1260.59 455.613L1269.7 460.789V409.616H1224.51Z" stroke="#DDA1FF" stroke-opacity="0.41" stroke-miterlimit="10"/>
<path fill-rule="evenodd" clip-rule="evenodd" d="M1324.41 409.616L1301.7 435.342H1346.87V486.485L1360.46 455.613L1369.57 460.789V409.616H1324.41Z" stroke="#DDA1FF" stroke-opacity="0.41" stroke-miterlimit="10"/>
<path fill-rule="evenodd" clip-rule="evenodd" d="M1424.28 409.616L1401.58 435.342H1446.74V486.485L1460.33 455.613L1469.44 460.789V409.616H1424.28Z" stroke="#DDA1FF" stroke-opacity="0.41" stroke-miterlimit="10"/>
<path fill-rule="evenodd" clip-rule="evenodd" d="M1524.15 409.616L1501.48 435.342H1546.61V486.485L1560.21 455.613L1569.31 460.789V409.616H1524.15Z" stroke="#DDA1FF" stroke-opacity="0.41" stroke-miterlimit="10"/>
<path fill-rule="evenodd" clip-rule="evenodd" d="M1624.02 409.616L1601.35 435.342H1646.51V486.485L1660.08 455.613L1669.19 460.789V409.616H1624.02Z" stroke="#DDA1FF" stroke-opacity="0.41" stroke-miterlimit="10"/>
<path fill-rule="evenodd" clip-rule="evenodd" d="M1723.9 409.616L1701.22 435.342H1746.38V486.485L1759.98 455.613L1769.09 460.789V409.616H1723.9Z" stroke="#DDA1FF" stroke-opacity="0.41" stroke-miterlimit="10"/>
<path fill-rule="evenodd" clip-rule="evenodd" d="M1823.8 409.616L1801.09 435.342H1846.25V486.485L1859.85 455.613L1868.96 460.789V409.616H1823.8Z" stroke="#DDA1FF" stroke-opacity="0.41" stroke-miterlimit="10"/>
<path fill-rule="evenodd" clip-rule="evenodd" d="M1923.67 409.616L1900.96 435.342H1946.13V486.485L1959.72 455.613L1968.83 460.789V409.616H1923.67Z" stroke="#DDA1FF" stroke-opacity="0.41" stroke-miterlimit="10"/>
<path fill-rule="evenodd" clip-rule="evenodd" d="M25.9869 525.601L3.30981 551.358H48.4452V602.501L62.0405 571.63L71.1496 576.806V525.601H25.9869Z" stroke="#DDA1FF" stroke-opacity="0.41" stroke-miterlimit="10"/>
<path fill-rule="evenodd" clip-rule="evenodd" d="M125.859 525.601L103.182 551.358H148.317V602.501L161.913 571.63L171.022 576.806V525.601H125.859Z" stroke="#DDA1FF" stroke-opacity="0.41" stroke-miterlimit="10"/>
<path fill-rule="evenodd" clip-rule="evenodd" d="M225.731 525.601L203.054 551.358H248.217V602.501L261.785 571.63L270.921 576.806V525.601H225.731Z" stroke="#DDA1FF" stroke-opacity="0.41" stroke-miterlimit="10"/>
<path fill-rule="evenodd" clip-rule="evenodd" d="M325.631 525.601L302.927 551.358H348.089V602.501L361.685 571.63L370.794 576.806V525.601H325.631Z" stroke="#DDA1FF" stroke-opacity="0.41" stroke-miterlimit="10"/>
<path fill-rule="evenodd" clip-rule="evenodd" d="M425.503 525.601L402.799 551.358H447.962V602.501L461.557 571.63L470.666 576.806V525.601H425.503Z" stroke="#DDA1FF" stroke-opacity="0.41" stroke-miterlimit="10"/>
<path fill-rule="evenodd" clip-rule="evenodd" d="M525.375 525.601L502.698 551.358H547.834V602.501L561.429 571.63L570.538 576.806V525.601H525.375Z" stroke="#DDA1FF" stroke-opacity="0.41" stroke-miterlimit="10"/>
<path fill-rule="evenodd" clip-rule="evenodd" d="M625.248 525.601L602.571 551.358H647.706V602.501L661.301 571.63L670.41 576.806V525.601H625.248Z" stroke="#DDA1FF" stroke-opacity="0.41" stroke-miterlimit="10"/>
<path fill-rule="evenodd" clip-rule="evenodd" d="M725.12 525.601L702.443 551.358H747.605V602.501L761.173 571.63L770.31 576.806V525.601H725.12Z" stroke="#DDA1FF" stroke-opacity="0.41" stroke-miterlimit="10"/>
<path fill-rule="evenodd" clip-rule="evenodd" d="M825.019 525.601L802.315 551.358H847.478V602.501L861.073 571.63L870.182 576.806V525.601H825.019Z" stroke="#DDA1FF" stroke-opacity="0.41" stroke-miterlimit="10"/>
<path fill-rule="evenodd" clip-rule="evenodd" d="M924.891 525.601L902.187 551.358H947.35V602.501L960.945 571.63L970.054 576.806V525.601H924.891Z" stroke="#DDA1FF" stroke-opacity="0.41" stroke-miterlimit="10"/>
<path fill-rule="evenodd" clip-rule="evenodd" d="M1024.76 525.601L1002.09 551.358H1047.22V602.501L1060.82 571.63L1069.93 576.806V525.601H1024.76Z" stroke="#DDA1FF" stroke-opacity="0.41" stroke-miterlimit="10"/>
<path fill-rule="evenodd" clip-rule="evenodd" d="M1124.64 525.601L1101.96 551.358H1147.09V602.501L1160.69 571.63L1169.8 576.806V525.601H1124.64Z" stroke="#DDA1FF" stroke-opacity="0.41" stroke-miterlimit="10"/>
<path fill-rule="evenodd" clip-rule="evenodd" d="M1224.51 525.601L1201.83 551.358H1246.99V602.501L1260.59 571.63L1269.7 576.806V525.601H1224.51Z" stroke="#DDA1FF" stroke-opacity="0.41" stroke-miterlimit="10"/>
<path fill-rule="evenodd" clip-rule="evenodd" d="M1324.41 525.601L1301.7 551.358H1346.87V602.501L1360.46 571.63L1369.57 576.806V525.601H1324.41Z" stroke="#DDA1FF" stroke-opacity="0.41" stroke-miterlimit="10"/>
<path fill-rule="evenodd" clip-rule="evenodd" d="M1424.28 525.601L1401.58 551.358H1446.74V602.501L1460.33 571.63L1469.44 576.806V525.601H1424.28Z" stroke="#DDA1FF" stroke-opacity="0.41" stroke-miterlimit="10"/>
<path fill-rule="evenodd" clip-rule="evenodd" d="M1524.15 525.601L1501.48 551.358H1546.61V602.501L1560.21 571.63L1569.31 576.806V525.601H1524.15Z" stroke="#DDA1FF" stroke-opacity="0.41" stroke-miterlimit="10"/>
<path fill-rule="evenodd" clip-rule="evenodd" d="M1624.02 525.601L1601.35 551.358H1646.51V602.501L1660.08 571.63L1669.19 576.806V525.601H1624.02Z" stroke="#DDA1FF" stroke-opacity="0.41" stroke-miterlimit="10"/>
<path fill-rule="evenodd" clip-rule="evenodd" d="M1723.9 525.601L1701.22 551.358H1746.38V602.501L1759.98 571.63L1769.09 576.806V525.601H1723.9Z" stroke="#DDA1FF" stroke-opacity="0.41" stroke-miterlimit="10"/>
<path fill-rule="evenodd" clip-rule="evenodd" d="M1823.8 525.601L1801.09 551.358H1846.25V602.501L1859.85 571.63L1868.96 576.806V525.601H1823.8Z" stroke="#DDA1FF" stroke-opacity="0.41" stroke-miterlimit="10"/>
<path fill-rule="evenodd" clip-rule="evenodd" d="M1923.67 525.601L1900.96 551.358H1946.13V602.501L1959.72 571.63L1968.83 576.806V525.601H1923.67Z" stroke="#DDA1FF" stroke-opacity="0.41" stroke-miterlimit="10"/>
<path fill-rule="evenodd" clip-rule="evenodd" d="M25.9869 641.618L3.30981 667.375H48.4452V718.518L62.0405 687.646L71.1496 692.822V641.618H25.9869Z" stroke="#DDA1FF" stroke-opacity="0.41" stroke-miterlimit="10"/>
<path fill-rule="evenodd" clip-rule="evenodd" d="M125.859 641.618L103.182 667.375H148.317V718.518L161.913 687.646L171.022 692.822V641.618H125.859Z" stroke="#DDA1FF" stroke-opacity="0.41" stroke-miterlimit="10"/>
<path fill-rule="evenodd" clip-rule="evenodd" d="M225.731 641.618L203.054 667.375H248.217V718.518L261.785 687.646L270.921 692.822V641.618H225.731Z" stroke="#DDA1FF" stroke-opacity="0.41" stroke-miterlimit="10"/>
<path fill-rule="evenodd" clip-rule="evenodd" d="M325.631 641.618L302.927 667.375H348.089V718.518L361.685 687.646L370.794 692.822V641.618H325.631Z" stroke="#DDA1FF" stroke-opacity="0.41" stroke-miterlimit="10"/>
<path fill-rule="evenodd" clip-rule="evenodd" d="M425.503 641.618L402.799 667.375H447.962V718.518L461.557 687.646L470.666 692.822V641.618H425.503Z" stroke="#DDA1FF" stroke-opacity="0.41" stroke-miterlimit="10"/>
<path fill-rule="evenodd" clip-rule="evenodd" d="M525.375 641.618L502.698 667.375H547.834V718.518L561.429 687.646L570.538 692.822V641.618H525.375Z" stroke="#DDA1FF" stroke-opacity="0.41" stroke-miterlimit="10"/>
<path fill-rule="evenodd" clip-rule="evenodd" d="M625.248 641.618L602.571 667.375H647.706V718.518L661.301 687.646L670.41 692.822V641.618H625.248Z" stroke="#DDA1FF" stroke-opacity="0.41" stroke-miterlimit="10"/>
<path fill-rule="evenodd" clip-rule="evenodd" d="M725.12 641.618L702.443 667.375H747.605V718.518L761.173 687.646L770.31 692.822V641.618H725.12Z" stroke="#DDA1FF" stroke-opacity="0.41" stroke-miterlimit="10"/>
<path fill-rule="evenodd" clip-rule="evenodd" d="M825.019 641.618L802.315 667.375H847.478V718.518L861.073 687.646L870.182 692.822V641.618H825.019Z" stroke="#DDA1FF" stroke-opacity="0.41" stroke-miterlimit="10"/>
<path fill-rule="evenodd" clip-rule="evenodd" d="M924.891 641.618L902.187 667.375H947.35V718.518L960.945 687.646L970.054 692.822V641.618H924.891Z" stroke="#DDA1FF" stroke-opacity="0.41" stroke-miterlimit="10"/>
<path fill-rule="evenodd" clip-rule="evenodd" d="M1024.76 641.618L1002.09 667.375H1047.22V718.518L1060.82 687.646L1069.93 692.822V641.618H1024.76Z" stroke="#DDA1FF" stroke-opacity="0.41" stroke-miterlimit="10"/>
<path fill-rule="evenodd" clip-rule="evenodd" d="M1124.64 641.618L1101.96 667.375H1147.09V718.518L1160.69 687.646L1169.8 692.822V641.618H1124.64Z" stroke="#DDA1FF" stroke-opacity="0.41" stroke-miterlimit="10"/>
<path fill-rule="evenodd" clip-rule="evenodd" d="M1224.51 641.618L1201.83 667.375H1246.99V718.518L1260.59 687.646L1269.7 692.822V641.618H1224.51Z" stroke="#DDA1FF" stroke-opacity="0.41" stroke-miterlimit="10"/>
<path fill-rule="evenodd" clip-rule="evenodd" d="M1324.41 641.618L1301.7 667.375H1346.87V718.518L1360.46 687.646L1369.57 692.822V641.618H1324.41Z" stroke="#DDA1FF" stroke-opacity="0.41" stroke-miterlimit="10"/>
<path fill-rule="evenodd" clip-rule="evenodd" d="M1424.28 641.618L1401.58 667.375H1446.74V718.518L1460.33 687.646L1469.44 692.822V641.618H1424.28Z" stroke="#DDA1FF" stroke-opacity="0.41" stroke-miterlimit="10"/>
<path fill-rule="evenodd" clip-rule="evenodd" d="M1524.15 641.618L1501.48 667.375H1546.61V718.518L1560.21 687.646L1569.31 692.822V641.618H1524.15Z" stroke="#DDA1FF" stroke-opacity="0.41" stroke-miterlimit="10"/>
<path fill-rule="evenodd" clip-rule="evenodd" d="M1624.02 641.618L1601.35 667.375H1646.51V718.518L1660.08 687.646L1669.19 692.822V641.618H1624.02Z" stroke="#DDA1FF" stroke-opacity="0.41" stroke-miterlimit="10"/>
<path fill-rule="evenodd" clip-rule="evenodd" d="M1723.9 641.618L1701.22 667.375H1746.38V718.518L1759.98 687.646L1769.09 692.822V641.618H1723.9Z" stroke="#DDA1FF" stroke-opacity="0.41" stroke-miterlimit="10"/>
<path fill-rule="evenodd" clip-rule="evenodd" d="M1823.8 641.618L1801.09 667.375H1846.25V718.518L1859.85 687.646L1868.96 692.822V641.618H1823.8Z" stroke="#DDA1FF" stroke-opacity="0.41" stroke-miterlimit="10"/>
<path fill-rule="evenodd" clip-rule="evenodd" d="M1923.67 641.618L1900.96 667.375H1946.13V718.518L1959.72 687.646L1968.83 692.822V641.618H1923.67Z" stroke="#DDA1FF" stroke-opacity="0.41" stroke-miterlimit="10"/>
<path fill-rule="evenodd" clip-rule="evenodd" d="M25.9869 757.634L3.30981 783.36H48.4452V834.534L62.0405 803.663L71.1496 808.839V757.634H25.9869Z" stroke="#DDA1FF" stroke-opacity="0.41" stroke-miterlimit="10"/>
<path fill-rule="evenodd" clip-rule="evenodd" d="M125.859 757.634L103.182 783.36H148.317V834.534L161.913 803.663L171.022 808.839V757.634H125.859Z" stroke="#DDA1FF" stroke-opacity="0.41" stroke-miterlimit="10"/>
<path fill-rule="evenodd" clip-rule="evenodd" d="M225.731 757.634L203.054 783.36H248.217V834.534L261.785 803.663L270.921 808.839V757.634H225.731Z" stroke="#DDA1FF" stroke-opacity="0.41" stroke-miterlimit="10"/>
<path fill-rule="evenodd" clip-rule="evenodd" d="M325.631 757.634L302.927 783.36H348.089V834.534L361.685 803.663L370.794 808.839V757.634H325.631Z" stroke="#DDA1FF" stroke-opacity="0.41" stroke-miterlimit="10"/>
<path fill-rule="evenodd" clip-rule="evenodd" d="M425.503 757.634L402.799 783.36H447.962V834.534L461.557 803.663L470.666 808.839V757.634H425.503Z" stroke="#DDA1FF" stroke-opacity="0.41" stroke-miterlimit="10"/>
<path fill-rule="evenodd" clip-rule="evenodd" d="M525.375 757.634L502.698 783.36H547.834V834.534L561.429 803.663L570.538 808.839V757.634H525.375Z" stroke="#DDA1FF" stroke-opacity="0.41" stroke-miterlimit="10"/>
<path fill-rule="evenodd" clip-rule="evenodd" d="M625.248 757.634L602.571 783.36H647.706V834.534L661.301 803.663L670.41 808.839V757.634H625.248Z" stroke="#DDA1FF" stroke-opacity="0.41" stroke-miterlimit="10"/>
<path fill-rule="evenodd" clip-rule="evenodd" d="M725.12 757.634L702.443 783.36H747.605V834.534L761.173 803.663L770.31 808.839V757.634H725.12Z" stroke="#DDA1FF" stroke-opacity="0.41" stroke-miterlimit="10"/>
<path fill-rule="evenodd" clip-rule="evenodd" d="M825.019 757.634L802.315 783.36H847.478V834.534L861.073 803.663L870.182 808.839V757.634H825.019Z" stroke="#DDA1FF" stroke-opacity="0.41" stroke-miterlimit="10"/>
<path fill-rule="evenodd" clip-rule="evenodd" d="M924.891 757.634L902.187 783.36H947.35V834.534L960.945 803.663L970.054 808.839V757.634H924.891Z" stroke="#DDA1FF" stroke-opacity="0.41" stroke-miterlimit="10"/>
<path fill-rule="evenodd" clip-rule="evenodd" d="M1024.76 757.634L1002.09 783.36H1047.22V834.534L1060.82 803.663L1069.93 808.839V757.634H1024.76Z" stroke="#DDA1FF" stroke-opacity="0.41" stroke-miterlimit="10"/>
<path fill-rule="evenodd" clip-rule="evenodd" d="M1124.64 757.634L1101.96 783.36H1147.09V834.534L1160.69 803.663L1169.8 808.839V757.634H1124.64Z" stroke="#DDA1FF" stroke-opacity="0.41" stroke-miterlimit="10"/>
<path fill-rule="evenodd" clip-rule="evenodd" d="M1224.51 757.634L1201.83 783.36H1246.99V834.534L1260.59 803.663L1269.7 808.839V757.634H1224.51Z" stroke="#DDA1FF" stroke-opacity="0.41" stroke-miterlimit="10"/>
<path fill-rule="evenodd" clip-rule="evenodd" d="M1324.41 757.634L1301.7 783.36H1346.87V834.534L1360.46 803.663L1369.57 808.839V757.634H1324.41Z" stroke="#DDA1FF" stroke-opacity="0.41" stroke-miterlimit="10"/>
<path fill-rule="evenodd" clip-rule="evenodd" d="M1424.28 757.634L1401.58 783.36H1446.74V834.534L1460.33 803.663L1469.44 808.839V757.634H1424.28Z" stroke="#DDA1FF" stroke-opacity="0.41" stroke-miterlimit="10"/>
<path fill-rule="evenodd" clip-rule="evenodd" d="M1524.15 757.634L1501.48 783.36H1546.61V834.534L1560.21 803.663L1569.31 808.839V757.634H1524.15Z" stroke="#DDA1FF" stroke-opacity="0.41" stroke-miterlimit="10"/>
<path fill-rule="evenodd" clip-rule="evenodd" d="M1624.02 757.634L1601.35 783.36H1646.51V834.534L1660.08 803.663L1669.19 808.839V757.634H1624.02Z" stroke="#DDA1FF" stroke-opacity="0.41" stroke-miterlimit="10"/>
<path fill-rule="evenodd" clip-rule="evenodd" d="M1723.9 757.634L1701.22 783.36H1746.38V834.534L1759.98 803.663L1769.09 808.839V757.634H1723.9Z" stroke="#DDA1FF" stroke-opacity="0.41" stroke-miterlimit="10"/>
<path fill-rule="evenodd" clip-rule="evenodd" d="M1823.8 757.634L1801.09 783.36H1846.25V834.534L1859.85 803.663L1868.96 808.839V757.634H1823.8Z" stroke="#DDA1FF" stroke-opacity="0.41" stroke-miterlimit="10"/>
<path fill-rule="evenodd" clip-rule="evenodd" d="M1923.67 757.634L1900.96 783.36H1946.13V834.534L1959.72 803.663L1968.83 808.839V757.634H1923.67Z" stroke="#DDA1FF" stroke-opacity="0.41" stroke-miterlimit="10"/>
<path fill-rule="evenodd" clip-rule="evenodd" d="M25.9869 873.651L3.30981 899.377H48.4452V950.551L62.0405 919.648L71.1496 924.855V873.651H25.9869Z" stroke="#DDA1FF" stroke-opacity="0.41" stroke-miterlimit="10"/>
<path fill-rule="evenodd" clip-rule="evenodd" d="M125.859 873.651L103.182 899.377H148.317V950.551L161.913 919.648L171.022 924.855V873.651H125.859Z" stroke="#DDA1FF" stroke-opacity="0.41" stroke-miterlimit="10"/>
<path fill-rule="evenodd" clip-rule="evenodd" d="M225.731 873.651L203.054 899.377H248.217V950.551L261.785 919.648L270.921 924.855V873.651H225.731Z" stroke="#DDA1FF" stroke-opacity="0.41" stroke-miterlimit="10"/>
<path fill-rule="evenodd" clip-rule="evenodd" d="M325.631 873.651L302.927 899.377H348.089V950.551L361.685 919.648L370.794 924.855V873.651H325.631Z" stroke="#DDA1FF" stroke-opacity="0.41" stroke-miterlimit="10"/>
<path fill-rule="evenodd" clip-rule="evenodd" d="M425.503 873.651L402.799 899.377H447.962V950.551L461.557 919.648L470.666 924.855V873.651H425.503Z" stroke="#DDA1FF" stroke-opacity="0.41" stroke-miterlimit="10"/>
<path fill-rule="evenodd" clip-rule="evenodd" d="M525.375 873.651L502.698 899.377H547.834V950.551L561.429 919.648L570.538 924.855V873.651H525.375Z" stroke="#DDA1FF" stroke-opacity="0.41" stroke-miterlimit="10"/>
<path fill-rule="evenodd" clip-rule="evenodd" d="M625.248 873.651L602.571 899.377H647.706V950.551L661.301 919.648L670.41 924.855V873.651H625.248Z" stroke="#DDA1FF" stroke-opacity="0.41" stroke-miterlimit="10"/>
<path fill-rule="evenodd" clip-rule="evenodd" d="M725.12 873.651L702.443 899.377H747.605V950.551L761.173 919.648L770.31 924.855V873.651H725.12Z" stroke="#DDA1FF" stroke-opacity="0.41" stroke-miterlimit="10"/>
<path fill-rule="evenodd" clip-rule="evenodd" d="M825.019 873.651L802.315 899.377H847.478V950.551L861.073 919.648L870.182 924.855V873.651H825.019Z" stroke="#DDA1FF" stroke-opacity="0.41" stroke-miterlimit="10"/>
<path fill-rule="evenodd" clip-rule="evenodd" d="M924.891 873.651L902.187 899.377H947.35V950.551L960.945 919.648L970.054 924.855V873.651H924.891Z" stroke="#DDA1FF" stroke-opacity="0.41" stroke-miterlimit="10"/>
<path fill-rule="evenodd" clip-rule="evenodd" d="M1024.76 873.651L1002.09 899.377H1047.22V950.551L1060.82 919.648L1069.93 924.855V873.651H1024.76Z" stroke="#DDA1FF" stroke-opacity="0.41" stroke-miterlimit="10"/>
<path fill-rule="evenodd" clip-rule="evenodd" d="M1124.64 873.651L1101.96 899.377H1147.09V950.551L1160.69 919.648L1169.8 924.855V873.651H1124.64Z" stroke="#DDA1FF" stroke-opacity="0.41" stroke-miterlimit="10"/>
<path fill-rule="evenodd" clip-rule="evenodd" d="M1224.51 873.651L1201.83 899.377H1246.99V950.551L1260.59 919.648L1269.7 924.855V873.651H1224.51Z" stroke="#DDA1FF" stroke-opacity="0.41" stroke-miterlimit="10"/>
<path fill-rule="evenodd" clip-rule="evenodd" d="M1324.41 873.651L1301.7 899.377H1346.87V950.551L1360.46 919.648L1369.57 924.855V873.651H1324.41Z" stroke="#DDA1FF" stroke-opacity="0.41" stroke-miterlimit="10"/>
<path fill-rule="evenodd" clip-rule="evenodd" d="M1424.28 873.651L1401.58 899.377H1446.74V950.551L1460.33 919.648L1469.44 924.855V873.651H1424.28Z" stroke="#DDA1FF" stroke-opacity="0.41" stroke-miterlimit="10"/>
<path fill-rule="evenodd" clip-rule="evenodd" d="M1524.15 873.651L1501.48 899.377H1546.61V950.551L1560.21 919.648L1569.31 924.855V873.651H1524.15Z" stroke="#DDA1FF" stroke-opacity="0.41" stroke-miterlimit="10"/>
<path fill-rule="evenodd" clip-rule="evenodd" d="M1624.02 873.651L1601.35 899.377H1646.51V950.551L1660.08 919.648L1669.19 924.855V873.651H1624.02Z" stroke="#DDA1FF" stroke-opacity="0.41" stroke-miterlimit="10"/>
<path fill-rule="evenodd" clip-rule="evenodd" d="M1723.9 873.651L1701.22 899.377H1746.38V950.551L1759.98 919.648L1769.09 924.855V873.651H1723.9Z" stroke="#DDA1FF" stroke-opacity="0.41" stroke-miterlimit="10"/>
<path fill-rule="evenodd" clip-rule="evenodd" d="M1823.8 873.651L1801.09 899.377H1846.25V950.551L1859.85 919.648L1868.96 924.855V873.651H1823.8Z" stroke="#DDA1FF" stroke-opacity="0.41" stroke-miterlimit="10"/>
<path fill-rule="evenodd" clip-rule="evenodd" d="M1923.67 873.651L1900.96 899.377H1946.13V950.551L1959.72 919.648L1968.83 924.855V873.651H1923.67Z" stroke="#DDA1FF" stroke-opacity="0.41" stroke-miterlimit="10"/>
</g>
</g>
<defs>
<linearGradient id="paint0_linear_748_391" x1="-6.606e-07" y1="547.062" x2="1922" y2="344.938" gradientUnits="userSpaceOnUse">
<stop/>
<stop offset="0.99" stop-color="#38003C"/>
</linearGradient>
<clipPath id="clip0_748_391">
<rect width="1922" height="892" fill="white"/>
</clipPath>
</defs>
</svg>
