<svg width="1922" height="598" viewBox="0 0 1922 598" fill="none" xmlns="http://www.w3.org/2000/svg">
<g clip-path="url(#clip0_748_391)">
<rect width="1922" height="598" fill="url(#paint0_linear_748_391)"/>
<mask id="mask0_748_391" style="mask-type:luminance" maskUnits="userSpaceOnUse" x="0" y="-350" width="1922" height="948">
<path d="M1921.5 -349.5V597.5H0.5V-349.5H1921.5Z" fill="white" stroke="white"/>
</mask>
<g mask="url(#mask0_748_391)">
<path fill-rule="evenodd" clip-rule="evenodd" d="M25.987 -0.400879L3.30992 25.3254H48.4453V76.4682L62.0406 45.5966L71.1497 50.7728V-0.400879H25.987Z" stroke="#DDA1FF" stroke-opacity="0.41" stroke-miterlimit="10"/>
<path fill-rule="evenodd" clip-rule="evenodd" d="M125.859 -0.400879L103.182 25.3254H148.317V76.4682L161.913 45.5966L171.022 50.7728V-0.400879H125.859Z" stroke="#DDA1FF" stroke-opacity="0.41" stroke-miterlimit="10"/>
<path fill-rule="evenodd" clip-rule="evenodd" d="M225.731 -0.400879L203.054 25.3254H248.217V76.4682L261.785 45.5966L270.922 50.7728V-0.400879H225.731Z" stroke="#DDA1FF" stroke-opacity="0.41" stroke-miterlimit="10"/>
<path fill-rule="evenodd" clip-rule="evenodd" d="M325.631 -0.400879L302.927 25.3254H348.089V76.4682L361.685 45.5966L370.794 50.7728V-0.400879H325.631Z" stroke="#DDA1FF" stroke-opacity="0.41" stroke-miterlimit="10"/>
<path fill-rule="evenodd" clip-rule="evenodd" d="M425.503 -0.400879L402.799 25.3254H447.962V76.4682L461.557 45.5966L470.666 50.7728V-0.400879H425.503Z" stroke="#DDA1FF" stroke-opacity="0.41" stroke-miterlimit="10"/>
<path fill-rule="evenodd" clip-rule="evenodd" d="M525.375 -0.400879L502.698 25.3254H547.834V76.4682L561.429 45.5966L570.538 50.7728V-0.400879H525.375Z" stroke="#DDA1FF" stroke-opacity="0.41" stroke-miterlimit="10"/>
<path fill-rule="evenodd" clip-rule="evenodd" d="M625.248 -0.400879L602.571 25.3254H647.706V76.4682L661.301 45.5966L670.41 50.7728V-0.400879H625.248Z" stroke="#DDA1FF" stroke-opacity="0.41" stroke-miterlimit="10"/>
<path fill-rule="evenodd" clip-rule="evenodd" d="M725.12 -0.400879L702.443 25.3254H747.605V76.4682L761.173 45.5966L770.31 50.7728V-0.400879H725.12Z" stroke="#DDA1FF" stroke-opacity="0.41" stroke-miterlimit="10"/>
<path fill-rule="evenodd" clip-rule="evenodd" d="M825.02 -0.400879L802.315 25.3254H847.478V76.4682L861.073 45.5966L870.182 50.7728V-0.400879H825.02Z" stroke="#DDA1FF" stroke-opacity="0.41" stroke-miterlimit="10"/>
<path fill-rule="evenodd" clip-rule="evenodd" d="M924.892 -0.400879L902.187 25.3254H947.35V76.4682L960.945 45.5966L970.054 50.7728V-0.400879H924.892Z" stroke="#DDA1FF" stroke-opacity="0.41" stroke-miterlimit="10"/>
<path fill-rule="evenodd" clip-rule="evenodd" d="M1024.76 -0.400879L1002.09 25.3254H1047.22V76.4682L1060.82 45.5966L1069.93 50.7728V-0.400879H1024.76Z" stroke="#DDA1FF" stroke-opacity="0.41" stroke-miterlimit="10"/>
<path fill-rule="evenodd" clip-rule="evenodd" d="M1124.64 -0.400879L1101.96 25.3254H1147.09V76.4682L1160.69 45.5966L1169.8 50.7728V-0.400879H1124.64Z" stroke="#DDA1FF" stroke-opacity="0.41" stroke-miterlimit="10"/>
<path fill-rule="evenodd" clip-rule="evenodd" d="M1224.51 -0.400879L1201.83 25.3254H1246.99V76.4682L1260.59 45.5966L1269.7 50.7728V-0.400879H1224.51Z" stroke="#DDA1FF" stroke-opacity="0.41" stroke-miterlimit="10"/>
<path fill-rule="evenodd" clip-rule="evenodd" d="M1324.41 -0.400879L1301.7 25.3254H1346.87V76.4682L1360.46 45.5966L1369.57 50.7728V-0.400879H1324.41Z" stroke="#DDA1FF" stroke-opacity="0.41" stroke-miterlimit="10"/>
<path fill-rule="evenodd" clip-rule="evenodd" d="M1424.28 -0.400879L1401.58 25.3254H1446.74V76.4682L1460.33 45.5966L1469.44 50.7728V-0.400879H1424.28Z" stroke="#DDA1FF" stroke-opacity="0.41" stroke-miterlimit="10"/>
<path fill-rule="evenodd" clip-rule="evenodd" d="M1524.15 -0.400879L1501.48 25.3254H1546.61V76.4682L1560.21 45.5966L1569.32 50.7728V-0.400879H1524.15Z" stroke="#DDA1FF" stroke-opacity="0.41" stroke-miterlimit="10"/>
<path fill-rule="evenodd" clip-rule="evenodd" d="M1624.02 -0.400879L1601.35 25.3254H1646.51V76.4682L1660.08 45.5966L1669.19 50.7728V-0.400879H1624.02Z" stroke="#DDA1FF" stroke-opacity="0.41" stroke-miterlimit="10"/>
<path fill-rule="evenodd" clip-rule="evenodd" d="M1723.9 -0.400879L1701.22 25.3254H1746.38V76.4682L1759.98 45.5966L1769.09 50.7728V-0.400879H1723.9Z" stroke="#DDA1FF" stroke-opacity="0.41" stroke-miterlimit="10"/>
<path fill-rule="evenodd" clip-rule="evenodd" d="M1823.8 -0.400879L1801.09 25.3254H1846.25V76.4682L1859.85 45.5966L1868.96 50.7728V-0.400879H1823.8Z" stroke="#DDA1FF" stroke-opacity="0.41" stroke-miterlimit="10"/>
<path fill-rule="evenodd" clip-rule="evenodd" d="M1923.67 -0.400879L1900.96 25.3254H1946.13V76.4682L1959.72 45.5966L1968.83 50.7728V-0.400879H1923.67Z" stroke="#DDA1FF" stroke-opacity="0.41" stroke-miterlimit="10"/>
<path fill-rule="evenodd" clip-rule="evenodd" d="M25.987 115.616L3.30992 141.342H48.4453V192.485L62.0406 161.613L71.1497 166.789V115.616H25.987Z" stroke="#DDA1FF" stroke-opacity="0.41" stroke-miterlimit="10"/>
<path fill-rule="evenodd" clip-rule="evenodd" d="M125.859 115.616L103.182 141.342H148.317V192.485L161.913 161.613L171.022 166.789V115.616H125.859Z" stroke="#DDA1FF" stroke-opacity="0.41" stroke-miterlimit="10"/>
<path fill-rule="evenodd" clip-rule="evenodd" d="M225.731 115.616L203.054 141.342H248.217V192.485L261.785 161.613L270.922 166.789V115.616H225.731Z" stroke="#DDA1FF" stroke-opacity="0.41" stroke-miterlimit="10"/>
<path fill-rule="evenodd" clip-rule="evenodd" d="M325.631 115.616L302.927 141.342H348.089V192.485L361.685 161.613L370.794 166.789V115.616H325.631Z" stroke="#DDA1FF" stroke-opacity="0.41" stroke-miterlimit="10"/>
<path fill-rule="evenodd" clip-rule="evenodd" d="M425.503 115.616L402.799 141.342H447.962V192.485L461.557 161.613L470.666 166.789V115.616H425.503Z" stroke="#DDA1FF" stroke-opacity="0.41" stroke-miterlimit="10"/>
<path fill-rule="evenodd" clip-rule="evenodd" d="M525.375 115.616L502.698 141.342H547.834V192.485L561.429 161.613L570.538 166.789V115.616H525.375Z" stroke="#DDA1FF" stroke-opacity="0.41" stroke-miterlimit="10"/>
<path fill-rule="evenodd" clip-rule="evenodd" d="M625.248 115.616L602.571 141.342H647.706V192.485L661.301 161.613L670.41 166.789V115.616H625.248Z" stroke="#DDA1FF" stroke-opacity="0.41" stroke-miterlimit="10"/>
<path fill-rule="evenodd" clip-rule="evenodd" d="M725.12 115.616L702.443 141.342H747.605V192.485L761.173 161.613L770.31 166.789V115.616H725.12Z" stroke="#DDA1FF" stroke-opacity="0.41" stroke-miterlimit="10"/>
<path fill-rule="evenodd" clip-rule="evenodd" d="M825.02 115.616L802.315 141.342H847.478V192.485L861.073 161.613L870.182 166.789V115.616H825.02Z" stroke="#DDA1FF" stroke-opacity="0.41" stroke-miterlimit="10"/>
<path fill-rule="evenodd" clip-rule="evenodd" d="M924.892 115.616L902.187 141.342H947.35V192.485L960.945 161.613L970.054 166.789V115.616H924.892Z" stroke="#DDA1FF" stroke-opacity="0.41" stroke-miterlimit="10"/>
<path fill-rule="evenodd" clip-rule="evenodd" d="M1024.76 115.616L1002.09 141.342H1047.22V192.485L1060.82 161.613L1069.93 166.789V115.616H1024.76Z" stroke="#DDA1FF" stroke-opacity="0.41" stroke-miterlimit="10"/>
<path fill-rule="evenodd" clip-rule="evenodd" d="M1124.64 115.616L1101.96 141.342H1147.09V192.485L1160.69 161.613L1169.8 166.789V115.616H1124.64Z" stroke="#DDA1FF" stroke-opacity="0.41" stroke-miterlimit="10"/>
<path fill-rule="evenodd" clip-rule="evenodd" d="M1224.51 115.616L1201.83 141.342H1246.99V192.485L1260.59 161.613L1269.7 166.789V115.616H1224.51Z" stroke="#DDA1FF" stroke-opacity="0.41" stroke-miterlimit="10"/>
<path fill-rule="evenodd" clip-rule="evenodd" d="M1324.41 115.616L1301.7 141.342H1346.87V192.485L1360.46 161.613L1369.57 166.789V115.616H1324.41Z" stroke="#DDA1FF" stroke-opacity="0.41" stroke-miterlimit="10"/>
<path fill-rule="evenodd" clip-rule="evenodd" d="M1424.28 115.616L1401.58 141.342H1446.74V192.485L1460.33 161.613L1469.44 166.789V115.616H1424.28Z" stroke="#DDA1FF" stroke-opacity="0.41" stroke-miterlimit="10"/>
<path fill-rule="evenodd" clip-rule="evenodd" d="M1524.15 115.616L1501.48 141.342H1546.61V192.485L1560.21 161.613L1569.32 166.789V115.616H1524.15Z" stroke="#DDA1FF" stroke-opacity="0.41" stroke-miterlimit="10"/>
<path fill-rule="evenodd" clip-rule="evenodd" d="M1624.02 115.616L1601.35 141.342H1646.51V192.485L1660.08 161.613L1669.19 166.789V115.616H1624.02Z" stroke="#DDA1FF" stroke-opacity="0.41" stroke-miterlimit="10"/>
<path fill-rule="evenodd" clip-rule="evenodd" d="M1723.9 115.616L1701.22 141.342H1746.38V192.485L1759.98 161.613L1769.09 166.789V115.616H1723.9Z" stroke="#DDA1FF" stroke-opacity="0.41" stroke-miterlimit="10"/>
<path fill-rule="evenodd" clip-rule="evenodd" d="M1823.8 115.616L1801.09 141.342H1846.25V192.485L1859.85 161.613L1868.96 166.789V115.616H1823.8Z" stroke="#DDA1FF" stroke-opacity="0.41" stroke-miterlimit="10"/>
<path fill-rule="evenodd" clip-rule="evenodd" d="M1923.67 115.616L1900.96 141.342H1946.13V192.485L1959.72 161.613L1968.83 166.789V115.616H1923.67Z" stroke="#DDA1FF" stroke-opacity="0.41" stroke-miterlimit="10"/>
<path fill-rule="evenodd" clip-rule="evenodd" d="M25.987 231.601L3.30992 257.358H48.4453V308.501L62.0406 277.63L71.1497 282.806V231.601H25.987Z" stroke="#DDA1FF" stroke-opacity="0.41" stroke-miterlimit="10"/>
<path fill-rule="evenodd" clip-rule="evenodd" d="M125.859 231.601L103.182 257.358H148.317V308.501L161.913 277.63L171.022 282.806V231.601H125.859Z" stroke="#DDA1FF" stroke-opacity="0.41" stroke-miterlimit="10"/>
<path fill-rule="evenodd" clip-rule="evenodd" d="M225.731 231.601L203.054 257.358H248.217V308.501L261.785 277.63L270.922 282.806V231.601H225.731Z" stroke="#DDA1FF" stroke-opacity="0.41" stroke-miterlimit="10"/>
<path fill-rule="evenodd" clip-rule="evenodd" d="M325.631 231.601L302.927 257.358H348.089V308.501L361.685 277.63L370.794 282.806V231.601H325.631Z" stroke="#DDA1FF" stroke-opacity="0.41" stroke-miterlimit="10"/>
<path fill-rule="evenodd" clip-rule="evenodd" d="M425.503 231.601L402.799 257.358H447.962V308.501L461.557 277.63L470.666 282.806V231.601H425.503Z" stroke="#DDA1FF" stroke-opacity="0.41" stroke-miterlimit="10"/>
<path fill-rule="evenodd" clip-rule="evenodd" d="M525.375 231.601L502.698 257.358H547.834V308.501L561.429 277.63L570.538 282.806V231.601H525.375Z" stroke="#DDA1FF" stroke-opacity="0.41" stroke-miterlimit="10"/>
<path fill-rule="evenodd" clip-rule="evenodd" d="M625.248 231.601L602.571 257.358H647.706V308.501L661.301 277.63L670.41 282.806V231.601H625.248Z" stroke="#DDA1FF" stroke-opacity="0.41" stroke-miterlimit="10"/>
<path fill-rule="evenodd" clip-rule="evenodd" d="M725.12 231.601L702.443 257.358H747.605V308.501L761.173 277.63L770.31 282.806V231.601H725.12Z" stroke="#DDA1FF" stroke-opacity="0.41" stroke-miterlimit="10"/>
<path fill-rule="evenodd" clip-rule="evenodd" d="M825.02 231.601L802.315 257.358H847.478V308.501L861.073 277.63L870.182 282.806V231.601H825.02Z" stroke="#DDA1FF" stroke-opacity="0.41" stroke-miterlimit="10"/>
<path fill-rule="evenodd" clip-rule="evenodd" d="M924.892 231.601L902.187 257.358H947.35V308.501L960.945 277.63L970.054 282.806V231.601H924.892Z" stroke="#DDA1FF" stroke-opacity="0.41" stroke-miterlimit="10"/>
<path fill-rule="evenodd" clip-rule="evenodd" d="M1024.76 231.601L1002.09 257.358H1047.22V308.501L1060.82 277.63L1069.93 282.806V231.601H1024.76Z" stroke="#DDA1FF" stroke-opacity="0.41" stroke-miterlimit="10"/>
<path fill-rule="evenodd" clip-rule="evenodd" d="M1124.64 231.601L1101.96 257.358H1147.09V308.501L1160.69 277.63L1169.8 282.806V231.601H1124.64Z" stroke="#DDA1FF" stroke-opacity="0.41" stroke-miterlimit="10"/>
<path fill-rule="evenodd" clip-rule="evenodd" d="M1224.51 231.601L1201.83 257.358H1246.99V308.501L1260.59 277.63L1269.7 282.806V231.601H1224.51Z" stroke="#DDA1FF" stroke-opacity="0.41" stroke-miterlimit="10"/>
<path fill-rule="evenodd" clip-rule="evenodd" d="M1324.41 231.601L1301.7 257.358H1346.87V308.501L1360.46 277.63L1369.57 282.806V231.601H1324.41Z" stroke="#DDA1FF" stroke-opacity="0.41" stroke-miterlimit="10"/>
<path fill-rule="evenodd" clip-rule="evenodd" d="M1424.28 231.601L1401.58 257.358H1446.74V308.501L1460.33 277.63L1469.44 282.806V231.601H1424.28Z" stroke="#DDA1FF" stroke-opacity="0.41" stroke-miterlimit="10"/>
<path fill-rule="evenodd" clip-rule="evenodd" d="M1524.15 231.601L1501.48 257.358H1546.61V308.501L1560.21 277.63L1569.32 282.806V231.601H1524.15Z" stroke="#DDA1FF" stroke-opacity="0.41" stroke-miterlimit="10"/>
<path fill-rule="evenodd" clip-rule="evenodd" d="M1624.02 231.601L1601.35 257.358H1646.51V308.501L1660.08 277.63L1669.19 282.806V231.601H1624.02Z" stroke="#DDA1FF" stroke-opacity="0.41" stroke-miterlimit="10"/>
<path fill-rule="evenodd" clip-rule="evenodd" d="M1723.9 231.601L1701.22 257.358H1746.38V308.501L1759.98 277.63L1769.09 282.806V231.601H1723.9Z" stroke="#DDA1FF" stroke-opacity="0.41" stroke-miterlimit="10"/>
<path fill-rule="evenodd" clip-rule="evenodd" d="M1823.8 231.601L1801.09 257.358H1846.25V308.501L1859.85 277.63L1868.96 282.806V231.601H1823.8Z" stroke="#DDA1FF" stroke-opacity="0.41" stroke-miterlimit="10"/>
<path fill-rule="evenodd" clip-rule="evenodd" d="M1923.67 231.601L1900.96 257.358H1946.13V308.501L1959.72 277.63L1968.83 282.806V231.601H1923.67Z" stroke="#DDA1FF" stroke-opacity="0.41" stroke-miterlimit="10"/>
<path fill-rule="evenodd" clip-rule="evenodd" d="M25.987 347.618L3.30992 373.375H48.4453V424.518L62.0406 393.646L71.1497 398.822V347.618H25.987Z" stroke="#DDA1FF" stroke-opacity="0.41" stroke-miterlimit="10"/>
<path fill-rule="evenodd" clip-rule="evenodd" d="M125.859 347.618L103.182 373.375H148.317V424.518L161.913 393.646L171.022 398.822V347.618H125.859Z" stroke="#DDA1FF" stroke-opacity="0.41" stroke-miterlimit="10"/>
<path fill-rule="evenodd" clip-rule="evenodd" d="M225.731 347.618L203.054 373.375H248.217V424.518L261.785 393.646L270.922 398.822V347.618H225.731Z" stroke="#DDA1FF" stroke-opacity="0.41" stroke-miterlimit="10"/>
<path fill-rule="evenodd" clip-rule="evenodd" d="M325.631 347.618L302.927 373.375H348.089V424.518L361.685 393.646L370.794 398.822V347.618H325.631Z" stroke="#DDA1FF" stroke-opacity="0.41" stroke-miterlimit="10"/>
<path fill-rule="evenodd" clip-rule="evenodd" d="M425.503 347.618L402.799 373.375H447.962V424.518L461.557 393.646L470.666 398.822V347.618H425.503Z" stroke="#DDA1FF" stroke-opacity="0.41" stroke-miterlimit="10"/>
<path fill-rule="evenodd" clip-rule="evenodd" d="M525.375 347.618L502.698 373.375H547.834V424.518L561.429 393.646L570.538 398.822V347.618H525.375Z" stroke="#DDA1FF" stroke-opacity="0.41" stroke-miterlimit="10"/>
<path fill-rule="evenodd" clip-rule="evenodd" d="M625.248 347.618L602.571 373.375H647.706V424.518L661.301 393.646L670.41 398.822V347.618H625.248Z" stroke="#DDA1FF" stroke-opacity="0.41" stroke-miterlimit="10"/>
<path fill-rule="evenodd" clip-rule="evenodd" d="M725.12 347.618L702.443 373.375H747.605V424.518L761.173 393.646L770.31 398.822V347.618H725.12Z" stroke="#DDA1FF" stroke-opacity="0.41" stroke-miterlimit="10"/>
<path fill-rule="evenodd" clip-rule="evenodd" d="M825.02 347.618L802.315 373.375H847.478V424.518L861.073 393.646L870.182 398.822V347.618H825.02Z" stroke="#DDA1FF" stroke-opacity="0.41" stroke-miterlimit="10"/>
<path fill-rule="evenodd" clip-rule="evenodd" d="M924.892 347.618L902.187 373.375H947.35V424.518L960.945 393.646L970.054 398.822V347.618H924.892Z" stroke="#DDA1FF" stroke-opacity="0.41" stroke-miterlimit="10"/>
<path fill-rule="evenodd" clip-rule="evenodd" d="M1024.76 347.618L1002.09 373.375H1047.22V424.518L1060.82 393.646L1069.93 398.822V347.618H1024.76Z" stroke="#DDA1FF" stroke-opacity="0.41" stroke-miterlimit="10"/>
<path fill-rule="evenodd" clip-rule="evenodd" d="M1124.64 347.618L1101.96 373.375H1147.09V424.518L1160.69 393.646L1169.8 398.822V347.618H1124.64Z" stroke="#DDA1FF" stroke-opacity="0.41" stroke-miterlimit="10"/>
<path fill-rule="evenodd" clip-rule="evenodd" d="M1224.51 347.618L1201.83 373.375H1246.99V424.518L1260.59 393.646L1269.7 398.822V347.618H1224.51Z" stroke="#DDA1FF" stroke-opacity="0.41" stroke-miterlimit="10"/>
<path fill-rule="evenodd" clip-rule="evenodd" d="M1324.41 347.618L1301.7 373.375H1346.87V424.518L1360.46 393.646L1369.57 398.822V347.618H1324.41Z" stroke="#DDA1FF" stroke-opacity="0.41" stroke-miterlimit="10"/>
<path fill-rule="evenodd" clip-rule="evenodd" d="M1424.28 347.618L1401.58 373.375H1446.74V424.518L1460.33 393.646L1469.44 398.822V347.618H1424.28Z" stroke="#DDA1FF" stroke-opacity="0.41" stroke-miterlimit="10"/>
<path fill-rule="evenodd" clip-rule="evenodd" d="M1524.15 347.618L1501.48 373.375H1546.61V424.518L1560.21 393.646L1569.32 398.822V347.618H1524.15Z" stroke="#DDA1FF" stroke-opacity="0.41" stroke-miterlimit="10"/>
<path fill-rule="evenodd" clip-rule="evenodd" d="M1624.02 347.618L1601.35 373.375H1646.51V424.518L1660.08 393.646L1669.19 398.822V347.618H1624.02Z" stroke="#DDA1FF" stroke-opacity="0.41" stroke-miterlimit="10"/>
<path fill-rule="evenodd" clip-rule="evenodd" d="M1723.9 347.618L1701.22 373.375H1746.38V424.518L1759.98 393.646L1769.09 398.822V347.618H1723.9Z" stroke="#DDA1FF" stroke-opacity="0.41" stroke-miterlimit="10"/>
<path fill-rule="evenodd" clip-rule="evenodd" d="M1823.8 347.618L1801.09 373.375H1846.25V424.518L1859.85 393.646L1868.96 398.822V347.618H1823.8Z" stroke="#DDA1FF" stroke-opacity="0.41" stroke-miterlimit="10"/>
<path fill-rule="evenodd" clip-rule="evenodd" d="M1923.67 347.618L1900.96 373.375H1946.13V424.518L1959.72 393.646L1968.83 398.822V347.618H1923.67Z" stroke="#DDA1FF" stroke-opacity="0.41" stroke-miterlimit="10"/>
<path fill-rule="evenodd" clip-rule="evenodd" d="M25.987 463.634L3.30992 489.361H48.4453V540.534L62.0406 509.663L71.1497 514.839V463.634H25.987Z" stroke="#DDA1FF" stroke-opacity="0.41" stroke-miterlimit="10"/>
<path fill-rule="evenodd" clip-rule="evenodd" d="M125.859 463.634L103.182 489.361H148.317V540.534L161.913 509.663L171.022 514.839V463.634H125.859Z" stroke="#DDA1FF" stroke-opacity="0.41" stroke-miterlimit="10"/>
<path fill-rule="evenodd" clip-rule="evenodd" d="M225.731 463.634L203.054 489.361H248.217V540.534L261.785 509.663L270.922 514.839V463.634H225.731Z" stroke="#DDA1FF" stroke-opacity="0.41" stroke-miterlimit="10"/>
<path fill-rule="evenodd" clip-rule="evenodd" d="M325.631 463.634L302.927 489.361H348.089V540.534L361.685 509.663L370.794 514.839V463.634H325.631Z" stroke="#DDA1FF" stroke-opacity="0.41" stroke-miterlimit="10"/>
<path fill-rule="evenodd" clip-rule="evenodd" d="M425.503 463.634L402.799 489.361H447.962V540.534L461.557 509.663L470.666 514.839V463.634H425.503Z" stroke="#DDA1FF" stroke-opacity="0.41" stroke-miterlimit="10"/>
<path fill-rule="evenodd" clip-rule="evenodd" d="M525.375 463.634L502.698 489.361H547.834V540.534L561.429 509.663L570.538 514.839V463.634H525.375Z" stroke="#DDA1FF" stroke-opacity="0.41" stroke-miterlimit="10"/>
<path fill-rule="evenodd" clip-rule="evenodd" d="M625.248 463.634L602.571 489.361H647.706V540.534L661.301 509.663L670.41 514.839V463.634H625.248Z" stroke="#DDA1FF" stroke-opacity="0.41" stroke-miterlimit="10"/>
<path fill-rule="evenodd" clip-rule="evenodd" d="M725.12 463.634L702.443 489.361H747.605V540.534L761.173 509.663L770.31 514.839V463.634H725.12Z" stroke="#DDA1FF" stroke-opacity="0.41" stroke-miterlimit="10"/>
<path fill-rule="evenodd" clip-rule="evenodd" d="M825.02 463.634L802.315 489.361H847.478V540.534L861.073 509.663L870.182 514.839V463.634H825.02Z" stroke="#DDA1FF" stroke-opacity="0.41" stroke-miterlimit="10"/>
<path fill-rule="evenodd" clip-rule="evenodd" d="M924.892 463.634L902.187 489.361H947.35V540.534L960.945 509.663L970.054 514.839V463.634H924.892Z" stroke="#DDA1FF" stroke-opacity="0.41" stroke-miterlimit="10"/>
<path fill-rule="evenodd" clip-rule="evenodd" d="M1024.76 463.634L1002.09 489.361H1047.22V540.534L1060.82 509.663L1069.93 514.839V463.634H1024.76Z" stroke="#DDA1FF" stroke-opacity="0.41" stroke-miterlimit="10"/>
<path fill-rule="evenodd" clip-rule="evenodd" d="M1124.64 463.634L1101.96 489.361H1147.09V540.534L1160.69 509.663L1169.8 514.839V463.634H1124.64Z" stroke="#DDA1FF" stroke-opacity="0.41" stroke-miterlimit="10"/>
<path fill-rule="evenodd" clip-rule="evenodd" d="M1224.51 463.634L1201.83 489.361H1246.99V540.534L1260.59 509.663L1269.7 514.839V463.634H1224.51Z" stroke="#DDA1FF" stroke-opacity="0.41" stroke-miterlimit="10"/>
<path fill-rule="evenodd" clip-rule="evenodd" d="M1324.41 463.634L1301.7 489.361H1346.87V540.534L1360.46 509.663L1369.57 514.839V463.634H1324.41Z" stroke="#DDA1FF" stroke-opacity="0.41" stroke-miterlimit="10"/>
<path fill-rule="evenodd" clip-rule="evenodd" d="M1424.28 463.634L1401.58 489.361H1446.74V540.534L1460.33 509.663L1469.44 514.839V463.634H1424.28Z" stroke="#DDA1FF" stroke-opacity="0.41" stroke-miterlimit="10"/>
<path fill-rule="evenodd" clip-rule="evenodd" d="M1524.15 463.634L1501.48 489.361H1546.61V540.534L1560.21 509.663L1569.32 514.839V463.634H1524.15Z" stroke="#DDA1FF" stroke-opacity="0.41" stroke-miterlimit="10"/>
<path fill-rule="evenodd" clip-rule="evenodd" d="M1624.02 463.634L1601.35 489.361H1646.51V540.534L1660.08 509.663L1669.19 514.839V463.634H1624.02Z" stroke="#DDA1FF" stroke-opacity="0.41" stroke-miterlimit="10"/>
<path fill-rule="evenodd" clip-rule="evenodd" d="M1723.9 463.634L1701.22 489.361H1746.38V540.534L1759.98 509.663L1769.09 514.839V463.634H1723.9Z" stroke="#DDA1FF" stroke-opacity="0.41" stroke-miterlimit="10"/>
<path fill-rule="evenodd" clip-rule="evenodd" d="M1823.8 463.634L1801.09 489.361H1846.25V540.534L1859.85 509.663L1868.96 514.839V463.634H1823.8Z" stroke="#DDA1FF" stroke-opacity="0.41" stroke-miterlimit="10"/>
<path fill-rule="evenodd" clip-rule="evenodd" d="M1923.67 463.634L1900.96 489.361H1946.13V540.534L1959.72 509.663L1968.83 514.839V463.634H1923.67Z" stroke="#DDA1FF" stroke-opacity="0.41" stroke-miterlimit="10"/>
<path fill-rule="evenodd" clip-rule="evenodd" d="M25.987 579.65L3.30992 605.377H48.4453V656.55L62.0406 625.648L71.1497 630.855V579.65H25.987Z" stroke="#DDA1FF" stroke-opacity="0.41" stroke-miterlimit="10"/>
<path fill-rule="evenodd" clip-rule="evenodd" d="M125.859 579.65L103.182 605.377H148.317V656.55L161.913 625.648L171.022 630.855V579.65H125.859Z" stroke="#DDA1FF" stroke-opacity="0.41" stroke-miterlimit="10"/>
<path fill-rule="evenodd" clip-rule="evenodd" d="M225.731 579.65L203.054 605.377H248.217V656.55L261.785 625.648L270.922 630.855V579.65H225.731Z" stroke="#DDA1FF" stroke-opacity="0.41" stroke-miterlimit="10"/>
<path fill-rule="evenodd" clip-rule="evenodd" d="M325.631 579.65L302.927 605.377H348.089V656.55L361.685 625.648L370.794 630.855V579.65H325.631Z" stroke="#DDA1FF" stroke-opacity="0.41" stroke-miterlimit="10"/>
<path fill-rule="evenodd" clip-rule="evenodd" d="M425.503 579.65L402.799 605.377H447.962V656.55L461.557 625.648L470.666 630.855V579.65H425.503Z" stroke="#DDA1FF" stroke-opacity="0.41" stroke-miterlimit="10"/>
<path fill-rule="evenodd" clip-rule="evenodd" d="M525.375 579.65L502.698 605.377H547.834V656.55L561.429 625.648L570.538 630.855V579.65H525.375Z" stroke="#DDA1FF" stroke-opacity="0.41" stroke-miterlimit="10"/>
<path fill-rule="evenodd" clip-rule="evenodd" d="M625.248 579.65L602.571 605.377H647.706V656.55L661.301 625.648L670.41 630.855V579.65H625.248Z" stroke="#DDA1FF" stroke-opacity="0.41" stroke-miterlimit="10"/>
<path fill-rule="evenodd" clip-rule="evenodd" d="M725.12 579.65L702.443 605.377H747.605V656.55L761.173 625.648L770.31 630.855V579.65H725.12Z" stroke="#DDA1FF" stroke-opacity="0.41" stroke-miterlimit="10"/>
<path fill-rule="evenodd" clip-rule="evenodd" d="M825.02 579.65L802.315 605.377H847.478V656.55L861.073 625.648L870.182 630.855V579.65H825.02Z" stroke="#DDA1FF" stroke-opacity="0.41" stroke-miterlimit="10"/>
<path fill-rule="evenodd" clip-rule="evenodd" d="M924.892 579.65L902.187 605.377H947.35V656.55L960.945 625.648L970.054 630.855V579.65H924.892Z" stroke="#DDA1FF" stroke-opacity="0.41" stroke-miterlimit="10"/>
<path fill-rule="evenodd" clip-rule="evenodd" d="M1024.76 579.65L1002.09 605.377H1047.22V656.55L1060.82 625.648L1069.93 630.855V579.65H1024.76Z" stroke="#DDA1FF" stroke-opacity="0.41" stroke-miterlimit="10"/>
<path fill-rule="evenodd" clip-rule="evenodd" d="M1124.64 579.65L1101.96 605.377H1147.09V656.55L1160.69 625.648L1169.8 630.855V579.65H1124.64Z" stroke="#DDA1FF" stroke-opacity="0.41" stroke-miterlimit="10"/>
<path fill-rule="evenodd" clip-rule="evenodd" d="M1224.51 579.65L1201.83 605.377H1246.99V656.55L1260.59 625.648L1269.7 630.855V579.65H1224.51Z" stroke="#DDA1FF" stroke-opacity="0.41" stroke-miterlimit="10"/>
<path fill-rule="evenodd" clip-rule="evenodd" d="M1324.41 579.65L1301.7 605.377H1346.87V656.55L1360.46 625.648L1369.57 630.855V579.65H1324.41Z" stroke="#DDA1FF" stroke-opacity="0.41" stroke-miterlimit="10"/>
<path fill-rule="evenodd" clip-rule="evenodd" d="M1424.28 579.65L1401.58 605.377H1446.74V656.55L1460.33 625.648L1469.44 630.855V579.65H1424.28Z" stroke="#DDA1FF" stroke-opacity="0.41" stroke-miterlimit="10"/>
<path fill-rule="evenodd" clip-rule="evenodd" d="M1524.15 579.65L1501.48 605.377H1546.61V656.55L1560.21 625.648L1569.32 630.855V579.65H1524.15Z" stroke="#DDA1FF" stroke-opacity="0.41" stroke-miterlimit="10"/>
<path fill-rule="evenodd" clip-rule="evenodd" d="M1624.02 579.65L1601.35 605.377H1646.51V656.55L1660.08 625.648L1669.19 630.855V579.65H1624.02Z" stroke="#DDA1FF" stroke-opacity="0.41" stroke-miterlimit="10"/>
<path fill-rule="evenodd" clip-rule="evenodd" d="M1723.9 579.65L1701.22 605.377H1746.38V656.55L1759.98 625.648L1769.09 630.855V579.65H1723.9Z" stroke="#DDA1FF" stroke-opacity="0.41" stroke-miterlimit="10"/>
<path fill-rule="evenodd" clip-rule="evenodd" d="M1823.8 579.65L1801.09 605.377H1846.25V656.55L1859.85 625.648L1868.96 630.855V579.65H1823.8Z" stroke="#DDA1FF" stroke-opacity="0.41" stroke-miterlimit="10"/>
<path fill-rule="evenodd" clip-rule="evenodd" d="M1923.67 579.65L1900.96 605.377H1946.13V656.55L1959.72 625.648L1968.83 630.855V579.65H1923.67Z" stroke="#DDA1FF" stroke-opacity="0.41" stroke-miterlimit="10"/>
</g>
</g>
<defs>
<linearGradient id="paint0_linear_748_391" x1="-6.606e-07" y1="366.752" x2="1896.59" y2="69.2428" gradientUnits="userSpaceOnUse">
<stop/>
<stop offset="0.99" stop-color="#38003C"/>
</linearGradient>
<clipPath id="clip0_748_391">
<rect width="1922" height="598" fill="white"/>
</clipPath>
</defs>
</svg>
