<svg width="668" height="1293" viewBox="0 0 668 1293" fill="none" xmlns="http://www.w3.org/2000/svg">
<g clip-path="url(#clip0_900_100)">
<rect width="668" height="1293" fill="url(#paint0_linear_900_100)"/>
<mask id="mask0_900_100" style="mask-type:luminance" maskUnits="userSpaceOnUse" x="0" y="0" width="668" height="1293">
<path d="M668 0H0V1293H668V0Z" fill="white"/>
</mask>
<g mask="url(#mask0_900_100)">
<path fill-rule="evenodd" clip-rule="evenodd" d="M19.4573 1.02393L2.47824 18.0177H36.2725V51.8209L46.4518 31.408L53.272 34.8272V1.02393H19.4573Z" stroke="#511970" stroke-miterlimit="10"/>
<path fill-rule="evenodd" clip-rule="evenodd" d="M94.2348 1.02393L77.2557 18.0177H111.05V51.8209L121.229 31.408L128.05 34.8272V1.02393H94.2348Z" stroke="#511970" stroke-miterlimit="10"/>
<path fill-rule="evenodd" clip-rule="evenodd" d="M169.012 1.02393L152.033 18.0177H185.848V51.8209L196.007 31.408L202.848 34.8272V1.02393H169.012Z" stroke="#511970" stroke-miterlimit="10"/>
<path fill-rule="evenodd" clip-rule="evenodd" d="M243.81 1.02393L226.811 18.0177H260.625V51.8209L270.805 31.408L277.625 34.8272V1.02393H243.81Z" stroke="#511970" stroke-miterlimit="10"/>
<path fill-rule="evenodd" clip-rule="evenodd" d="M318.588 1.02393L301.588 18.0177H335.403V51.8209L345.582 31.408L352.403 34.8272V1.02393H318.588Z" stroke="#511970" stroke-miterlimit="10"/>
<path fill-rule="evenodd" clip-rule="evenodd" d="M393.365 1.02393L376.386 18.0177H410.18V51.8209L420.36 31.408L427.18 34.8272V1.02393H393.365Z" stroke="#511970" stroke-miterlimit="10"/>
<path fill-rule="evenodd" clip-rule="evenodd" d="M468.143 1.02393L451.164 18.0177H484.958V51.8209L495.137 31.408L501.958 34.8272V1.02393H468.143Z" stroke="#511970" stroke-miterlimit="10"/>
<path fill-rule="evenodd" clip-rule="evenodd" d="M542.92 1.02393L525.941 18.0177H559.756V51.8209L569.915 31.408L576.755 34.8272V1.02393H542.92Z" stroke="#511970" stroke-miterlimit="10"/>
<path fill-rule="evenodd" clip-rule="evenodd" d="M617.718 1.02393L600.719 18.0177H634.533V51.8209L644.713 31.408L651.533 34.8272V1.02393H617.718Z" stroke="#511970" stroke-miterlimit="10"/>
<path fill-rule="evenodd" clip-rule="evenodd" d="M19.4573 77.6597L2.47824 94.6534H36.2725V128.436L46.4518 108.044L53.272 111.463V77.6597H19.4573Z" stroke="#511970" stroke-miterlimit="10"/>
<path fill-rule="evenodd" clip-rule="evenodd" d="M94.2348 77.6597L77.2557 94.6534H111.05V128.436L121.229 108.044L128.05 111.463V77.6597H94.2348Z" stroke="#511970" stroke-miterlimit="10"/>
<path fill-rule="evenodd" clip-rule="evenodd" d="M169.012 77.6597L152.033 94.6534H185.848V128.436L196.007 108.044L202.848 111.463V77.6597H169.012Z" stroke="#511970" stroke-miterlimit="10"/>
<path fill-rule="evenodd" clip-rule="evenodd" d="M243.81 77.6597L226.811 94.6534H260.625V128.436L270.805 108.044L277.625 111.463V77.6597H243.81Z" stroke="#511970" stroke-miterlimit="10"/>
<path fill-rule="evenodd" clip-rule="evenodd" d="M318.588 77.6597L301.588 94.6534H335.403V128.436L345.582 108.044L352.403 111.463V77.6597H318.588Z" stroke="#511970" stroke-miterlimit="10"/>
<path fill-rule="evenodd" clip-rule="evenodd" d="M393.365 77.6597L376.386 94.6534H410.18V128.436L420.36 108.044L427.18 111.463V77.6597H393.365Z" stroke="#511970" stroke-miterlimit="10"/>
<path fill-rule="evenodd" clip-rule="evenodd" d="M468.143 77.6597L451.164 94.6534H484.958V128.436L495.137 108.044L501.958 111.463V77.6597H468.143Z" stroke="#511970" stroke-miterlimit="10"/>
<path fill-rule="evenodd" clip-rule="evenodd" d="M542.92 77.6597L525.941 94.6534H559.756V128.436L569.915 108.044L576.755 111.463V77.6597H542.92Z" stroke="#511970" stroke-miterlimit="10"/>
<path fill-rule="evenodd" clip-rule="evenodd" d="M617.718 77.6597L600.719 94.6534H634.533V128.436L644.713 108.044L651.533 111.463V77.6597H617.718Z" stroke="#511970" stroke-miterlimit="10"/>
<path fill-rule="evenodd" clip-rule="evenodd" d="M19.4573 154.295L2.47824 171.289H36.2725V205.072L46.4518 184.679L53.272 188.099V154.295H19.4573Z" stroke="#511970" stroke-miterlimit="10"/>
<path fill-rule="evenodd" clip-rule="evenodd" d="M94.2348 154.295L77.2557 171.289H111.05V205.072L121.229 184.679L128.05 188.099V154.295H94.2348Z" stroke="#511970" stroke-miterlimit="10"/>
<path fill-rule="evenodd" clip-rule="evenodd" d="M169.012 154.295L152.033 171.289H185.848V205.072L196.007 184.679L202.848 188.099V154.295H169.012Z" stroke="#511970" stroke-miterlimit="10"/>
<path fill-rule="evenodd" clip-rule="evenodd" d="M243.81 154.295L226.811 171.289H260.625V205.072L270.805 184.679L277.625 188.099V154.295H243.81Z" stroke="#511970" stroke-miterlimit="10"/>
<path fill-rule="evenodd" clip-rule="evenodd" d="M318.588 154.295L301.588 171.289H335.403V205.072L345.582 184.679L352.403 188.099V154.295H318.588Z" stroke="#511970" stroke-miterlimit="10"/>
<path fill-rule="evenodd" clip-rule="evenodd" d="M393.365 154.295L376.386 171.289H410.18V205.072L420.36 184.679L427.18 188.099V154.295H393.365Z" stroke="#511970" stroke-miterlimit="10"/>
<path fill-rule="evenodd" clip-rule="evenodd" d="M468.143 154.295L451.164 171.289H484.958V205.072L495.137 184.679L501.958 188.099V154.295H468.143Z" stroke="#511970" stroke-miterlimit="10"/>
<path fill-rule="evenodd" clip-rule="evenodd" d="M542.92 154.295L525.941 171.289H559.756V205.072L569.915 184.679L576.755 188.099V154.295H542.92Z" stroke="#511970" stroke-miterlimit="10"/>
<path fill-rule="evenodd" clip-rule="evenodd" d="M617.718 154.295L600.719 171.289H634.533V205.072L644.713 184.679L651.533 188.099V154.295H617.718Z" stroke="#511970" stroke-miterlimit="10"/>
<path fill-rule="evenodd" clip-rule="evenodd" d="M19.4573 230.931L2.47824 247.925H36.2725V281.708L46.4518 261.315L53.272 264.734V230.931H19.4573Z" stroke="#511970" stroke-miterlimit="10"/>
<path fill-rule="evenodd" clip-rule="evenodd" d="M94.2348 230.931L77.2557 247.925H111.05V281.708L121.229 261.315L128.05 264.734V230.931H94.2348Z" stroke="#511970" stroke-miterlimit="10"/>
<path fill-rule="evenodd" clip-rule="evenodd" d="M169.012 230.931L152.033 247.925H185.848V281.708L196.007 261.315L202.848 264.734V230.931H169.012Z" stroke="#511970" stroke-miterlimit="10"/>
<path fill-rule="evenodd" clip-rule="evenodd" d="M243.81 230.931L226.811 247.925H260.625V281.708L270.805 261.315L277.625 264.734V230.931H243.81Z" stroke="#511970" stroke-miterlimit="10"/>
<path fill-rule="evenodd" clip-rule="evenodd" d="M318.588 230.931L301.588 247.925H335.403V281.708L345.582 261.315L352.403 264.734V230.931H318.588Z" stroke="#511970" stroke-miterlimit="10"/>
<path fill-rule="evenodd" clip-rule="evenodd" d="M393.365 230.931L376.386 247.925H410.18V281.708L420.36 261.315L427.18 264.734V230.931H393.365Z" stroke="#511970" stroke-miterlimit="10"/>
<path fill-rule="evenodd" clip-rule="evenodd" d="M468.143 230.931L451.164 247.925H484.958V281.708L495.137 261.315L501.958 264.734V230.931H468.143Z" stroke="#511970" stroke-miterlimit="10"/>
<path fill-rule="evenodd" clip-rule="evenodd" d="M542.92 230.931L525.941 247.925H559.756V281.708L569.915 261.315L576.755 264.734V230.931H542.92Z" stroke="#511970" stroke-miterlimit="10"/>
<path fill-rule="evenodd" clip-rule="evenodd" d="M617.718 230.931L600.719 247.925H634.533V281.708L644.713 261.315L651.533 264.734V230.931H617.718Z" stroke="#511970" stroke-miterlimit="10"/>
<path fill-rule="evenodd" clip-rule="evenodd" d="M19.4573 307.567L2.47824 324.561H36.2725V358.343L46.4518 337.951L53.272 341.37V307.567H19.4573Z" stroke="#511970" stroke-miterlimit="10"/>
<path fill-rule="evenodd" clip-rule="evenodd" d="M94.2348 307.567L77.2557 324.561H111.05V358.343L121.229 337.951L128.05 341.37V307.567H94.2348Z" stroke="#511970" stroke-miterlimit="10"/>
<path fill-rule="evenodd" clip-rule="evenodd" d="M169.012 307.567L152.033 324.561H185.848V358.343L196.007 337.951L202.848 341.37V307.567H169.012Z" stroke="#511970" stroke-miterlimit="10"/>
<path fill-rule="evenodd" clip-rule="evenodd" d="M243.81 307.567L226.811 324.561H260.625V358.343L270.805 337.951L277.625 341.37V307.567H243.81Z" stroke="#511970" stroke-miterlimit="10"/>
<path fill-rule="evenodd" clip-rule="evenodd" d="M318.588 307.567L301.588 324.561H335.403V358.343L345.582 337.951L352.403 341.37V307.567H318.588Z" stroke="#511970" stroke-miterlimit="10"/>
<path fill-rule="evenodd" clip-rule="evenodd" d="M393.365 307.567L376.386 324.561H410.18V358.343L420.36 337.951L427.18 341.37V307.567H393.365Z" stroke="#511970" stroke-miterlimit="10"/>
<path fill-rule="evenodd" clip-rule="evenodd" d="M468.143 307.567L451.164 324.561H484.958V358.343L495.137 337.951L501.958 341.37V307.567H468.143Z" stroke="#511970" stroke-miterlimit="10"/>
<path fill-rule="evenodd" clip-rule="evenodd" d="M542.92 307.567L525.941 324.561H559.756V358.343L569.915 337.951L576.755 341.37V307.567H542.92Z" stroke="#511970" stroke-miterlimit="10"/>
<path fill-rule="evenodd" clip-rule="evenodd" d="M617.718 307.567L600.719 324.561H634.533V358.343L644.713 337.951L651.533 341.37V307.567H617.718Z" stroke="#511970" stroke-miterlimit="10"/>
<path fill-rule="evenodd" clip-rule="evenodd" d="M19.4573 384.182L2.47824 401.196H36.2725V434.979L46.4518 414.587L53.272 418.006V384.182H19.4573Z" stroke="#511970" stroke-miterlimit="10"/>
<path fill-rule="evenodd" clip-rule="evenodd" d="M94.2348 384.182L77.2557 401.196H111.05V434.979L121.229 414.587L128.05 418.006V384.182H94.2348Z" stroke="#511970" stroke-miterlimit="10"/>
<path fill-rule="evenodd" clip-rule="evenodd" d="M169.012 384.182L152.033 401.196H185.848V434.979L196.007 414.587L202.848 418.006V384.182H169.012Z" stroke="#511970" stroke-miterlimit="10"/>
<path fill-rule="evenodd" clip-rule="evenodd" d="M243.81 384.182L226.811 401.196H260.625V434.979L270.805 414.587L277.625 418.006V384.182H243.81Z" stroke="#511970" stroke-miterlimit="10"/>
<path fill-rule="evenodd" clip-rule="evenodd" d="M318.588 384.182L301.588 401.196H335.403V434.979L345.582 414.587L352.403 418.006V384.182H318.588Z" stroke="#511970" stroke-miterlimit="10"/>
<path fill-rule="evenodd" clip-rule="evenodd" d="M393.365 384.182L376.386 401.196H410.18V434.979L420.36 414.587L427.18 418.006V384.182H393.365Z" stroke="#511970" stroke-miterlimit="10"/>
<path fill-rule="evenodd" clip-rule="evenodd" d="M468.143 384.182L451.164 401.196H484.958V434.979L495.137 414.587L501.958 418.006V384.182H468.143Z" stroke="#511970" stroke-miterlimit="10"/>
<path fill-rule="evenodd" clip-rule="evenodd" d="M542.92 384.182L525.941 401.196H559.756V434.979L569.915 414.587L576.755 418.006V384.182H542.92Z" stroke="#511970" stroke-miterlimit="10"/>
<path fill-rule="evenodd" clip-rule="evenodd" d="M617.718 384.182L600.719 401.196H634.533V434.979L644.713 414.587L651.533 418.006V384.182H617.718Z" stroke="#511970" stroke-miterlimit="10"/>
<path fill-rule="evenodd" clip-rule="evenodd" d="M19.4573 460.818L2.47824 477.832H36.2725V511.615L46.4518 491.222L53.272 494.642V460.818H19.4573Z" stroke="#511970" stroke-miterlimit="10"/>
<path fill-rule="evenodd" clip-rule="evenodd" d="M94.2348 460.818L77.2557 477.832H111.05V511.615L121.229 491.222L128.05 494.642V460.818H94.2348Z" stroke="#511970" stroke-miterlimit="10"/>
<path fill-rule="evenodd" clip-rule="evenodd" d="M169.012 460.818L152.033 477.832H185.848V511.615L196.007 491.222L202.848 494.642V460.818H169.012Z" stroke="#511970" stroke-miterlimit="10"/>
<path fill-rule="evenodd" clip-rule="evenodd" d="M243.81 460.818L226.811 477.832H260.625V511.615L270.805 491.222L277.625 494.642V460.818H243.81Z" stroke="#511970" stroke-miterlimit="10"/>
<path fill-rule="evenodd" clip-rule="evenodd" d="M318.588 460.818L301.588 477.832H335.403V511.615L345.582 491.222L352.403 494.642V460.818H318.588Z" stroke="#511970" stroke-miterlimit="10"/>
<path fill-rule="evenodd" clip-rule="evenodd" d="M393.365 460.818L376.386 477.832H410.18V511.615L420.36 491.222L427.18 494.642V460.818H393.365Z" stroke="#511970" stroke-miterlimit="10"/>
<path fill-rule="evenodd" clip-rule="evenodd" d="M468.143 460.818L451.164 477.832H484.958V511.615L495.137 491.222L501.958 494.642V460.818H468.143Z" stroke="#511970" stroke-miterlimit="10"/>
<path fill-rule="evenodd" clip-rule="evenodd" d="M542.92 460.818L525.941 477.832H559.756V511.615L569.915 491.222L576.755 494.642V460.818H542.92Z" stroke="#511970" stroke-miterlimit="10"/>
<path fill-rule="evenodd" clip-rule="evenodd" d="M617.718 460.818L600.719 477.832H634.533V511.615L644.713 491.222L651.533 494.642V460.818H617.718Z" stroke="#511970" stroke-miterlimit="10"/>
<path fill-rule="evenodd" clip-rule="evenodd" d="M19.4573 537.454L2.47824 554.447H36.2725V588.251L46.4518 567.858L53.272 571.277V537.454H19.4573Z" stroke="#511970" stroke-miterlimit="10"/>
<path fill-rule="evenodd" clip-rule="evenodd" d="M94.2348 537.454L77.2557 554.447H111.05V588.251L121.229 567.858L128.05 571.277V537.454H94.2348Z" stroke="#511970" stroke-miterlimit="10"/>
<path fill-rule="evenodd" clip-rule="evenodd" d="M169.012 537.454L152.033 554.447H185.848V588.251L196.007 567.858L202.848 571.277V537.454H169.012Z" stroke="#511970" stroke-miterlimit="10"/>
<path fill-rule="evenodd" clip-rule="evenodd" d="M243.81 537.454L226.811 554.447H260.625V588.251L270.805 567.858L277.625 571.277V537.454H243.81Z" stroke="#511970" stroke-miterlimit="10"/>
<path fill-rule="evenodd" clip-rule="evenodd" d="M318.588 537.454L301.588 554.447H335.403V588.251L345.582 567.858L352.403 571.277V537.454H318.588Z" stroke="#511970" stroke-miterlimit="10"/>
<path fill-rule="evenodd" clip-rule="evenodd" d="M393.365 537.454L376.386 554.447H410.18V588.251L420.36 567.858L427.18 571.277V537.454H393.365Z" stroke="#511970" stroke-miterlimit="10"/>
<path fill-rule="evenodd" clip-rule="evenodd" d="M468.143 537.454L451.164 554.447H484.958V588.251L495.137 567.858L501.958 571.277V537.454H468.143Z" stroke="#511970" stroke-miterlimit="10"/>
<path fill-rule="evenodd" clip-rule="evenodd" d="M542.92 537.454L525.941 554.447H559.756V588.251L569.915 567.858L576.755 571.277V537.454H542.92Z" stroke="#511970" stroke-miterlimit="10"/>
<path fill-rule="evenodd" clip-rule="evenodd" d="M617.718 537.454L600.719 554.447H634.533V588.251L644.713 567.858L651.533 571.277V537.454H617.718Z" stroke="#511970" stroke-miterlimit="10"/>
<path fill-rule="evenodd" clip-rule="evenodd" d="M19.4573 614.089L2.47824 631.083H36.2725V664.886L46.4518 644.473L53.272 647.913V614.089H19.4573Z" stroke="#511970" stroke-miterlimit="10"/>
<path fill-rule="evenodd" clip-rule="evenodd" d="M94.2348 614.089L77.2557 631.083H111.05V664.886L121.229 644.473L128.05 647.913V614.089H94.2348Z" stroke="#511970" stroke-miterlimit="10"/>
<path fill-rule="evenodd" clip-rule="evenodd" d="M169.012 614.089L152.033 631.083H185.848V664.886L196.007 644.473L202.848 647.913V614.089H169.012Z" stroke="#511970" stroke-miterlimit="10"/>
<path fill-rule="evenodd" clip-rule="evenodd" d="M243.81 614.089L226.811 631.083H260.625V664.886L270.805 644.473L277.625 647.913V614.089H243.81Z" stroke="#511970" stroke-miterlimit="10"/>
<path fill-rule="evenodd" clip-rule="evenodd" d="M318.588 614.089L301.588 631.083H335.403V664.886L345.582 644.473L352.403 647.913V614.089H318.588Z" stroke="#511970" stroke-miterlimit="10"/>
<path fill-rule="evenodd" clip-rule="evenodd" d="M393.365 614.089L376.386 631.083H410.18V664.886L420.36 644.473L427.18 647.913V614.089H393.365Z" stroke="#511970" stroke-miterlimit="10"/>
<path fill-rule="evenodd" clip-rule="evenodd" d="M468.143 614.089L451.164 631.083H484.958V664.886L495.137 644.473L501.958 647.913V614.089H468.143Z" stroke="#511970" stroke-miterlimit="10"/>
<path fill-rule="evenodd" clip-rule="evenodd" d="M542.92 614.089L525.941 631.083H559.756V664.886L569.915 644.473L576.755 647.913V614.089H542.92Z" stroke="#511970" stroke-miterlimit="10"/>
<path fill-rule="evenodd" clip-rule="evenodd" d="M617.718 614.089L600.719 631.083H634.533V664.886L644.713 644.473L651.533 647.913V614.089H617.718Z" stroke="#511970" stroke-miterlimit="10"/>
<path fill-rule="evenodd" clip-rule="evenodd" d="M19.4573 690.725L2.47824 707.718H36.2725V741.522L46.4518 721.109L53.272 724.528V690.725H19.4573Z" stroke="#511970" stroke-miterlimit="10"/>
<path fill-rule="evenodd" clip-rule="evenodd" d="M94.2348 690.725L77.2557 707.718H111.05V741.522L121.229 721.109L128.05 724.528V690.725H94.2348Z" stroke="#511970" stroke-miterlimit="10"/>
<path fill-rule="evenodd" clip-rule="evenodd" d="M169.012 690.725L152.033 707.718H185.848V741.522L196.007 721.109L202.848 724.528V690.725H169.012Z" stroke="#511970" stroke-miterlimit="10"/>
<path fill-rule="evenodd" clip-rule="evenodd" d="M243.81 690.725L226.811 707.718H260.625V741.522L270.805 721.109L277.625 724.528V690.725H243.81Z" stroke="#511970" stroke-miterlimit="10"/>
<path fill-rule="evenodd" clip-rule="evenodd" d="M318.588 690.725L301.588 707.718H335.403V741.522L345.582 721.109L352.403 724.528V690.725H318.588Z" stroke="#511970" stroke-miterlimit="10"/>
<path fill-rule="evenodd" clip-rule="evenodd" d="M393.365 690.725L376.386 707.718H410.18V741.522L420.36 721.109L427.18 724.528V690.725H393.365Z" stroke="#511970" stroke-miterlimit="10"/>
<path fill-rule="evenodd" clip-rule="evenodd" d="M468.143 690.725L451.164 707.718H484.958V741.522L495.137 721.109L501.958 724.528V690.725H468.143Z" stroke="#511970" stroke-miterlimit="10"/>
<path fill-rule="evenodd" clip-rule="evenodd" d="M542.92 690.725L525.941 707.718H559.756V741.522L569.915 721.109L576.755 724.528V690.725H542.92Z" stroke="#511970" stroke-miterlimit="10"/>
<path fill-rule="evenodd" clip-rule="evenodd" d="M617.718 690.725L600.719 707.718H634.533V741.522L644.713 721.109L651.533 724.528V690.725H617.718Z" stroke="#511970" stroke-miterlimit="10"/>
<path fill-rule="evenodd" clip-rule="evenodd" d="M19.4573 767.361L2.47824 784.355H36.2725V818.137L46.4518 797.745L53.272 801.164V767.361H19.4573Z" stroke="#511970" stroke-miterlimit="10"/>
<path fill-rule="evenodd" clip-rule="evenodd" d="M94.2348 767.361L77.2557 784.355H111.05V818.137L121.229 797.745L128.05 801.164V767.361H94.2348Z" stroke="#511970" stroke-miterlimit="10"/>
<path fill-rule="evenodd" clip-rule="evenodd" d="M169.012 767.361L152.033 784.355H185.848V818.137L196.007 797.745L202.848 801.164V767.361H169.012Z" stroke="#511970" stroke-miterlimit="10"/>
<path fill-rule="evenodd" clip-rule="evenodd" d="M243.81 767.361L226.811 784.355H260.625V818.137L270.805 797.745L277.625 801.164V767.361H243.81Z" stroke="#511970" stroke-miterlimit="10"/>
<path fill-rule="evenodd" clip-rule="evenodd" d="M318.588 767.361L301.588 784.355H335.403V818.137L345.582 797.745L352.403 801.164V767.361H318.588Z" stroke="#511970" stroke-miterlimit="10"/>
<path fill-rule="evenodd" clip-rule="evenodd" d="M393.365 767.361L376.386 784.355H410.18V818.137L420.36 797.745L427.18 801.164V767.361H393.365Z" stroke="#511970" stroke-miterlimit="10"/>
<path fill-rule="evenodd" clip-rule="evenodd" d="M468.143 767.361L451.164 784.355H484.958V818.137L495.137 797.745L501.958 801.164V767.361H468.143Z" stroke="#511970" stroke-miterlimit="10"/>
<path fill-rule="evenodd" clip-rule="evenodd" d="M542.92 767.361L525.941 784.355H559.756V818.137L569.915 797.745L576.755 801.164V767.361H542.92Z" stroke="#511970" stroke-miterlimit="10"/>
<path fill-rule="evenodd" clip-rule="evenodd" d="M617.718 767.361L600.719 784.355H634.533V818.137L644.713 797.745L651.533 801.164V767.361H617.718Z" stroke="#511970" stroke-miterlimit="10"/>
<path fill-rule="evenodd" clip-rule="evenodd" d="M19.4573 843.996L2.47824 860.99H36.2725V894.773L46.4518 874.38L53.272 877.799V843.996H19.4573Z" stroke="#511970" stroke-miterlimit="10"/>
<path fill-rule="evenodd" clip-rule="evenodd" d="M94.2348 843.996L77.2557 860.99H111.05V894.773L121.229 874.38L128.05 877.799V843.996H94.2348Z" stroke="#511970" stroke-miterlimit="10"/>
<path fill-rule="evenodd" clip-rule="evenodd" d="M169.012 843.996L152.033 860.99H185.848V894.773L196.007 874.38L202.848 877.799V843.996H169.012Z" stroke="#511970" stroke-miterlimit="10"/>
<path fill-rule="evenodd" clip-rule="evenodd" d="M243.81 843.996L226.811 860.99H260.625V894.773L270.805 874.38L277.625 877.799V843.996H243.81Z" stroke="#511970" stroke-miterlimit="10"/>
<path fill-rule="evenodd" clip-rule="evenodd" d="M318.588 843.996L301.588 860.99H335.403V894.773L345.582 874.38L352.403 877.799V843.996H318.588Z" stroke="#511970" stroke-miterlimit="10"/>
<path fill-rule="evenodd" clip-rule="evenodd" d="M393.365 843.996L376.386 860.99H410.18V894.773L420.36 874.38L427.18 877.799V843.996H393.365Z" stroke="#511970" stroke-miterlimit="10"/>
<path fill-rule="evenodd" clip-rule="evenodd" d="M468.143 843.996L451.164 860.99H484.958V894.773L495.137 874.38L501.958 877.799V843.996H468.143Z" stroke="#511970" stroke-miterlimit="10"/>
<path fill-rule="evenodd" clip-rule="evenodd" d="M542.92 843.996L525.941 860.99H559.756V894.773L569.915 874.38L576.755 877.799V843.996H542.92Z" stroke="#511970" stroke-miterlimit="10"/>
<path fill-rule="evenodd" clip-rule="evenodd" d="M617.718 843.996L600.719 860.99H634.533V894.773L644.713 874.38L651.533 877.799V843.996H617.718Z" stroke="#511970" stroke-miterlimit="10"/>
<path fill-rule="evenodd" clip-rule="evenodd" d="M19.4573 920.632L2.47824 937.626H36.2725V971.408L46.4518 951.016L53.272 954.435V920.632H19.4573Z" stroke="#511970" stroke-miterlimit="10"/>
<path fill-rule="evenodd" clip-rule="evenodd" d="M94.2348 920.632L77.2557 937.626H111.05V971.408L121.229 951.016L128.05 954.435V920.632H94.2348Z" stroke="#511970" stroke-miterlimit="10"/>
<path fill-rule="evenodd" clip-rule="evenodd" d="M169.012 920.632L152.033 937.626H185.848V971.408L196.007 951.016L202.848 954.435V920.632H169.012Z" stroke="#511970" stroke-miterlimit="10"/>
<path fill-rule="evenodd" clip-rule="evenodd" d="M243.81 920.632L226.811 937.626H260.625V971.408L270.805 951.016L277.625 954.435V920.632H243.81Z" stroke="#511970" stroke-miterlimit="10"/>
<path fill-rule="evenodd" clip-rule="evenodd" d="M318.588 920.632L301.588 937.626H335.403V971.408L345.582 951.016L352.403 954.435V920.632H318.588Z" stroke="#511970" stroke-miterlimit="10"/>
<path fill-rule="evenodd" clip-rule="evenodd" d="M393.365 920.632L376.386 937.626H410.18V971.408L420.36 951.016L427.18 954.435V920.632H393.365Z" stroke="#511970" stroke-miterlimit="10"/>
<path fill-rule="evenodd" clip-rule="evenodd" d="M468.143 920.632L451.164 937.626H484.958V971.408L495.137 951.016L501.958 954.435V920.632H468.143Z" stroke="#511970" stroke-miterlimit="10"/>
<path fill-rule="evenodd" clip-rule="evenodd" d="M542.92 920.632L525.941 937.626H559.756V971.408L569.915 951.016L576.755 954.435V920.632H542.92Z" stroke="#511970" stroke-miterlimit="10"/>
<path fill-rule="evenodd" clip-rule="evenodd" d="M617.718 920.632L600.719 937.626H634.533V971.408L644.713 951.016L651.533 954.435V920.632H617.718Z" stroke="#511970" stroke-miterlimit="10"/>
<path fill-rule="evenodd" clip-rule="evenodd" d="M19.4573 997.268L2.47824 1014.26H36.2725V1048.04L46.4518 1027.65L53.272 1031.07V997.268H19.4573Z" stroke="#511970" stroke-miterlimit="10"/>
<path fill-rule="evenodd" clip-rule="evenodd" d="M94.2348 997.268L77.2557 1014.26H111.05V1048.04L121.229 1027.65L128.05 1031.07V997.268H94.2348Z" stroke="#511970" stroke-miterlimit="10"/>
<path fill-rule="evenodd" clip-rule="evenodd" d="M169.012 997.268L152.033 1014.26H185.848V1048.04L196.007 1027.65L202.848 1031.07V997.268H169.012Z" stroke="#511970" stroke-miterlimit="10"/>
<path fill-rule="evenodd" clip-rule="evenodd" d="M243.81 997.268L226.811 1014.26H260.625V1048.04L270.805 1027.65L277.625 1031.07V997.268H243.81Z" stroke="#511970" stroke-miterlimit="10"/>
<path fill-rule="evenodd" clip-rule="evenodd" d="M318.588 997.268L301.588 1014.26H335.403V1048.04L345.582 1027.65L352.403 1031.07V997.268H318.588Z" stroke="#511970" stroke-miterlimit="10"/>
<path fill-rule="evenodd" clip-rule="evenodd" d="M393.365 997.268L376.386 1014.26H410.18V1048.04L420.36 1027.65L427.18 1031.07V997.268H393.365Z" stroke="#511970" stroke-miterlimit="10"/>
<path fill-rule="evenodd" clip-rule="evenodd" d="M468.143 997.268L451.164 1014.26H484.958V1048.04L495.137 1027.65L501.958 1031.07V997.268H468.143Z" stroke="#511970" stroke-miterlimit="10"/>
<path fill-rule="evenodd" clip-rule="evenodd" d="M542.92 997.268L525.941 1014.26H559.756V1048.04L569.915 1027.65L576.755 1031.07V997.268H542.92Z" stroke="#511970" stroke-miterlimit="10"/>
<path fill-rule="evenodd" clip-rule="evenodd" d="M617.718 997.268L600.719 1014.26H634.533V1048.04L644.713 1027.65L651.533 1031.07V997.268H617.718Z" stroke="#511970" stroke-miterlimit="10"/>
<path fill-rule="evenodd" clip-rule="evenodd" d="M19.4573 1073.88L2.47824 1090.9H36.2725V1124.68L46.4518 1104.29L53.272 1107.71V1073.88H19.4573Z" stroke="#511970" stroke-miterlimit="10"/>
<path fill-rule="evenodd" clip-rule="evenodd" d="M94.2348 1073.88L77.2557 1090.9H111.05V1124.68L121.229 1104.29L128.05 1107.71V1073.88H94.2348Z" stroke="#511970" stroke-miterlimit="10"/>
<path fill-rule="evenodd" clip-rule="evenodd" d="M169.012 1073.88L152.033 1090.9H185.848V1124.68L196.007 1104.29L202.848 1107.71V1073.88H169.012Z" stroke="#511970" stroke-miterlimit="10"/>
<path fill-rule="evenodd" clip-rule="evenodd" d="M243.81 1073.88L226.811 1090.9H260.625V1124.68L270.805 1104.29L277.625 1107.71V1073.88H243.81Z" stroke="#511970" stroke-miterlimit="10"/>
<path fill-rule="evenodd" clip-rule="evenodd" d="M318.588 1073.88L301.588 1090.9H335.403V1124.68L345.582 1104.29L352.403 1107.71V1073.88H318.588Z" stroke="#511970" stroke-miterlimit="10"/>
<path fill-rule="evenodd" clip-rule="evenodd" d="M393.365 1073.88L376.386 1090.9H410.18V1124.68L420.36 1104.29L427.18 1107.71V1073.88H393.365Z" stroke="#511970" stroke-miterlimit="10"/>
<path fill-rule="evenodd" clip-rule="evenodd" d="M468.143 1073.88L451.164 1090.9H484.958V1124.68L495.137 1104.29L501.958 1107.71V1073.88H468.143Z" stroke="#511970" stroke-miterlimit="10"/>
<path fill-rule="evenodd" clip-rule="evenodd" d="M542.92 1073.88L525.941 1090.9H559.756V1124.68L569.915 1104.29L576.755 1107.71V1073.88H542.92Z" stroke="#511970" stroke-miterlimit="10"/>
<path fill-rule="evenodd" clip-rule="evenodd" d="M617.718 1073.88L600.719 1090.9H634.533V1124.68L644.713 1104.29L651.533 1107.71V1073.88H617.718Z" stroke="#511970" stroke-miterlimit="10"/>
<path fill-rule="evenodd" clip-rule="evenodd" d="M19.4573 1150.52L2.47824 1167.53H36.2725V1201.32L46.4518 1180.92L53.272 1184.34V1150.52H19.4573Z" stroke="#511970" stroke-miterlimit="10"/>
<path fill-rule="evenodd" clip-rule="evenodd" d="M94.2348 1150.52L77.2557 1167.53H111.05V1201.32L121.229 1180.92L128.05 1184.34V1150.52H94.2348Z" stroke="#511970" stroke-miterlimit="10"/>
<path fill-rule="evenodd" clip-rule="evenodd" d="M169.012 1150.52L152.033 1167.53H185.848V1201.32L196.007 1180.92L202.848 1184.34V1150.52H169.012Z" stroke="#511970" stroke-miterlimit="10"/>
<path fill-rule="evenodd" clip-rule="evenodd" d="M243.81 1150.52L226.811 1167.53H260.625V1201.32L270.805 1180.92L277.625 1184.34V1150.52H243.81Z" stroke="#511970" stroke-miterlimit="10"/>
<path fill-rule="evenodd" clip-rule="evenodd" d="M318.588 1150.52L301.588 1167.53H335.403V1201.32L345.582 1180.92L352.403 1184.34V1150.52H318.588Z" stroke="#511970" stroke-miterlimit="10"/>
<path fill-rule="evenodd" clip-rule="evenodd" d="M393.365 1150.52L376.386 1167.53H410.18V1201.32L420.36 1180.92L427.18 1184.34V1150.52H393.365Z" stroke="#511970" stroke-miterlimit="10"/>
<path fill-rule="evenodd" clip-rule="evenodd" d="M468.143 1150.52L451.164 1167.53H484.958V1201.32L495.137 1180.92L501.958 1184.34V1150.52H468.143Z" stroke="#511970" stroke-miterlimit="10"/>
<path fill-rule="evenodd" clip-rule="evenodd" d="M542.92 1150.52L525.941 1167.53H559.756V1201.32L569.915 1180.92L576.755 1184.34V1150.52H542.92Z" stroke="#511970" stroke-miterlimit="10"/>
<path fill-rule="evenodd" clip-rule="evenodd" d="M617.718 1150.52L600.719 1167.53H634.533V1201.32L644.713 1180.92L651.533 1184.34V1150.52H617.718Z" stroke="#511970" stroke-miterlimit="10"/>
<path fill-rule="evenodd" clip-rule="evenodd" d="M19.4573 1227.15L2.47824 1244.15H36.2725V1277.95L46.4518 1257.56L53.272 1260.98V1227.15H19.4573Z" stroke="#511970" stroke-miterlimit="10"/>
<path fill-rule="evenodd" clip-rule="evenodd" d="M94.2348 1227.15L77.2557 1244.15H111.05V1277.95L121.229 1257.56L128.05 1260.98V1227.15H94.2348Z" stroke="#511970" stroke-miterlimit="10"/>
<path fill-rule="evenodd" clip-rule="evenodd" d="M169.012 1227.15L152.033 1244.15H185.848V1277.95L196.007 1257.56L202.848 1260.98V1227.15H169.012Z" stroke="#511970" stroke-miterlimit="10"/>
<path fill-rule="evenodd" clip-rule="evenodd" d="M243.81 1227.15L226.811 1244.15H260.625V1277.95L270.805 1257.56L277.625 1260.98V1227.15H243.81Z" stroke="#511970" stroke-miterlimit="10"/>
<path fill-rule="evenodd" clip-rule="evenodd" d="M318.588 1227.15L301.588 1244.15H335.403V1277.95L345.582 1257.56L352.403 1260.98V1227.15H318.588Z" stroke="#511970" stroke-miterlimit="10"/>
<path fill-rule="evenodd" clip-rule="evenodd" d="M393.365 1227.15L376.386 1244.15H410.18V1277.95L420.36 1257.56L427.18 1260.98V1227.15H393.365Z" stroke="#511970" stroke-miterlimit="10"/>
<path fill-rule="evenodd" clip-rule="evenodd" d="M468.143 1227.15L451.164 1244.15H484.958V1277.95L495.137 1257.56L501.958 1260.98V1227.15H468.143Z" stroke="#511970" stroke-miterlimit="10"/>
<path fill-rule="evenodd" clip-rule="evenodd" d="M542.92 1227.15L525.941 1244.15H559.756V1277.95L569.915 1257.56L576.755 1260.98V1227.15H542.92Z" stroke="#511970" stroke-miterlimit="10"/>
<path fill-rule="evenodd" clip-rule="evenodd" d="M617.718 1227.15L600.719 1244.15H634.533V1277.95L644.713 1257.56L651.533 1260.98V1227.15H617.718Z" stroke="#511970" stroke-miterlimit="10"/>
</g>
</g>
<defs>
<linearGradient id="paint0_linear_900_100" x1="334" y1="0" x2="334" y2="1293" gradientUnits="userSpaceOnUse">
<stop stop-color="#020103"/>
<stop offset="1" stop-color="#38003C"/>
</linearGradient>
<clipPath id="clip0_900_100">
<rect width="668" height="1293" fill="white"/>
</clipPath>
</defs>
</svg>
