<svg width="199" height="43" viewBox="0 0 199 43" fill="none" xmlns="http://www.w3.org/2000/svg">
<g clip-path="url(#clip0_900_57)">
<path d="M111.004 17.4447C110.588 17.7573 110.016 17.9088 109.297 17.9088C108.171 17.9088 107.357 17.6768 106.855 17.2173C106.354 16.7579 106.103 16.0428 106.103 15.0718H101.732C101.732 16.2654 102.03 17.3215 102.631 18.2356C103.232 19.1497 104.126 19.8744 105.313 20.4001C106.501 20.9258 107.825 21.191 109.292 21.191C111.369 21.191 113.006 20.7411 114.198 19.8365C115.39 18.9319 115.986 17.691 115.986 16.1091C115.986 14.1293 115.012 12.5759 113.058 11.4486C112.253 10.9845 111.227 10.5535 109.978 10.1509C108.729 9.74835 107.854 9.35998 107.357 8.98108C106.86 8.60219 106.614 8.18066 106.614 7.72125C106.614 7.1908 106.841 6.75507 107.291 6.40932C107.74 6.06832 108.355 5.89308 109.136 5.89308C109.916 5.89308 110.517 6.09673 110.967 6.50405C111.416 6.91136 111.643 7.47971 111.643 8.21855H115.986C115.986 7.11502 115.702 6.13936 115.13 5.27737C114.557 4.42012 113.758 3.75705 112.727 3.2929C111.695 2.82875 110.531 2.59668 109.23 2.59668C107.929 2.59668 106.699 2.80981 105.63 3.23607C104.561 3.66233 103.738 4.25909 103.151 5.02635C102.569 5.79362 102.276 6.67929 102.276 7.67863C102.276 9.69151 103.449 11.2734 105.791 12.429C106.51 12.7843 107.437 13.1537 108.573 13.5373C109.708 13.9162 110.498 14.2856 110.952 14.6456C111.407 15.0055 111.629 15.4981 111.629 16.1375C111.629 16.7011 111.421 17.1368 111 17.4494L111.004 17.4447Z" fill="white"/>
<path d="M124.384 21.1907C125.822 21.1907 127.104 20.9255 128.225 20.395C129.346 19.8646 130.217 19.1163 130.837 18.1501C131.456 17.1839 131.797 16.0709 131.854 14.8111H127.52C127.487 15.8388 127.203 16.5871 126.678 17.0608C126.148 17.5344 125.382 17.7712 124.379 17.7712C123.196 17.7712 122.364 17.3544 121.876 16.5303C121.394 15.7015 121.148 14.3232 121.148 12.3909V11.1121C121.171 9.33127 121.436 8.03355 121.942 7.22366C122.449 6.41377 123.243 6.00645 124.327 6.00645C125.41 6.00645 126.191 6.248 126.711 6.72636C127.232 7.20471 127.511 8.0004 127.544 9.0992H131.887C131.707 7.06736 130.945 5.476 129.616 4.32036C128.282 3.16473 126.522 2.58691 124.327 2.58691C122.803 2.58691 121.465 2.9516 120.306 3.67624C119.147 4.40088 118.257 5.42864 117.642 6.75951C117.027 8.09038 116.715 9.64386 116.715 11.4152V12.3103C116.715 15.1379 117.396 17.3212 118.763 18.8747C120.131 20.4235 121.999 21.2002 124.374 21.2002L124.384 21.1907Z" fill="white"/>
<path d="M137.285 13.3857H143.7V20.9447H148.033V2.84766H143.7V10.0325H137.285V2.84766H132.923V20.9447H137.285V13.3857Z" fill="white"/>
<path d="M153.129 20.1301C154.321 20.8405 155.688 21.191 157.226 21.191C158.763 21.191 160.135 20.8263 161.342 20.0922C162.543 19.3581 163.475 18.3114 164.128 16.9521C164.781 15.5928 165.107 14.0299 165.107 12.268V11.4344C165.098 9.69625 164.762 8.15225 164.095 6.80243C163.428 5.45735 162.496 4.42012 161.294 3.69074C160.093 2.96137 158.73 2.59668 157.197 2.59668C155.665 2.59668 154.269 2.9661 153.058 3.70495C151.847 4.4438 150.915 5.4905 150.267 6.84032C149.618 8.19487 149.292 9.75782 149.292 11.5339V12.5522C149.325 14.2572 149.675 15.7728 150.342 17.0895C151.009 18.4061 151.937 19.4197 153.129 20.1301ZM153.734 10.9371C153.857 7.65495 155.012 6.01622 157.197 6.01622C158.314 6.01622 159.175 6.48037 159.776 7.4134C160.376 8.34643 160.675 9.71046 160.675 11.5102V12.3438C160.665 14.1009 160.362 15.446 159.766 16.3838C159.17 17.3215 158.323 17.7857 157.221 17.7857C156.062 17.7857 155.191 17.3073 154.6 16.3554C154.009 15.4034 153.72 14.0393 153.72 12.268L153.734 10.9371Z" fill="white"/>
<path d="M169.691 20.1301C170.883 20.8405 172.251 21.191 173.788 21.191C175.326 21.191 176.698 20.8263 177.904 20.0922C179.106 19.3581 180.038 18.3114 180.691 16.9521C181.343 15.5928 181.67 14.0299 181.67 12.268V11.4344C181.66 9.69625 181.324 8.15225 180.657 6.80243C179.99 5.45735 179.058 4.42012 177.857 3.69074C176.655 2.96137 175.293 2.59668 173.76 2.59668C172.227 2.59668 170.831 2.9661 169.62 3.70495C168.409 4.4438 167.477 5.4905 166.829 6.84032C166.181 8.19487 165.854 9.75782 165.854 11.5339V12.5522C165.888 14.2572 166.238 15.7728 166.905 17.0895C167.572 18.4061 168.499 19.4197 169.691 20.1301ZM170.297 10.9371C170.42 7.65495 171.574 6.01622 173.76 6.01622C174.876 6.01622 175.737 6.48037 176.338 7.4134C176.939 8.34643 177.237 9.71046 177.237 11.5102V12.3438C177.228 14.1009 176.925 15.446 176.329 16.3838C175.733 17.3215 174.886 17.7857 173.783 17.7857C172.624 17.7857 171.754 17.3073 171.163 16.3554C170.571 15.4034 170.283 14.0393 170.283 12.268L170.297 10.9371Z" fill="white"/>
<path d="M194.869 17.5867H187.286V2.84766H182.929V20.9447H194.869V17.5867Z" fill="white"/>
<path d="M57.2523 21.1907C58.7898 21.1907 60.2091 20.9634 61.5006 20.5087C62.7921 20.054 63.7714 19.4525 64.4432 18.709V11.2778H57.0536V14.2711H60.0813V17.0797C59.5278 17.5865 58.681 17.8375 57.5503 17.8375C56.2257 17.8375 55.2558 17.3828 54.6408 16.4782C54.0258 15.5688 53.7136 14.2143 53.7136 12.4051V11.311C53.723 9.58702 54.0258 8.26089 54.6219 7.33259C55.218 6.40429 56.0601 5.94015 57.1529 5.94015C58.0613 5.94015 58.7662 6.15801 59.2629 6.58901C59.7596 7.02 60.0813 7.7399 60.2327 8.75345H64.429C64.2209 6.70741 63.497 5.16815 62.2481 4.13565C61.0039 3.10316 59.2534 2.58691 57.0015 2.58691C55.464 2.58691 54.1062 2.94687 52.9377 3.66203C51.7692 4.3772 50.8656 5.40022 50.2364 6.73109C49.6072 8.06197 49.2949 9.61544 49.2949 11.3963L49.3091 12.9639C49.4085 15.5499 50.1654 17.5675 51.5799 19.0168C52.9945 20.4661 54.8868 21.1907 57.2523 21.1907Z" fill="white"/>
<path d="M73.2098 21.1907C74.648 21.1907 75.93 20.9255 77.0513 20.395C78.1725 19.8646 79.043 19.1163 79.6627 18.1501C80.2825 17.1839 80.6231 16.0709 80.6799 14.8111H76.3464C76.3132 15.8388 76.0294 16.5871 75.5043 17.0608C74.9744 17.5344 74.208 17.7712 73.2051 17.7712C72.0223 17.7712 71.1897 17.3544 70.7024 16.5303C70.2199 15.7015 69.9739 14.3232 69.9739 12.3909V11.1121C69.9975 9.33127 70.2624 8.03355 70.7686 7.22366C71.2748 6.41377 72.0696 6.00645 73.153 6.00645C74.2364 6.00645 75.017 6.248 75.5374 6.72636C76.0578 7.20471 76.3369 8.0004 76.37 9.0992H80.713C80.5332 7.06736 79.7715 5.476 78.4421 4.32036C77.108 3.16473 75.3481 2.58691 73.153 2.58691C71.6297 2.58691 70.2908 2.9516 69.1318 3.67624C67.9727 4.40088 67.0833 5.42864 66.4683 6.75951C65.8533 8.09038 65.541 9.64386 65.541 11.4152V12.3103C65.541 15.1379 66.2223 17.3212 67.5895 18.8747C68.9567 20.4235 70.8254 21.2002 73.2003 21.2002L73.2098 21.1907Z" fill="white"/>
<path d="M88.9778 21.1907C90.416 21.1907 91.6981 20.9255 92.8193 20.395C93.9405 19.8646 94.811 19.1163 95.4308 18.1501C96.0505 17.1839 96.3912 16.0709 96.4479 14.8111H92.1144C92.0813 15.8388 91.7975 16.5871 91.2723 17.0608C90.7425 17.5344 89.9761 17.7712 88.9731 17.7712C87.7904 17.7712 86.9578 17.3544 86.4705 16.5303C85.9879 15.7015 85.7419 14.3232 85.7419 12.3909V11.1121C85.7656 9.33127 86.0305 8.03355 86.5367 7.22366C87.0429 6.41377 87.8377 6.00645 88.9211 6.00645C90.0045 6.00645 90.785 6.248 91.3054 6.72636C91.8258 7.20471 92.105 8.0004 92.1381 9.0992H96.481C96.3013 7.06736 95.5396 5.476 94.2102 4.32036C92.8761 3.16473 91.1162 2.58691 88.9211 2.58691C87.3977 2.58691 86.0589 2.9516 84.8998 3.67624C83.7408 4.40088 82.8513 5.42864 82.2363 6.75951C81.6213 8.09038 81.3091 9.64386 81.3091 11.4152V12.3103C81.3091 15.1379 81.9903 17.3212 83.3576 18.8747C84.7248 20.4235 86.5935 21.2002 88.9684 21.2002L88.9778 21.1907Z" fill="white"/>
<path d="M198.55 27.8779H49.8203V28.6831H198.55V27.8779Z" fill="white"/>
<path d="M52.4646 37.2653H53.6709V38.8614C53.581 38.9751 53.4486 39.0698 53.2783 39.1408C53.108 39.2119 52.8761 39.245 52.5781 39.245C52.1618 39.245 51.8401 39.1077 51.6177 38.833C51.3954 38.5583 51.2818 38.1368 51.2818 37.5732V35.1624C51.2818 34.6083 51.3906 34.1962 51.613 33.9168C51.8353 33.6421 52.1429 33.5048 52.5355 33.5048C52.8998 33.5048 53.1742 33.5995 53.354 33.7889C53.5337 33.9784 53.6236 34.2768 53.6236 34.6888H55.0618L55.0713 34.6556C55.0855 33.9026 54.8726 33.32 54.4373 32.9127C53.9974 32.5054 53.3492 32.3018 52.4882 32.3018C51.6272 32.3018 50.998 32.5528 50.5012 33.0501C49.9998 33.5521 49.749 34.2578 49.749 35.1672V37.5684C49.749 38.4825 50.0045 39.1929 50.5202 39.6902C51.0358 40.1875 51.7218 40.4386 52.5734 40.4386C53.2451 40.4386 53.7939 40.3249 54.2197 40.0975C54.6455 39.8702 54.9672 39.5955 55.1943 39.2829V36.2044H52.4598V37.2653H52.4646Z" fill="white"/>
<path d="M57.7966 36.8339H60.2094V35.6404H57.7966V33.618H60.6777V32.415H56.2686V40.3245H60.6872V39.131H57.7966V36.8339Z" fill="white"/>
<path d="M61.1836 33.618H62.9908V40.3245H64.5236V33.618H66.3781V32.415H61.1836V33.618Z" fill="white"/>
<path d="M73.5976 35.8346H71.0523V32.415H69.5195V40.3245H71.0523V37.0281H73.5976V40.3245H75.1209V32.415H73.5976V35.8346Z" fill="white"/>
<path d="M77.9218 32.415H76.3984V40.3245H77.9218V32.415Z" fill="white"/>
<path d="M84.1428 38.9843V38.4065C84.1428 37.9281 84.053 37.5303 83.8732 37.213C83.6934 36.8956 83.3954 36.6683 82.9838 36.5262C83.3433 36.3462 83.6177 36.1094 83.807 35.811C83.9962 35.5127 84.0908 35.1574 84.0908 34.7454C84.0908 34.016 83.8637 33.4429 83.4143 33.0356C82.9649 32.6236 82.3451 32.4199 81.5598 32.4199H79.1943V40.3246H80.7224V37.1514H81.6449C81.9572 37.1514 82.1937 37.2603 82.3593 37.4829C82.5249 37.7008 82.61 38.0134 82.61 38.416V38.9701C82.61 39.2306 82.629 39.4911 82.6621 39.7563C82.6952 40.0168 82.7756 40.2062 82.9033 40.3246H84.4882V40.211C84.3557 40.0973 84.2658 39.9221 84.2185 39.6805C84.1665 39.439 84.1428 39.2069 84.1428 38.9843ZM82.3025 35.6642C82.1322 35.8631 81.8815 35.9579 81.5503 35.9579H80.7271V33.6182H81.5645C81.8909 33.6182 82.1369 33.7271 82.3073 33.945C82.4776 34.1628 82.5627 34.4565 82.5627 34.8259C82.5627 35.1953 82.4776 35.47 82.3073 35.6642H82.3025Z" fill="white"/>
<path d="M86.8249 36.8339H89.2377V35.6404H86.8249V33.618H89.7061V32.415H85.2969V40.3245H89.7155V39.131H86.8249V36.8339Z" fill="white"/>
<path d="M93.0936 32.415H90.6572V40.3245H93.0936C93.9168 40.3245 94.5981 40.0166 95.1374 39.4057C95.6767 38.79 95.9464 37.999 95.9464 37.0281V35.7209C95.9464 34.7547 95.6767 33.9638 95.1374 33.3433C94.5981 32.7276 93.9168 32.415 93.0936 32.415ZM94.4088 37.0281C94.4088 37.6485 94.2858 38.1553 94.0445 38.5437C93.8033 38.9368 93.4816 39.131 93.0889 39.131H92.1806V33.618H93.0889C93.4816 33.618 93.8033 33.8122 94.0445 34.2053C94.2858 34.5984 94.4088 35.0957 94.4088 35.7114V37.0328V37.0281Z" fill="white"/>
<path d="M99.4141 40.3245H100.942V37.0186H103.45V35.8204H100.942V33.618H103.927V32.415H99.4141V40.3245Z" fill="white"/>
<path d="M106.383 32.415H104.859V40.3245H106.383V32.415Z" fill="white"/>
<path d="M112.609 38.9843V38.4065C112.609 37.9281 112.519 37.5303 112.339 37.213C112.159 36.8956 111.861 36.6683 111.45 36.5262C111.809 36.3462 112.084 36.1094 112.273 35.811C112.462 35.5127 112.557 35.1574 112.557 34.7454C112.557 34.016 112.33 33.4429 111.88 33.0356C111.431 32.6236 110.811 32.4199 110.026 32.4199H107.66V40.3246H109.188V37.1514H110.111C110.423 37.1514 110.66 37.2603 110.825 37.4829C110.991 37.7008 111.076 38.0134 111.076 38.416V38.9701C111.076 39.2306 111.095 39.4911 111.128 39.7563C111.161 40.0168 111.241 40.2062 111.369 40.3246H112.954V40.211C112.822 40.0973 112.732 39.9221 112.684 39.6805C112.632 39.439 112.609 39.2069 112.609 38.9843ZM110.768 35.6642C110.598 35.8631 110.347 35.9579 110.016 35.9579H109.193V33.6182H110.03C110.357 33.6182 110.603 33.7271 110.773 33.945C110.943 34.1628 111.029 34.4565 111.029 34.8259C111.029 35.1953 110.943 35.47 110.773 35.6642H110.768Z" fill="white"/>
<path d="M116.45 35.7355C116.001 35.5271 115.684 35.3377 115.499 35.1672C115.315 34.9967 115.225 34.7741 115.225 34.5041C115.225 34.2152 115.305 33.9736 115.471 33.7795C115.632 33.5853 115.863 33.4905 116.157 33.4905C116.497 33.4905 116.758 33.5947 116.942 33.8079C117.127 34.021 117.217 34.3289 117.217 34.7409H118.702L118.711 34.7077C118.726 33.9784 118.499 33.3911 118.035 32.9554C117.567 32.5196 116.952 32.3018 116.185 32.3018C115.461 32.3018 114.865 32.5054 114.402 32.9127C113.933 33.32 113.701 33.8505 113.701 34.4946C113.701 35.1387 113.905 35.655 114.316 36.0149C114.723 36.3749 115.334 36.7017 116.147 36.9859C116.564 37.1611 116.852 37.3363 117.013 37.5211C117.174 37.701 117.254 37.952 117.254 38.2694C117.254 38.5867 117.174 38.8093 117.008 38.994C116.843 39.174 116.597 39.264 116.266 39.264C115.873 39.264 115.58 39.155 115.376 38.9372C115.178 38.7193 115.073 38.3641 115.073 37.8668H113.583L113.574 37.9C113.555 38.7525 113.81 39.3919 114.345 39.8086C114.879 40.2254 115.518 40.4386 116.266 40.4386C117.013 40.4386 117.633 40.2444 118.096 39.856C118.555 39.4676 118.787 38.9372 118.787 38.2599C118.787 37.5826 118.588 37.0853 118.201 36.697C117.808 36.3086 117.231 35.9913 116.464 35.7355H116.45Z" fill="white"/>
<path d="M124.488 32.415H119.289V33.618H121.096V40.3245H122.629V33.618H124.488V32.415Z" fill="white"/>
<path d="M125.604 38.9512H124.095V40.3247H125.604V38.9512Z" fill="white"/>
<path d="M128.92 33.618H130.732V40.3245H132.265V33.618H134.12V32.415H128.92V33.618Z" fill="white"/>
<path d="M138.912 35.8346H136.367V32.415H134.839V40.3245H136.367V37.0281H138.912V40.3245H140.435V32.415H138.912V35.8346Z" fill="white"/>
<path d="M143.156 36.8339H145.569V35.6404H143.156V33.618H146.037V32.415H141.628V40.3245H146.047V39.131H143.156V36.8339Z" fill="white"/>
<path d="M151.056 37.4638L151.023 37.4686L148.516 32.415H146.988V40.3245H148.516V35.2852L148.549 35.2804L151.056 40.3245H152.589V32.415H151.056V37.4638Z" fill="white"/>
<path d="M155.75 33.618H157.557V40.3245H159.094V33.618H160.949V32.415H155.75V33.618Z" fill="white"/>
<path d="M166.612 38.9843V38.4065C166.612 37.9281 166.522 37.5303 166.342 37.213C166.162 36.8956 165.864 36.6683 165.453 36.5262C165.812 36.3462 166.086 36.1094 166.276 35.811C166.465 35.5127 166.56 35.1574 166.56 34.7454C166.56 34.016 166.332 33.4429 165.883 33.0356C165.434 32.6236 164.814 32.4199 164.029 32.4199H161.663V40.3246H163.191V37.1514H164.114C164.426 37.1514 164.662 37.2603 164.828 37.4829C164.994 37.7008 165.079 38.0134 165.079 38.416V38.9701C165.079 39.2306 165.098 39.4911 165.131 39.7563C165.164 40.0168 165.244 40.2062 165.372 40.3246H166.957V40.211C166.824 40.0973 166.735 39.9221 166.687 39.6805C166.635 39.439 166.612 39.2069 166.612 38.9843ZM164.771 35.6642C164.601 35.8631 164.35 35.9579 164.019 35.9579H163.196V33.6182H164.033C164.36 33.6182 164.606 33.7271 164.776 33.945C164.946 34.1628 165.031 34.4565 165.031 34.8259C165.031 35.1953 164.946 35.47 164.776 35.6642H164.771Z" fill="white"/>
<path d="M169.493 32.415L167.25 40.3245H168.845L169.289 38.6147H171.267L171.716 40.3245H173.315L171.073 32.415H169.488H169.493ZM169.606 37.407L170.264 34.8968H170.297L170.955 37.407H169.611H169.606Z" fill="white"/>
<path d="M175.529 32.415H174.006V40.3245H175.529V32.415Z" fill="white"/>
<path d="M180.875 37.4638L180.847 37.4686L178.339 32.415H176.807V40.3245H178.339V35.2852L178.368 35.2804L180.875 40.3245H182.408V32.415H180.875V37.4638Z" fill="white"/>
<path d="M185.119 36.8339H187.536V35.6404H185.119V33.618H188V32.415H183.591V40.3245H188.014V39.131H185.119V36.8339Z" fill="white"/>
<path d="M191.387 32.415H188.951V40.3245H191.387C192.21 40.3245 192.892 40.0166 193.431 39.4057C193.97 38.79 194.24 37.999 194.24 37.0281V35.7209C194.24 34.7547 193.97 33.9638 193.431 33.3433C192.892 32.7276 192.21 32.415 191.387 32.415ZM192.707 37.0281C192.707 37.6485 192.584 38.1553 192.343 38.5437C192.101 38.9368 191.78 39.131 191.387 39.131H190.479V33.618H191.387C191.78 33.618 192.101 33.8122 192.343 34.2053C192.584 34.5984 192.707 35.0957 192.707 35.7114V37.0328V37.0281Z" fill="white"/>
<path d="M196.312 38.9512H194.803V40.3247H196.312V38.9512Z" fill="white"/>
<path d="M36.7298 0.375H5.32621C2.1376 0.375 -0.450195 2.96097 -0.450195 6.15791V37.5968C-0.450195 40.789 2.1376 43.375 5.32621 43.375H36.7298C39.9184 43.375 42.5062 40.789 42.5062 37.5968V6.15791C42.5062 2.96097 39.9184 0.375 36.7298 0.375ZM19.7459 34.3288C13.3498 33.4479 8.42494 27.9539 8.42494 21.309C8.42494 14.0532 14.3007 8.17079 21.5484 8.17079C24.9405 8.17079 28.0345 9.45904 30.362 11.5761L26.6767 15.2609C25.2953 14.0863 23.507 13.3759 21.5484 13.3759C17.1723 13.3759 13.6242 16.928 13.6242 21.309C13.6242 25.69 17.1723 29.2422 21.5484 29.2422C23.6962 29.2422 25.6454 28.3896 27.0741 26.9972L19.7459 34.3288ZM32.7369 29.6779L30.5134 29.1332L28.271 34.1441V25.5337H19.3911L23.8524 21.0675H32.4578L32.7369 20.788V29.6779Z" fill="white"/>
</g>
<defs>
<clipPath id="clip0_900_57">
<rect width="199" height="43" fill="white"/>
</clipPath>
</defs>
</svg>
