<svg width="37" height="42" viewBox="0 0 37 42" fill="none" xmlns="http://www.w3.org/2000/svg">
<g clip-path="url(#clip0_6_3103)">
<path d="M29.1674 24.5453C29.1674 24.7889 29.2466 25.0907 29.1453 25.3235C29.1453 25.3235 29.1453 25.3235 29.1361 25.3235C29.1459 25.3303 29.1534 25.3399 29.1575 25.351C29.1617 25.3621 29.1623 25.3742 29.1593 25.3856C29.1563 25.3971 29.1498 25.4074 29.1408 25.4151C29.1317 25.4228 29.1204 25.4277 29.1085 25.4289C28.9778 25.4435 28.8453 25.4489 28.7146 25.4526C28.7146 25.4526 28.7146 25.4635 28.7146 25.4689C28.7379 26.2289 28.7606 26.9895 28.7827 27.7507C28.8251 28.3899 28.814 29.0315 28.7496 29.6689C28.6115 30.6689 28.0979 31.4871 27.1462 31.9035C26.1945 32.3198 24.9686 32.3689 24.0169 31.8707C23.5992 31.657 23.2446 31.3401 22.9879 30.9507C22.7192 30.4886 22.5688 29.9687 22.5498 29.4362C22.4323 28.1154 22.4243 26.7873 22.5258 25.4653C22.3669 25.4989 22.2025 25.4989 22.0435 25.4653C22.0334 25.4627 22.0247 25.4563 22.0192 25.4475C22.0137 25.4387 22.0119 25.4281 22.0141 25.418C22.007 25.4133 22.001 25.4071 21.9965 25.3999C21.9921 25.3927 21.9893 25.3846 21.9883 25.3762C21.9681 24.8489 21.9533 24.3198 21.9349 23.7962C21.9349 23.7871 21.9372 23.7781 21.9415 23.77C21.9458 23.7619 21.952 23.755 21.9596 23.7498C21.9672 23.7446 21.9759 23.7413 21.9851 23.7402C21.9943 23.7391 22.0036 23.7402 22.0122 23.7435V23.7326C22.0075 23.7307 22.0034 23.7274 22.0005 23.7232C21.9976 23.719 21.996 23.714 21.996 23.7089C21.996 23.7038 21.9976 23.6989 22.0005 23.6946C22.0034 23.6904 22.0075 23.6872 22.0122 23.6853C22.2445 23.6326 22.4832 23.6136 22.721 23.6289C22.986 23.6198 23.2548 23.6162 23.5235 23.6107C24.0574 23.5998 24.5912 23.5926 25.125 23.5889C25.1349 23.588 25.1448 23.5902 25.1534 23.595C25.1619 23.5999 25.1688 23.6073 25.1729 23.6162C25.1818 23.6123 25.1916 23.6106 25.2014 23.6113C25.2111 23.6121 25.2205 23.6152 25.2287 23.6204C25.237 23.6257 25.2437 23.6328 25.2484 23.6413C25.2532 23.6498 25.2557 23.6593 25.2557 23.6689C25.2557 24.0562 25.2797 24.4489 25.2852 24.838C25.2852 25.0089 25.2852 25.1762 25.2852 25.3453C25.2845 25.3552 25.2808 25.3647 25.2746 25.3725C25.2683 25.3803 25.2598 25.386 25.2502 25.3889C25.2488 25.4026 25.2421 25.4152 25.2314 25.424C25.2207 25.4328 25.207 25.4372 25.1931 25.4362C25.029 25.4226 24.864 25.4226 24.6998 25.4362C24.7305 25.8895 24.7354 26.3442 24.7145 26.798C24.7145 27.2307 24.7145 27.6635 24.7053 28.0962C24.7053 28.7835 24.6851 30.0489 25.6828 30.0616C26.7173 30.0707 26.5609 28.7889 26.548 28.1053C26.5296 27.2235 26.5093 26.3416 26.4964 25.4562C26.34 25.4562 26.1835 25.4562 26.027 25.4562C26.0194 25.4563 26.0119 25.4546 26.0052 25.4512C25.9984 25.4479 25.9925 25.443 25.988 25.4369C25.9835 25.4309 25.9805 25.4239 25.9793 25.4165C25.9781 25.4091 25.9787 25.4015 25.981 25.3944C25.9673 25.3935 25.9545 25.3876 25.9449 25.3778C25.9354 25.3681 25.9299 25.3552 25.9295 25.3416C25.9203 25.1707 25.9129 25.0016 25.9092 24.8307C25.8982 24.4544 25.8982 24.0707 25.9092 23.698C25.9092 23.6908 25.9106 23.6838 25.9134 23.6771C25.9162 23.6705 25.9203 23.6645 25.9254 23.6594C25.9305 23.6544 25.9366 23.6504 25.9433 23.6476C25.95 23.6449 25.9572 23.6435 25.9644 23.6435L25.9792 23.6235C25.9712 23.6163 25.9656 23.607 25.963 23.5966C25.9604 23.5863 25.9608 23.5755 25.9643 23.5655C25.9679 23.5554 25.9743 23.5466 25.9828 23.5401C25.9913 23.5336 26.0016 23.5297 26.0123 23.5289C26.9953 23.438 27.9875 23.5471 28.9723 23.458C28.9862 23.4862 29.0064 23.5109 29.0312 23.5304C29.056 23.5499 29.085 23.5637 29.1159 23.5707C29.1545 23.898 29.1545 24.2235 29.1674 24.5453Z" fill="#362983"/>
<path d="M19.9616 38.1633C19.9414 38.4088 19.5456 38.5015 19.4959 38.2269C19.0302 35.6015 19.1793 32.756 19.0596 30.096C18.9381 27.3433 18.6915 24.556 18.7559 21.7979L19.2253 21.8088C19.5217 24.4688 19.5309 27.1779 19.656 29.8506C19.7794 32.5615 20.1954 35.4415 19.9634 38.1415C19.9634 38.1488 19.9616 38.156 19.9616 38.1633Z" fill="#362983"/>
<path d="M36.8012 4.45446C36.7988 4.41965 36.7894 4.38566 36.7736 4.35446C36.7766 4.30766 36.7656 4.26102 36.7421 4.22031C36.7185 4.17959 36.6834 4.14659 36.6411 4.12537C31.1444 1.27264 24.5286 0.0908203 18.3675 0.0908203C12.2928 0.0908203 5.4819 1.18173 0.119661 4.17264C0.086252 4.19516 0.0589147 4.2254 0.0400232 4.26073C0.0211317 4.29606 0.0112572 4.33541 0.0112572 4.37537C0.0112572 4.41532 0.0211317 4.45467 0.0400232 4.49C0.0589147 4.52533 0.086252 4.55557 0.119661 4.57809C0.084501 4.62565 0.0652004 4.68284 0.0644376 4.74173C-0.0239206 9.16961 -0.0239206 13.5969 0.0644376 18.0235C0.104935 20.1563 0.156477 22.289 0.248517 24.4181C0.320308 26.2108 0.552249 27.8235 1.55732 29.3635C5.20578 34.9326 11.4976 39.6654 17.7563 41.9654C17.8079 41.9827 17.864 41.9819 17.915 41.963C17.966 41.9441 18.0088 41.9083 18.0361 41.8617C21.6938 41.2672 25.0588 39.4272 27.9599 37.2072C30.6677 35.1345 33.5209 32.6017 35.347 29.7072C36.2674 28.2417 36.6263 26.669 36.7312 24.9617C36.8693 22.709 36.8896 20.4417 36.9282 18.1872C37.0092 13.6235 37.1123 8.99991 36.8012 4.45446ZM3.29872 5.69991C3.28034 5.72991 3.26843 5.76334 3.26374 5.79809C3.2659 5.76324 3.2753 5.7292 3.29135 5.69809L3.29872 5.69991ZM3.26926 5.88173C3.24783 5.87995 3.22627 5.87995 3.20484 5.88173C3.22388 5.88094 3.24295 5.88155 3.2619 5.88355L3.26926 5.88173ZM2.97105 5.96355C2.93987 5.99584 2.91712 6.03516 2.90479 6.07809C2.91524 6.03649 2.93542 5.99788 2.96369 5.96537L2.97105 5.96355ZM2.8919 19.6163C3.60981 19.6163 4.32956 19.6163 5.04931 19.5945C4.3222 19.6145 3.60245 19.6254 2.88454 19.6181L2.8919 19.6163ZM9.79857 19.4163C10.3711 19.3963 10.9472 19.3835 11.5234 19.3726C10.9399 19.3854 10.3637 19.3981 9.7912 19.4181L9.79857 19.4163ZM16.9556 3.79809C16.6518 6.22355 16.8691 8.80355 16.8304 11.2526C16.7917 13.7017 16.6868 16.1617 16.7163 18.6145H16.7052C14.4134 18.5417 12.0885 18.7417 9.79673 18.8217C7.562 18.9017 5.31439 18.929 3.0815 19.0945C3.28215 14.7854 3.39812 10.4654 3.48648 6.15627C3.48687 6.12015 3.47998 6.0843 3.46623 6.05082C3.51544 6.05958 3.56616 6.05431 3.61245 6.03564C3.65874 6.01696 3.69869 5.98565 3.72762 5.94537C4.36822 5.09264 5.90896 4.97627 6.88643 4.77627C7.9185 4.56415 8.95794 4.38234 10.0047 4.23082C12.2395 3.91627 14.4852 3.95264 16.7163 3.70537C16.7869 3.70133 16.853 3.66997 16.9004 3.61809H17.0421C16.9901 3.66493 16.9574 3.72898 16.9501 3.79809H16.9556ZM32.8104 27.3817C32.6152 28.3835 32.3446 29.3545 31.6562 30.149C31.0726 30.8235 30.3161 31.3781 29.6313 31.9417C28.0445 33.2308 26.4062 34.4617 24.7182 35.6181C24.0335 36.1027 23.3205 36.5471 22.5829 36.949C21.7987 37.3635 20.8746 37.5581 20.142 38.0508C20.1249 38.0612 20.1108 38.0756 20.1008 38.0927C20.0908 38.1099 20.0854 38.1292 20.0849 38.149H19.9671C19.9671 38.149 19.9671 38.1635 19.9671 38.1708C19.9469 38.4163 19.5511 38.509 19.5014 38.2345C19.0357 35.609 19.1848 32.7635 19.0651 30.1035C18.9436 27.3508 18.697 24.5635 18.7614 21.8054L19.2308 21.8163C21.6091 22.1126 24.0887 22.0217 26.4799 21.949C27.6285 21.9108 28.7809 21.8526 29.9277 21.7672C30.583 21.7199 31.2383 21.6672 31.8936 21.6054C32.2195 21.5745 32.5471 21.5417 32.8729 21.5072C32.8951 21.5091 32.9174 21.5061 32.9381 21.4982C32.9589 21.4903 32.9775 21.4778 32.9926 21.4617C33.0244 21.4963 33.0645 21.5223 33.1093 21.5372C33.1541 21.5522 33.202 21.5556 33.2485 21.5472C33.3077 23.5018 33.1608 25.4571 32.8104 27.3817Z" fill="#362983"/>
<path d="M7.22 16V14.196H7.77V9.246H7.22V7.442H11.862V9.246H10.85V14.196H11.84V13.184H14.029V16H7.22Z" fill="#362983"/>
</g>
<defs>
<clipPath id="clip0_6_3103">
<rect width="37" height="42" fill="white"/>
</clipPath>
</defs>
</svg>
