<svg width="60" height="60" viewBox="0 0 60 60" fill="none" xmlns="http://www.w3.org/2000/svg">
<g id="032-monitor" clip-path="url(#clip0_112_156)">
<path id="Vector" d="M57.6562 0H2.34375C1.04919 0 0 1.04919 0 2.34375V45.7031C0 46.9977 1.04919 48.0469 2.34375 48.0469H19.9242L14.2397 56.3301C13.1735 57.8833 14.2886 60 16.1719 60H43.8281C45.7118 60 46.8265 57.8828 45.7603 56.3301L40.0758 48.0469H57.6562C58.9508 48.0469 60 46.9977 60 45.7031V2.34375C60 1.04919 58.9508 0 57.6562 0ZM20.6227 55.3125L25.6091 48.0469H34.3909L39.3773 55.3125H20.6227ZM55.3125 43.3594C53.8426 43.3594 6.15601 43.3594 4.6875 43.3594V4.6875H55.3125V43.3594ZM9.00696 17.0869C8.09143 16.1714 8.09143 14.6878 9.00696 13.7723C9.92203 12.8572 11.4061 12.8572 12.3212 13.7723L15.1172 16.5683L22.6007 9.08478C23.5158 8.16971 24.9998 8.16971 25.9149 9.08478C26.8304 10.0003 26.8304 11.4839 25.9149 12.3994L16.7743 21.5401C15.8592 22.4551 14.3752 22.4551 13.4601 21.5401L9.00696 17.0869ZM9.00696 34.509C8.09143 33.5934 8.09143 32.1098 9.00696 31.1943C9.92203 30.2792 11.4061 30.2792 12.3212 31.1943L15.1172 33.9903L22.6007 26.5068C23.5158 25.5913 24.9998 25.5913 25.9149 26.5068C26.8304 27.4223 26.8304 28.9059 25.9149 29.8215L16.7743 38.9621C15.8592 39.8772 14.3752 39.8772 13.4601 38.9621L9.00696 34.509ZM30.5859 15.3127C30.5859 14.0181 31.6351 12.9689 32.9297 12.9689H49.3359C50.6305 12.9689 51.6797 14.0181 51.6797 15.3127C51.6797 16.6072 50.6305 17.6564 49.3359 17.6564H32.9297C31.6351 17.6564 30.5859 16.6068 30.5859 15.3127ZM30.5859 32.7342C30.5859 31.4397 31.6351 30.3905 32.9297 30.3905H49.3359C50.6305 30.3905 51.6797 31.4397 51.6797 32.7342C51.6797 34.0288 50.6305 35.078 49.3359 35.078H32.9297C31.6351 35.078 30.5859 34.0288 30.5859 32.7342Z" fill="#353688"/>
</g>
<defs>
<clipPath id="clip0_112_156">
<rect width="60" height="60" fill="white"/>
</clipPath>
</defs>
</svg>
