<svg width="60" height="60" viewBox="0 0 60 60" fill="none" xmlns="http://www.w3.org/2000/svg">
<g id="030-open book" clip-path="url(#clip0_112_158)">
<path id="Vector" d="M57.6562 0H38.9062C35.2853 0 32.059 1.71982 30 4.38538C27.941 1.71982 24.7147 0 21.0938 0C19.2599 0 4.17389 0 2.34375 0C1.04919 0 0 1.04919 0 2.34375V57.6562C0 58.9508 1.04919 60 2.34375 60H57.6562C58.9508 60 60 58.9508 60 57.6562C60 54.9348 60 4.7731 60 2.34375C60 1.04919 58.9508 0 57.6562 0ZM13.5938 4.6875H18.75V11.4615L17.5342 10.5931C17.1268 10.302 16.6493 10.1564 16.1719 10.1564C15.6944 10.1564 15.217 10.302 14.8096 10.5931L13.5938 11.4615V4.6875ZM4.6875 55.3125V51.0938H21.0938C23.8866 51.0938 26.2761 52.8484 27.2218 55.3125H4.6875ZM27.6562 48.5234C25.8078 47.1918 23.541 46.4062 21.0938 46.4062H4.6875V4.6875H8.90625V16.0158C8.90625 17.9178 11.0628 19.0302 12.6123 17.9228L16.1719 15.3804L19.7314 17.9228C21.27 19.0219 23.4375 17.9315 23.4375 16.0158V5.12192C25.9016 6.06766 27.6562 8.45673 27.6562 11.25V48.5234ZM55.3125 55.3125H32.7782C33.7239 52.8484 36.1134 51.0938 38.9062 51.0938H55.3125V55.3125ZM55.3125 46.4062H38.9062C36.459 46.4062 34.1922 47.1918 32.3438 48.5234V11.25C32.3438 7.63138 35.2876 4.6875 38.9062 4.6875H55.3125V46.4062ZM23.4375 25.5469C23.4375 26.8414 22.3883 27.8906 21.0938 27.8906H11.25C9.95544 27.8906 8.90625 26.8414 8.90625 25.5469C8.90625 24.2523 9.95544 23.2031 11.25 23.2031H21.0938C22.3883 23.2031 23.4375 24.2523 23.4375 25.5469ZM23.4375 35.078C23.4375 36.3725 22.3883 37.4217 21.0938 37.4217H11.25C9.95544 37.4217 8.90625 36.3725 8.90625 35.078C8.90625 33.7834 9.95544 32.7342 11.25 32.7342H21.0938C22.3883 32.7342 23.4375 33.7834 23.4375 35.078ZM51.0938 25.5469C51.0938 26.8414 50.0446 27.8906 48.75 27.8906H38.9062C37.6117 27.8906 36.5625 26.8414 36.5625 25.5469C36.5625 24.2523 37.6117 23.2031 38.9062 23.2031H48.75C50.0446 23.2031 51.0938 24.2523 51.0938 25.5469ZM38.9062 13.672H48.75C50.0446 13.672 51.0938 14.7212 51.0938 16.0158C51.0938 17.3103 50.0446 18.3595 48.75 18.3595H38.9062C37.6117 18.3595 36.5625 17.3103 36.5625 16.0158C36.5625 14.7212 37.6117 13.672 38.9062 13.672ZM51.0938 35.078C51.0938 36.3725 50.0446 37.4217 48.75 37.4217H38.9062C37.6117 37.4217 36.5625 36.3725 36.5625 35.078C36.5625 33.7834 37.6117 32.7342 38.9062 32.7342H48.75C50.0446 32.7342 51.0938 33.7834 51.0938 35.078Z" fill="#353688"/>
</g>
<defs>
<clipPath id="clip0_112_158">
<rect width="60" height="60" fill="white"/>
</clipPath>
</defs>
</svg>
