<svg width="60" height="60" viewBox="0 0 60 60" fill="none" xmlns="http://www.w3.org/2000/svg">
<g id="048-file" clip-path="url(#clip0_112_112)">
<path id="Vector" d="M50.4076 13.1085L37.9857 0.686646C37.5458 0.246735 36.9498 0 36.3281 0H11.25C9.95544 0 8.90625 1.04919 8.90625 2.34375V57.6562C8.90625 58.9508 9.95544 60 11.25 60H48.75C50.0446 60 51.0938 58.9508 51.0938 57.6562V14.7656C51.0938 14.144 50.847 13.548 50.4076 13.1085ZM46.4062 55.3125H13.5938V4.6875H35.3572L46.4062 15.7365V55.3125ZM41.7188 46.9336C41.7188 48.2281 40.6696 49.2773 39.375 49.2773H20.625C19.3304 49.2773 18.2812 48.2281 18.2812 46.9336C18.2812 45.639 19.3304 44.5898 20.625 44.5898H39.375C40.6696 44.5898 41.7188 45.639 41.7188 46.9336ZM41.7188 36.2109C41.7188 37.5055 40.6696 38.5547 39.375 38.5547H20.625C19.3304 38.5547 18.2812 37.5055 18.2812 36.2109C18.2812 34.9164 19.3304 33.8672 20.625 33.8672H39.375C40.6696 33.8672 41.7188 34.9164 41.7188 36.2109ZM20.625 23.1445H39.375C40.6696 23.1445 41.7188 24.1937 41.7188 25.4883C41.7188 26.7828 40.6696 27.832 39.375 27.832H20.625C19.3304 27.832 18.2812 26.7828 18.2812 25.4883C18.2812 24.1937 19.3304 23.1445 20.625 23.1445Z" fill="#353688"/>
</g>
<defs>
<clipPath id="clip0_112_112">
<rect width="60" height="60" fill="white"/>
</clipPath>
</defs>
</svg>
