<svg width="14" height="14" viewBox="0 0 14 14" fill="none" xmlns="http://www.w3.org/2000/svg">
<g id="caret-down-filled" clip-path="url(#clip0_12_38)">
<path id="Vector" d="M10.5 5.25C10.997 5.25 11.2566 5.82517 10.9568 6.19675L10.9124 6.24575L7.41243 9.74575C7.31198 9.84619 7.17834 9.90652 7.03658 9.91543C6.89481 9.92435 6.75467 9.88123 6.64243 9.79417L6.5876 9.74575L3.0876 6.24575L3.03918 6.19092L3.00768 6.146L2.97618 6.09L2.96626 6.069L2.95051 6.02992L2.93185 5.96692L2.92601 5.936L2.92018 5.901L2.91785 5.86775V5.79892L2.92076 5.76508L2.92601 5.73008L2.93185 5.69975L2.95051 5.63675L2.96626 5.59767L3.0071 5.52067L3.04501 5.46817L3.0876 5.42092L3.14243 5.3725L3.18735 5.341L3.24335 5.3095L3.26435 5.29958L3.30343 5.28383L3.36643 5.26517L3.39735 5.25933L3.43235 5.2535L3.4656 5.25117L10.5 5.25Z" fill="#0D0D25"/>
</g>
<defs>
<clipPath id="clip0_12_38">
<rect width="14" height="14" fill="white"/>
</clipPath>
</defs>
</svg>
