<svg width="34" height="34" viewBox="0 0 34 34" fill="none" xmlns="http://www.w3.org/2000/svg">
<g clip-path="url(#clip0_77_335)">
<path d="M32 29V24H29V19.4197L22.3867 15.6407C22.7791 14.8434 23 13.9471 23 13.0001C23 11.6465 23 7.13093 23 5.00007H25V10.0001H27V3H23C22.3382 3 8.65393 3 8 3V5H11V13C11 13.947 11.2209 14.8433 11.6133 15.6406L5 19.4197V24H2V29H0V31H34V29H32ZM27 24H25V19.4375L27 20.5803V24ZM17 26.6873C15.9242 25.0689 14.0847 24 12 24H11V18.2946L12.7867 17.2737C15.1259 19.5931 18.9099 19.5578 21.2133 17.2737L23 18.2946V24H22C19.9153 24 18.0758 25.0689 17 26.6873ZM21 5V8H13V5H21ZM21 10V13C21 15.2719 19.0904 17.1175 16.7801 16.9937C14.6775 16.8797 13 15.1323 13 13V10H21ZM7 20.5803L9 19.4375V24H7V20.5803ZM4 29V26H12C13.8605 26 15.4283 27.2767 15.8735 29H4ZM18.1265 29C18.5717 27.2767 20.1395 26 22 26H30V29H18.1265Z" fill="#353688"/>
</g>
<defs>
<clipPath id="clip0_77_335">
<rect width="34" height="34" fill="white"/>
</clipPath>
</defs>
</svg>
