<svg width="7" height="12" viewBox="0 0 7 12" fill="none" xmlns="http://www.w3.org/2000/svg">
<path d="M1.9509 6.77348H0.340901C0.081201 6.77348 0 6.68348 0 6.45815V4.64082C0 4.40082 0.097301 4.32548 0.340901 4.32548H1.9509V3.00415C1.93191 2.41092 2.08343 1.82402 2.3891 1.30681C2.71623 0.783946 3.22895 0.389758 3.8346 0.195481C4.23671 0.062509 4.65985 -0.0035659 5.0855 0.000148309H6.6773C6.9048 0.000148309 7.0021 0.0901478 7.0021 0.300814V2.01281C7.0021 2.22281 6.9048 2.31348 6.6773 2.31348C6.2391 2.31348 5.8002 2.31348 5.362 2.32881C4.9238 2.32881 4.6963 2.52415 4.6963 2.94481C4.6802 3.39548 4.6963 3.83081 4.6963 4.29681H6.5821C6.8418 4.29681 6.9391 4.38681 6.9391 4.63015V6.44748C6.9391 6.68748 6.8579 6.76281 6.5821 6.76281H4.6956V11.6588C4.6956 11.9141 4.6144 12.0041 4.3218 12.0041H2.2918C2.0482 12.0041 1.9509 11.9141 1.9509 11.6888V6.77348Z" fill="white"/>
</svg>
