<svg width="48" height="48" viewBox="0 0 48 48" fill="none" xmlns="http://www.w3.org/2000/svg">
<g clip-path="url(#clip0_37_229)">
<path d="M46.6756 7.20739L24.5726 0.0900878C24.1991 -0.0300293 23.797 -0.0300293 23.4231 0.0900878L1.29628 7.21508C-0.430404 7.77135 -0.434432 10.2272 1.29628 10.7845L7.12159 12.6603V20.3144C5.73988 22.9918 5.01222 25.9867 5.01222 29.016C5.01222 39.4614 13.5083 47.9999 23.998 47.9999C34.464 47.9999 42.9838 39.4852 42.9838 29.016C42.9838 25.9867 42.2558 22.9918 40.8741 20.3144V12.6603L44.2495 11.5733V23.9996C44.2495 25.0352 45.0892 25.8746 46.1248 25.8746C47.1605 25.8746 47.9998 25.0352 47.9998 23.9996V8.99999C47.9998 8.1599 47.437 7.43847 46.6756 7.20739ZM8.76221 29.016C8.76221 26.9304 9.19251 24.8664 10.0139 22.9665L14.4344 24.39C14.2484 25.8944 14.1536 27.4438 14.1536 29.016C14.1536 29.5451 14.1649 30.071 14.1858 30.5932H8.84351C8.79004 30.0743 8.76221 29.5484 8.76221 29.016ZM10.872 19.303V13.868L23.4231 17.9095C23.7882 18.0271 24.1899 18.0326 24.573 17.9095L37.1241 13.868V19.303L23.998 23.5298L10.872 19.303ZM9.72461 34.3432H14.5267C14.9285 37.137 15.6971 40.0455 16.9679 42.528C13.6519 40.7958 11.0488 37.8793 9.72461 34.3432ZM23.998 44.2499C20.9545 44.2499 18.9198 38.0745 18.3174 34.3432H29.6783C29.0049 38.5144 26.868 44.2499 23.998 44.2499ZM30.0574 30.5932H17.9383C17.9156 30.0725 17.9036 29.5462 17.9036 29.016C17.9036 27.8448 17.9622 26.6902 18.076 25.5626L23.4231 27.2845C23.7878 27.4017 24.1899 27.4076 24.5726 27.2845L29.9197 25.5626C30.0335 26.6902 30.0921 27.8448 30.0921 29.016C30.0921 29.5462 30.0804 30.0725 30.0574 30.5932ZM31.0282 42.528C32.2989 40.0451 33.0676 37.1367 33.4693 34.3432H38.2715C36.9472 37.8793 34.3442 40.7958 31.0282 42.528ZM39.1522 30.5932H33.8099C33.8312 30.071 33.8425 29.5451 33.8425 29.016C33.8425 27.4438 33.7477 25.8944 33.5616 24.39L37.9821 22.9665C38.8032 24.8661 39.2335 26.9304 39.2335 29.016C39.2335 29.5484 39.2057 30.0743 39.1522 30.5932ZM23.998 14.1548C23.3312 13.9402 8.82081 9.26769 7.98878 8.99999L23.998 3.84484L40.0073 8.99962C39.1804 9.26586 24.6609 13.9413 23.998 14.1548Z" fill="#F8CA4D"/>
</g>
<defs>
<clipPath id="clip0_37_229">
<rect width="48" height="48" fill="white"/>
</clipPath>
</defs>
</svg>
