<svg width="82" height="64" viewBox="0 0 82 64" fill="none" xmlns="http://www.w3.org/2000/svg">
<g clip-path="url(#clip0_95_1200)">
<path d="M82 33.8544H0L5.55327 23.1537L0 12.4529H82L76.4467 23.1537L82 33.8544Z" fill="#FC6441"/>
<path d="M41.0021 47.0769C34.3033 47.0769 28.3972 44.7271 24.8154 40.6376C22.0222 37.5633 20.665 33.4369 20.665 28.0333V12.8663H18.2993V0H38.902V12.8663H36.5238V28.0455C36.4844 29.1407 36.7182 30.2287 37.2045 31.214C37.7938 32.1965 39.234 32.7901 41.0477 32.7901C42.932 32.7901 44.0195 32.3111 44.7831 31.1526C45.1982 30.4731 45.4389 29.421 45.4389 28.0578V12.8663H43.0773V0H63.6925V12.8663H61.3309V28.0455C61.3309 32.6836 59.8658 37.1826 57.3133 40.3797C53.773 44.6494 47.8254 47.0769 41.0021 47.0769Z" fill="#162D29"/>
<path d="M41.0021 45.7342C34.7017 45.7342 29.1734 43.5563 25.8406 39.7615C23.2756 36.9369 22.018 33.1012 22.018 28.0455V11.5113H19.6564V1.35498H37.5282V11.5113H35.1666V28.0455C35.1235 29.3788 35.4188 30.7015 36.0257 31.8936C36.8849 33.3181 38.7193 34.141 41.0602 34.141C43.401 34.141 44.9159 33.445 45.9535 31.8854C46.5388 30.952 46.8334 29.6871 46.8334 28.0455V11.5113H44.4718V1.35498H62.3436V11.5113H59.982V28.0455C59.982 32.3889 58.6248 36.5767 56.2466 39.5405C52.9678 43.4867 47.4103 45.7342 41.0021 45.7342Z" fill="white"/>
<path d="M23.3918 10.1562H21.0302V2.70581H36.1544V10.1562H33.7928V28.0455C33.7473 29.6176 34.1072 31.1755 34.8387 32.573C35.9427 34.407 38.2088 35.4959 41.0643 35.4959C43.7953 35.4959 45.7709 34.6362 47.1073 32.6303C47.8627 31.4268 48.2114 29.9367 48.2114 28.0455V10.1562H45.8498V2.70581H60.9698V10.1562H58.6123V28.0455C58.6123 32.1718 57.3299 36.0117 55.1799 38.6889C51.926 42.5861 46.5221 44.3627 41.0021 44.3627C35.013 44.3627 29.8997 42.3159 26.8906 38.8609C24.4004 36.1099 23.4043 32.3847 23.4043 28.0291L23.3918 10.1562Z" fill="#162D29"/>
<path d="M16.9088 25.7939L17.6186 27.37L19.3534 27.546L18.0544 28.6963L18.4196 30.3788L16.9088 29.5151L15.3981 30.3788L15.7675 28.6963L14.4642 27.546L16.2033 27.37L16.9088 25.7939Z" fill="white"/>
<path d="M15.4936 19.8132L16.1991 21.3852L17.9382 21.5612L16.6391 22.7115L17.0043 24.394L15.4936 23.5303L13.9828 24.394L14.3522 22.7115L13.049 21.5612L14.788 21.3852L15.4936 19.8132Z" fill="white"/>
<path d="M15.1408 13.644L15.8505 15.2201L17.5854 15.3961L16.2863 16.5464L16.6515 18.2289L15.1408 17.3652L13.63 18.2289L13.9994 16.5464L12.6962 15.3961L14.4352 15.2201L15.1408 13.644Z" fill="white"/>
<path d="M65.0911 25.7939L64.3856 27.37L62.6465 27.546L63.9456 28.6963L63.5804 30.3788L65.0911 29.5151L66.6019 30.3788L66.2325 28.6963L67.5357 27.546L65.7967 27.37L65.0911 25.7939Z" fill="white"/>
<path d="M66.1453 19.8132L65.4398 21.3852L63.7007 21.5612L65.004 22.7115L64.6346 24.394L66.1453 23.5303L67.6561 24.394L67.2867 22.7115L68.5899 21.5612L66.8509 21.3852L66.1453 19.8132Z" fill="white"/>
<path d="M66.8592 13.644L66.1536 15.2201L64.4146 15.3961L65.7137 16.5464L65.3485 18.2289L66.8592 17.3652L68.37 18.2289L68.0006 16.5464L69.3038 15.3961L67.5648 15.2201L66.8592 13.644Z" fill="white"/>
<path d="M10.3262 49.4716C10.3262 52.3809 10.3262 55.2914 10.3262 58.2034C10.3262 61.5274 11.1978 62.7064 12.3766 62.3912C13.6922 62.0596 14.5431 60.5367 14.5638 57.532L14.6178 49.4512H15.7716L15.7093 57.2537C15.6761 61.3473 14.2235 63.3573 12.3101 63.9017C10.5047 64.4175 9.15167 63.083 9.15167 58.363V49.4798L10.3262 49.4716Z" fill="#5CA89F"/>
<path d="M17.6642 62.3748L17.7846 49.4388H19.0297C19.9677 51.5757 20.9057 53.6144 21.8396 55.5793C22.4288 56.7901 22.9525 58.0308 23.4084 59.2963L23.4375 59.2718C23.3462 57.7039 23.3379 56.2589 23.3586 54.4044C23.3752 52.7479 23.3946 51.09 23.4167 49.4307H24.5291L24.3921 61.1467L23.2217 61.335C22.292 59.4765 21.3664 57.5525 20.4409 55.5466C19.8127 54.2158 19.2666 52.8487 18.8056 51.4529H18.7641C18.8181 53.0576 18.8264 54.5805 18.8056 56.6928C18.789 58.5022 18.771 60.3129 18.7517 62.125L17.6642 62.3748Z" fill="#5CA89F"/>
<path d="M27.7124 49.4143L27.5879 60.6964L26.4258 60.8478C26.4673 57.0271 26.5102 53.2159 26.5544 49.4143H27.7124Z" fill="#5CA89F"/>
<path d="M31.6138 60.2708C30.6592 56.738 29.717 53.1315 28.7791 49.4103H30.0242C30.4724 51.2197 30.9221 53.0073 31.3731 54.773C31.7466 56.2263 32.0703 57.5199 32.3028 58.7725H32.3318C32.5974 57.5035 32.9834 56.1239 33.3943 54.7075C33.9173 52.9227 34.4375 51.1556 34.9549 49.4062H36.2C35.1085 52.9268 34.0086 56.5005 32.8797 60.1725L31.6138 60.2708Z" fill="#5CA89F"/>
<path d="M41.828 54.9449C40.6576 54.9449 39.4871 54.9531 38.3167 54.9695V58.752C39.6227 58.7138 40.9329 58.7001 42.2472 58.711V59.845C40.5455 59.845 38.8438 59.8723 37.1422 59.9269C37.1422 56.42 37.1574 52.9117 37.1878 49.4021H42.0397V50.5319H38.3292C38.3292 51.6236 38.3292 52.7289 38.3292 53.8478C39.4968 53.8314 40.6659 53.8246 41.8363 53.8273L41.828 54.9449Z" fill="#5CA89F"/>
<path d="M43.733 49.5332C44.4644 49.3814 45.2103 49.3086 45.9577 49.3162C47.2028 49.3162 47.9955 49.5823 48.56 50.1882C49.0526 50.7569 49.3104 51.4875 49.2822 52.235C49.2822 53.6514 48.5517 54.5643 47.622 54.9122V54.9613C48.3193 55.2643 48.7384 56.038 48.9626 57.1596C49.1267 58.1692 49.3667 59.1653 49.6806 60.1398L48.4728 60.0579C48.195 59.2191 47.9868 58.3593 47.8503 57.4871C47.5722 56.0093 47.0866 55.4403 46.0282 55.3748L44.9284 55.3502C44.9284 56.8649 44.9284 58.3836 44.9284 59.8983C44.5382 59.8983 44.1481 59.8737 43.7579 59.8696L43.733 49.5332ZM44.9076 54.3105L46.0988 54.3309C46.369 54.3578 46.6419 54.3256 46.898 54.2365C47.1541 54.1475 47.3872 54.0039 47.5806 53.8158C47.774 53.6278 47.923 53.4 48.017 53.1487C48.1109 52.8974 48.1475 52.6287 48.1242 52.3619C48.1242 50.9864 47.2692 50.3806 46.049 50.3642C45.6633 50.3489 45.2775 50.3889 44.9035 50.4829L44.9076 54.3105Z" fill="#5CA89F"/>
<path d="M50.822 58.5391C51.4165 59.0183 52.1355 59.3233 52.8972 59.4192C54.0925 59.5339 54.7815 58.8298 54.769 57.6958C54.769 56.6479 54.2668 56.0052 53.0466 55.3625C51.569 54.6379 50.6518 53.7004 50.6393 52.1776C50.6143 51.7937 50.6708 51.409 50.8054 51.0479C50.94 50.6869 51.1497 50.3576 51.4209 50.0813C51.6922 49.8049 52.019 49.5875 52.3804 49.443C52.7419 49.2986 53.1299 49.2302 53.5197 49.2425C54.2245 49.2185 54.9194 49.4117 55.5078 49.7951C55.4082 50.2045 55.3044 50.5893 55.2007 50.9823C54.7015 50.6291 54.1049 50.4348 53.4907 50.4255C53.2691 50.4083 53.0462 50.438 52.8372 50.5126C52.6281 50.5872 52.4376 50.705 52.2785 50.8581C52.1193 51.0112 51.9952 51.196 51.9143 51.4003C51.8335 51.6046 51.7978 51.8235 51.8098 52.0425C51.8098 53.0618 52.3742 53.5776 53.6235 54.2285C55.155 55.0227 55.9394 56.0174 55.956 57.6876C55.956 59.452 54.9641 60.8193 52.8308 60.5859C51.9897 60.5008 51.1885 60.1893 50.5148 59.6853L50.822 58.5391Z" fill="#5CA89F"/>
<path d="M58.6289 49.4226L58.7659 61.1672L57.6038 60.9912C57.5595 57.135 57.5152 53.2774 57.4709 49.4185L58.6289 49.4226Z" fill="#5CA89F"/>
<path d="M62.3768 50.7899L59.6458 50.7285C59.6458 50.2946 59.6458 49.8606 59.6458 49.4226H66.2865V50.8718C65.3734 50.8445 64.4589 50.8199 63.5431 50.7981C63.5846 54.5369 63.6233 58.2744 63.6593 62.0106L62.4889 61.7854C62.4556 58.1257 62.4183 54.4605 62.3768 50.7899Z" fill="#5CA89F"/>
<path d="M69.7272 63.4186C69.7272 61.4428 69.7175 59.4683 69.6981 57.4951C68.7435 54.6746 67.7806 52.0015 66.8177 49.447H68.1334C68.5651 50.6997 68.994 51.9796 69.4201 53.2869C69.7728 54.3635 70.0426 55.2477 70.3249 56.267H70.3498C70.5988 55.3787 70.8976 54.4822 71.238 53.426C71.6668 52.1352 72.0929 50.8157 72.5163 49.4675H73.8361C72.8317 52.333 71.8439 55.0676 70.8603 57.6548C70.8603 59.677 70.8672 61.7007 70.881 63.7256L69.7272 63.4186Z" fill="#5CA89F"/>
</g>
<defs>
<clipPath id="clip0_95_1200">
<rect width="82" height="64" fill="white"/>
</clipPath>
</defs>
</svg>
