<svg width="63" height="64" viewBox="0 0 63 64" fill="none" xmlns="http://www.w3.org/2000/svg">
<g clip-path="url(#clip0_95_1300)">
<path d="M31.5 1.90454L48.4902 6.58639C48.6862 7.34307 49.0302 8.05293 49.5022 8.67455C49.9741 9.29616 50.5646 9.81707 51.2391 10.2069V37.0849C51.2391 41.1529 48.2694 45.5389 42.882 49.4885C37.4946 53.4381 32.8653 54.9433 31.5 55.3316C30.1311 54.9396 25.476 53.4122 20.1181 49.4885C14.7601 45.5648 11.7757 41.1344 11.7757 37.0849V10.2069C12.4498 9.81702 13.0397 9.29605 13.5111 8.6744C13.9824 8.05276 14.3258 7.34292 14.521 6.58639L31.5 1.90454ZM31.5 0L12.8797 5.13302C12.8792 6.01219 12.5906 6.86673 12.0585 7.56458C11.5264 8.26243 10.7804 8.76474 9.93579 8.99388V37.0997C9.93579 41.0346 12.2505 46.0086 19.0399 50.9862C25.8293 55.9639 31.5 57.2324 31.5 57.2324C31.5 57.2324 37.1708 55.9492 43.9602 50.9715C50.7496 45.9938 53.068 41.0198 53.068 37.0849V8.97908C52.2234 8.74994 51.4774 8.24764 50.9453 7.54979C50.4131 6.85194 50.1245 5.9974 50.1241 5.11823L31.5 0Z" fill="#BBC1C0"/>
<path d="M56.9098 41.6743C58.724 42.9206 58.7166 44.263 57.5575 46.4819C56.3836 45.8163 55.9309 45.1284 55.8353 44.6033C55.7506 44.2002 55.9236 43.9302 56.1665 43.5234C56.5401 42.966 56.7933 42.3361 56.9098 41.6743ZM55.2833 44.8732C56.8436 46.6594 56.5492 47.9094 55.0735 49.9397C53.9696 49.0521 53.5795 48.2607 53.5537 47.6986C53.5537 47.2696 53.7451 47.0108 54.091 46.6446C54.5891 46.1294 54.9928 45.5297 55.2833 44.8732ZM50.1608 50.6201C51.3568 53.0128 50.8085 54.1482 48.9318 55.816C47.9161 54.5624 47.6769 53.6341 47.7542 53.0387C47.8131 52.5802 48.0854 52.3805 48.5122 52.092C48.722 51.9478 48.9759 51.7814 49.2482 51.5521C49.583 51.2733 49.8888 50.961 50.1608 50.6201ZM52.9429 47.8835C54.3007 50.01 53.8592 51.2118 52.1627 53.0609C51.0882 51.9811 50.7791 51.1194 50.8122 50.5351C50.849 49.629 51.8389 49.6105 52.9429 47.8835ZM57.9549 37.8542C59.758 38.9303 59.9126 40.1618 59.3312 42.61C58.1168 42.2845 57.5575 41.7483 57.3624 41.238C57.2152 40.8682 57.3219 40.5316 57.4839 40.0398C57.745 39.3379 57.9036 38.6017 57.9549 37.8542ZM60.6633 35.0843C59.8574 34.1338 59.5004 33.4349 59.5336 32.7064C59.5667 31.9778 59.9715 31.2271 60.575 30.1694C61.4177 31.0533 61.885 31.8854 61.9292 32.6768C61.9733 33.4682 61.598 34.2485 60.6633 35.0843ZM58.5106 33.9304C60.2916 34.7514 60.5676 35.957 60.2843 38.4533C59.1214 38.3016 58.5474 37.832 58.3229 37.3438C57.9696 36.6449 58.621 36.0014 58.5106 33.9304ZM62.9853 34.0784C62.7167 36.4267 63.0479 37.2847 62.518 37.9762C62.15 38.4274 61.4508 38.7158 60.31 38.457C60.8363 35.9866 61.1454 34.892 63 34.0784H62.9853ZM57.4986 51.6667C55.7653 53.3346 55.6365 54.3257 54.6761 54.4625C54.0395 54.5328 53.1784 54.211 52.1701 53.0683C54.0947 51.4042 55.0625 50.8198 57.5133 51.6667H57.4986ZM61.885 43.1388C61.4066 44.3592 61.149 45.1802 60.9135 45.7756C60.678 46.371 60.5014 46.7482 60.0856 46.9775C59.5225 47.2659 58.6872 47.2363 57.5648 46.493C58.275 45.4464 58.7534 44.6698 59.3753 44.1447C60.0961 43.5603 60.9764 43.2096 61.8997 43.1388H61.885ZM60.0451 47.7134C59.5217 48.4324 59.0412 49.182 58.6062 49.9582C58.2898 50.4759 58.0616 50.8198 57.5979 50.9419C56.9908 51.112 56.126 50.9234 55.0662 49.9582C56.7994 48.0758 57.6421 47.3362 60.0745 47.706L60.0451 47.7134ZM47.1028 53.0498C47.6254 54.3738 47.71 55.2909 47.4267 56.0786C47.1433 56.8663 46.4773 57.5098 45.4542 58.242C44.5306 56.8145 44.3503 55.8345 44.4864 55.2206C44.5821 54.7584 44.8544 54.5956 45.3181 54.3479C45.9875 54.0293 46.5926 53.5893 47.1028 53.0498ZM62.7498 38.6271C62.5466 39.4607 62.3906 40.3052 62.2825 41.1566C62.2015 41.7446 62.1095 42.1329 61.7746 42.4325C61.3367 42.8282 60.5639 43.0242 59.3717 42.6026C60.1739 40.2284 60.6412 39.2003 62.7314 38.6419L62.7498 38.6271ZM54.5142 55.1763C54.109 55.4782 53.7242 55.8068 53.3624 56.16C53.0533 56.4484 52.8177 56.7073 52.6264 56.9255C52.2106 57.3582 51.9088 57.617 51.4157 57.617C50.7607 57.617 49.8996 57.1511 48.9612 55.8419C51.033 54.4144 52.0744 53.9411 54.5142 55.1763ZM47.5224 61.1192C46.7285 61.4832 45.9738 61.928 45.2702 62.4468C44.7624 62.787 44.4128 62.9941 43.9013 62.8499C43.3898 62.7057 42.8231 62.273 42.2674 61.3706C42.2262 61.2775 42.1651 61.1946 42.0886 61.1277C42.0121 61.0608 41.9219 61.0116 41.8245 60.9834C41.727 60.9552 41.6246 60.9488 41.5244 60.9646C41.4242 60.9803 41.3286 61.018 41.2444 61.0748C41.0604 61.1598 40.0742 61.685 38.904 62.1842C37.8273 62.6618 36.7071 63.0334 35.559 63.2937C34.7604 63.4527 34.2968 63.3417 34.0429 63.1864C33.9513 63.134 33.8742 63.0597 33.8183 62.9699C33.7625 62.8802 33.7296 62.778 33.7227 62.6724C33.7118 62.5672 33.7243 62.4608 33.7593 62.361C33.7943 62.2613 33.8509 62.1705 33.9251 62.0955C34.1275 61.881 34.5102 61.7257 35.2462 61.574C35.9822 61.4224 37.2996 61.2449 38.4771 60.9343C39.2847 60.731 40.0807 60.4841 40.8617 60.1946C40.9548 60.1715 41.0417 60.1279 41.116 60.067C41.1903 60.0061 41.2503 59.9293 41.2915 59.8423C41.3327 59.7552 41.3541 59.6601 41.3542 59.5637C41.3544 59.4673 41.3332 59.3721 41.2923 59.2849C40.9243 58.2346 40.8912 57.495 41.0273 57.0253C41.1635 56.5557 41.4579 56.4262 41.9289 56.2487C42.6195 56.0095 43.2579 55.6391 43.8093 55.1578C44.5821 57.7797 44.008 58.8559 42.2012 59.9949L42.2748 60.043V60.117C44.2509 59.3514 45.3733 59.3256 47.504 61.1192H47.5224ZM51.1507 58.3197C50.412 58.7664 49.7182 59.2841 49.079 59.8655C48.6226 60.2612 48.2915 60.4868 47.7873 60.4202C47.1249 60.3315 46.2822 59.7472 45.4395 58.2716C46.5435 57.6836 47.3788 57.2842 48.2326 57.2509C49.0863 57.2176 49.9732 57.5357 51.1507 58.3197Z" fill="#C97F32"/>
<path d="M1.10397 43.1389C2.02321 43.2132 2.89894 43.5637 3.61735 44.1448C4.23925 44.6699 4.72132 45.4466 5.42786 46.4931C4.30181 47.2328 3.46647 47.266 2.90345 46.9776C2.4913 46.7483 2.29626 46.3785 2.07547 45.7757C1.85467 45.1729 1.57868 44.3778 1.10397 43.1389ZM2.94393 47.7061C5.37634 47.3363 6.21536 48.0759 7.91916 49.9509C6.85199 50.9161 5.99457 51.1047 5.39106 50.9346C4.92372 50.8126 4.69924 50.4686 4.37909 49.9509C3.94429 49.1754 3.4651 48.4259 2.94393 47.7061ZM8.48954 55.1764C10.9256 53.9412 11.9707 54.4145 14.0499 55.842C13.1115 57.1512 12.2541 57.6023 11.5954 57.6171C11.1023 57.6171 10.8042 57.3583 10.3884 56.9256C10.1823 56.7074 9.94679 56.4485 9.6524 56.1601C9.28615 55.8075 8.89774 55.4789 8.48954 55.1764ZM5.48674 51.6668C7.93756 50.82 8.90537 51.4191 10.8189 53.0684C9.81063 54.2111 8.94953 54.5477 8.30923 54.4626C7.35981 54.3258 7.21998 53.3347 5.48674 51.6668ZM0.272313 38.642C2.3625 39.1856 2.82617 40.2285 3.64679 42.6175C2.4545 43.0391 1.68172 42.8431 1.24381 42.4511C0.908937 42.1478 0.816939 41.7595 0.735981 41.1715C0.629548 40.3201 0.474739 39.4756 0.272313 38.642ZM2.24842 35.0881C1.31373 34.2523 0.934696 33.472 0.975175 32.6806C1.01565 31.8892 1.47196 31.0645 2.3441 30.1584C2.93289 31.2235 3.34872 31.9631 3.37447 32.7028C3.40023 33.4424 3.05432 34.1376 2.24842 35.0881ZM0 34.0785C1.83995 34.8921 2.16746 35.9867 2.68265 38.4571C1.53452 38.7048 0.842699 38.4275 0.474708 37.9763C-0.0588785 37.2848 0.272313 36.4268 0 34.0785ZM4.47845 33.9305C4.38277 36.0015 5.03411 36.645 4.66244 37.3624C4.43797 37.8321 3.86758 38.3017 2.70473 38.4719C2.4177 35.9571 2.69737 34.7626 4.47845 33.9305ZM10.0609 47.8836C11.1648 49.6107 12.1511 49.6292 12.1915 50.5204C12.221 51.1047 11.9155 51.9701 10.841 53.0462C9.14457 51.1935 8.6993 50.0101 10.0609 47.8836ZM6.09393 41.6745C6.20719 42.3359 6.45797 42.966 6.82991 43.5235C7.07278 43.9303 7.24574 44.2003 7.1611 44.6034C7.06542 45.1285 6.61279 45.8164 5.44258 46.482C4.28341 44.2521 4.27605 42.9207 6.09393 41.6745ZM7.7278 44.8733C8.0186 45.5287 8.42082 46.1282 8.91641 46.6448C9.26233 47.0146 9.46104 47.2697 9.45368 47.6987C9.4316 48.2608 9.05993 49.0522 7.93388 49.9398C6.45088 47.9095 6.15648 46.6595 7.7278 44.8733ZM11.8346 58.3198C13.0269 57.5358 13.9064 57.2103 14.7564 57.251C15.6065 57.2917 16.4345 57.6837 17.5495 58.2717C16.7031 59.751 15.8604 60.3316 15.198 60.4203C14.6939 60.4869 14.3627 60.2613 13.91 59.8656C13.2687 59.2852 12.5737 58.7676 11.8346 58.3198ZM5.04883 37.8543C5.09622 38.6024 5.25499 39.3391 5.51986 40.0399C5.6781 40.5317 5.78481 40.8535 5.6413 41.2381C5.44258 41.7484 4.88324 42.2846 3.67255 42.6101C3.09112 40.1619 3.242 38.9304 5.04883 37.8543ZM12.8429 50.6203C13.1106 50.9614 13.4127 51.2737 13.7445 51.5522C14.0278 51.7815 14.278 51.9479 14.4804 52.0921C14.9073 52.3806 15.1796 52.5803 15.2385 53.0388C15.3195 53.6342 15.0766 54.5625 14.0646 55.8161C12.1952 54.1483 11.6432 53.0129 12.8429 50.6203ZM19.2091 55.1468C19.7607 55.628 20.399 55.9984 21.0895 56.2377C21.5606 56.4152 21.855 56.5595 21.9911 57.0143C22.1273 57.4692 22.1052 58.1793 21.7593 59.1888C21.7128 59.2771 21.6868 59.3748 21.6834 59.4746C21.68 59.5744 21.6993 59.6736 21.7397 59.7648C21.7801 59.8561 21.8407 59.9368 21.9167 60.0011C21.9928 60.0653 22.0824 60.1113 22.1788 60.1356C22.9593 60.4229 23.754 60.6698 24.5597 60.8752C25.7336 61.1821 27.0547 61.3892 27.7833 61.5076C28.5119 61.6259 28.8873 61.8145 29.1007 62.029C29.1749 62.1041 29.2315 62.1948 29.2665 62.2946C29.3015 62.3943 29.314 62.5007 29.3031 62.6059C29.2956 62.7114 29.2625 62.8134 29.2066 62.903C29.1508 62.9926 29.074 63.0671 28.9829 63.12C28.7327 63.2716 28.269 63.3862 27.4742 63.2272C26.3285 62.9717 25.2106 62.6038 24.1365 62.1289C22.9663 61.6222 21.9801 61.1008 21.7961 61.0194C21.7153 60.9643 21.6237 60.9272 21.5275 60.9106C21.4312 60.8939 21.3326 60.8982 21.2381 60.9231C21.1437 60.948 21.0556 60.9929 20.9798 61.0548C20.9041 61.1167 20.8423 61.1941 20.7988 61.282C20.2395 62.2435 19.6397 62.6984 19.1355 62.8685C18.6314 63.0386 18.2707 62.8056 17.7666 62.4654C17.0622 61.946 16.3062 61.5011 15.5108 61.1378C17.6452 59.3405 18.7675 59.3701 20.7731 60.1245V60.0394L20.8356 60.0024C19.0104 58.8486 18.44 57.7651 19.2091 55.1468ZM15.9193 53.0499C16.4278 53.5936 17.0316 54.0386 17.7004 54.3628C18.1493 54.6105 18.4363 54.7733 18.5357 55.2355C18.6534 55.8494 18.4915 56.8294 17.5642 58.2569C16.5412 57.5173 15.8825 56.8775 15.5918 56.0935C15.3011 55.3095 15.393 54.3628 15.9193 53.0499Z" fill="#C97F32"/>
<path d="M22.7382 29.6517L24.6922 29.0082L23.3785 27.6917L22.7382 29.6517ZM39.7172 12.5922C39.5458 12.4155 39.341 12.2751 39.1147 12.1792C38.8884 12.0833 38.6454 12.0339 38.3998 12.0339C38.1543 12.0339 37.9112 12.0833 37.685 12.1792C37.4587 12.2751 37.2538 12.4155 37.0824 12.5922L36.5341 13.1432L39.1689 15.7911L39.7172 15.24C39.8904 15.0662 40.0277 14.8599 40.1214 14.6327C40.2151 14.4055 40.2634 14.162 40.2634 13.9161C40.2634 13.6702 40.2151 13.4267 40.1214 13.1995C40.0277 12.9723 39.8904 12.766 39.7172 12.5922ZM24.0188 25.7169L26.6352 28.3462L38.525 16.3976L35.8901 13.7497L24.0188 25.7169Z" fill="#C97F32"/>
<path d="M27.0916 13.7673L24.4557 16.4163L30.2323 22.2215L32.8682 19.5725L27.0916 13.7673Z" fill="#C97F32"/>
<path d="M25.9212 12.5923C25.5719 12.2408 25.0982 12.0427 24.6038 12.0413C24.2354 12.042 23.8754 12.1524 23.5692 12.3584C23.2631 12.5645 23.0245 12.8571 22.8836 13.1992C22.7427 13.5413 22.7058 13.9178 22.7775 14.281C22.8492 14.6442 23.0263 14.9779 23.2864 15.2401L23.8347 15.7912L26.4696 13.1433L25.9212 12.5923Z" fill="#C97F32"/>
<path d="M38.9813 25.7169L34.7531 21.4714L32.1219 24.1193L36.3465 28.3648H36.3502L38.9666 25.7354L38.9813 25.7169Z" fill="#C97F32"/>
<path d="M39.6216 27.6917L38.3115 29.0082L40.2619 29.6517L39.6216 27.6917Z" fill="#C97F32"/>
<path d="M31.5 4.48595L46.6097 8.64635C47.1165 9.7361 47.8507 10.7035 48.7625 11.4828V32.6991H14.2376V11.4828C15.1504 10.7036 15.8859 9.73627 16.394 8.64635L31.5 4.48595ZM31.5 3.92383L16.0039 8.19148C15.4985 9.37987 14.7069 10.4232 13.7003 11.2277V33.239H49.3108V11.2277C48.3053 10.4222 47.5139 9.37908 47.0072 8.19148L31.5 3.92383Z" fill="#BBC1C0"/>
<path d="M13.7003 33.2388V37.0848C13.7003 39.0596 14.6829 43.0943 21.2588 47.913C24.3722 50.2367 27.8293 52.0549 31.5037 53.3012C35.1761 52.0553 38.6307 50.2371 41.7412 47.913C48.3209 43.1054 49.2997 39.0596 49.2997 37.0848V33.2388H13.7003Z" fill="#BBC1C0"/>
<path d="M21.5227 38.4127V36.478H22.0256V39.7507H21.5227V39.1968H21.4886C21.4119 39.3629 21.2926 39.5043 21.1307 39.6208C20.9688 39.7358 20.7642 39.7933 20.517 39.7933C20.3125 39.7933 20.1307 39.7486 19.9716 39.6591C19.8125 39.5682 19.6875 39.4318 19.5966 39.25C19.5057 39.0668 19.4602 38.836 19.4602 38.5576V36.478H19.9631V38.5235C19.9631 38.7621 20.0298 38.9524 20.1634 39.0945C20.2983 39.2365 20.4702 39.3076 20.679 39.3076C20.804 39.3076 20.9311 39.2756 21.0604 39.2117C21.1911 39.1477 21.3004 39.0497 21.3885 38.9176C21.478 38.7855 21.5227 38.6172 21.5227 38.4127ZM23.4494 37.782V39.7507H22.9466V36.478H23.4324V36.9894H23.475C23.5517 36.8232 23.6681 36.6897 23.8244 36.5888C23.9806 36.4865 24.1824 36.4354 24.4295 36.4354C24.6511 36.4354 24.845 36.4808 25.0112 36.5718C25.1774 36.6612 25.3066 36.7976 25.399 36.9808C25.4913 37.1627 25.5375 37.3928 25.5375 37.6712V39.7507H25.0346V37.7053C25.0346 37.4482 24.9679 37.2479 24.8343 37.1044C24.7008 36.9595 24.5176 36.8871 24.2846 36.8871C24.1241 36.8871 23.9806 36.9219 23.8542 36.9915C23.7292 37.0611 23.6305 37.1627 23.5581 37.2962C23.4856 37.4297 23.4494 37.5916 23.4494 37.782ZM26.4563 39.7507V36.478H26.9592V39.7507H26.4563ZM26.712 35.9326C26.614 35.9326 26.5295 35.8992 26.4585 35.8324C26.3888 35.7656 26.354 35.6854 26.354 35.5916C26.354 35.4979 26.3888 35.4176 26.4585 35.3509C26.5295 35.2841 26.614 35.2507 26.712 35.2507C26.81 35.2507 26.8938 35.2841 26.9634 35.3509C27.0344 35.4176 27.07 35.4979 27.07 35.5916C27.07 35.6854 27.0344 35.7656 26.9634 35.8324C26.8938 35.8992 26.81 35.9326 26.712 35.9326ZM30.5563 36.478L29.3461 39.7507H28.8347L27.6245 36.478H28.1699L29.0733 39.086H29.1074L30.0108 36.478H30.5563ZM32.475 39.8189C32.1596 39.8189 31.8876 39.7493 31.6589 39.6101C31.4316 39.4695 31.2562 39.2735 31.1326 39.022C31.0105 38.7692 30.9494 38.4752 30.9494 38.1399C30.9494 37.8047 31.0105 37.5093 31.1326 37.2536C31.2562 36.9965 31.4281 36.7962 31.6483 36.6527C31.8699 36.5078 32.1284 36.4354 32.4238 36.4354C32.5943 36.4354 32.7626 36.4638 32.9288 36.5206C33.095 36.5774 33.2463 36.6698 33.3826 36.7976C33.519 36.924 33.6277 37.0916 33.7086 37.3004C33.7896 37.5093 33.8301 37.7664 33.8301 38.0718V38.2848H31.3074V37.8502H33.3187C33.3187 37.6655 33.2818 37.5007 33.2079 37.3558C33.1355 37.211 33.0318 37.0966 32.8968 37.0128C32.7633 36.929 32.6056 36.8871 32.4238 36.8871C32.2235 36.8871 32.0502 36.9368 31.9039 37.0362C31.7591 37.1343 31.6475 37.2621 31.5694 37.4198C31.4913 37.5774 31.4522 37.7465 31.4522 37.9269V38.2166C31.4522 38.4638 31.4949 38.6733 31.5801 38.8452C31.6667 39.0156 31.7868 39.1456 31.9402 39.2351C32.0936 39.3232 32.2718 39.3672 32.475 39.3672C32.6071 39.3672 32.7264 39.3487 32.8329 39.3118C32.9409 39.2735 33.0339 39.2166 33.112 39.1414C33.1902 39.0647 33.2505 38.9695 33.2931 38.8558L33.7789 38.9922C33.7278 39.157 33.6419 39.3019 33.5211 39.4269C33.4004 39.5504 33.2512 39.647 33.0737 39.7166C32.8961 39.7848 32.6966 39.8189 32.475 39.8189ZM34.595 39.7507V36.478H35.0808V36.9723H35.1149C35.1745 36.8104 35.2825 36.679 35.4387 36.5781C35.595 36.4773 35.7711 36.4269 35.9672 36.4269C36.0041 36.4269 36.0502 36.4276 36.1056 36.429C36.161 36.4304 36.2029 36.4326 36.2314 36.4354V36.9468C36.2143 36.9425 36.1752 36.9361 36.1142 36.9276C36.0545 36.9176 35.9913 36.9127 35.9245 36.9127C35.7654 36.9127 35.6234 36.946 35.4984 37.0128C35.3748 37.0781 35.2768 37.1691 35.2044 37.2855C35.1333 37.4006 35.0978 37.532 35.0978 37.6797V39.7507H34.595ZM39.1456 37.211L38.6939 37.3388C38.6655 37.2635 38.6236 37.1904 38.5682 37.1193C38.5142 37.0469 38.4403 36.9872 38.3466 36.9404C38.2528 36.8935 38.1328 36.8701 37.9865 36.8701C37.7862 36.8701 37.6193 36.9162 37.4858 37.0085C37.3537 37.0995 37.2876 37.2152 37.2876 37.3558C37.2876 37.4808 37.3331 37.5796 37.424 37.652C37.5149 37.7245 37.657 37.7848 37.8501 37.8331L38.3359 37.9524C38.6286 38.0235 38.8466 38.1321 38.9901 38.2784C39.1335 38.4233 39.2053 38.6101 39.2053 38.8388C39.2053 39.0263 39.1513 39.1939 39.0433 39.3416C38.9368 39.4894 38.7876 39.6058 38.5959 39.6911C38.4041 39.7763 38.1811 39.8189 37.9268 39.8189C37.593 39.8189 37.3168 39.7465 37.098 39.6016C36.8793 39.4567 36.7408 39.2451 36.6825 38.9666L37.1598 38.8473C37.2053 39.0235 37.2912 39.1556 37.4176 39.2436C37.5455 39.3317 37.7124 39.3757 37.9183 39.3757C38.1527 39.3757 38.3388 39.326 38.4766 39.2266C38.6158 39.1257 38.6854 39.005 38.6854 38.8644C38.6854 38.7507 38.6456 38.6556 38.5661 38.5789C38.4865 38.5007 38.3643 38.4425 38.1996 38.4041L37.6541 38.2763C37.3544 38.2053 37.1342 38.0952 36.9936 37.946C36.8544 37.7955 36.7848 37.6073 36.7848 37.3814C36.7848 37.1968 36.8366 37.0334 36.9403 36.8914C37.0455 36.7493 37.1882 36.6378 37.3686 36.5568C37.5504 36.4759 37.7564 36.4354 37.9865 36.4354C38.3104 36.4354 38.5646 36.5064 38.7493 36.6485C38.9354 36.7905 39.0675 36.978 39.1456 37.211ZM39.9622 39.7507V36.478H40.465V39.7507H39.9622ZM40.2179 35.9326C40.1199 35.9326 40.0353 35.8992 39.9643 35.8324C39.8947 35.7656 39.8599 35.6854 39.8599 35.5916C39.8599 35.4979 39.8947 35.4176 39.9643 35.3509C40.0353 35.2841 40.1199 35.2507 40.2179 35.2507C40.3159 35.2507 40.3997 35.2841 40.4693 35.3509C40.5403 35.4176 40.5758 35.4979 40.5758 35.5916C40.5758 35.6854 40.5403 35.7656 40.4693 35.8324C40.3997 35.8992 40.3159 35.9326 40.2179 35.9326ZM42.8093 36.478V36.9041H41.1133V36.478H42.8093ZM41.6076 35.6939H42.1104V38.8132C42.1104 38.9553 42.131 39.0618 42.1722 39.1328C42.2148 39.2024 42.2688 39.2493 42.3342 39.2735C42.4009 39.2962 42.4712 39.3076 42.5451 39.3076C42.6005 39.3076 42.646 39.3047 42.6815 39.299C42.717 39.2919 42.7454 39.2862 42.7667 39.282L42.869 39.7337C42.8349 39.7465 42.7873 39.7593 42.7262 39.772C42.6651 39.7862 42.5877 39.7933 42.494 39.7933C42.3519 39.7933 42.2127 39.7628 42.0763 39.7017C41.9414 39.6406 41.8292 39.5476 41.7397 39.4226C41.6516 39.2976 41.6076 39.1399 41.6076 38.9496V35.6939ZM43.8896 40.978C43.8043 40.978 43.7283 40.9709 43.6616 40.9567C43.5948 40.9439 43.5487 40.9311 43.5231 40.9183L43.6509 40.4752C43.7731 40.5064 43.881 40.5178 43.9748 40.5093C44.0685 40.5007 44.1516 40.4588 44.2241 40.3835C44.2979 40.3097 44.3654 40.1897 44.4265 40.0235L44.5202 39.7678L43.31 36.478H43.8555L44.7589 39.086H44.793L45.6964 36.478H46.2418L44.8526 40.228C44.7901 40.397 44.7127 40.537 44.6204 40.6477C44.5281 40.76 44.4208 40.8431 44.2987 40.897C44.1779 40.951 44.0415 40.978 43.8896 40.978Z" fill="#0D0D25"/>
<path d="M31.5663 6.46436L32.2213 7.79569L33.6822 8.01018L32.6261 9.04566L32.8726 10.5101L31.5663 9.81857L30.2599 10.5101L30.5101 9.04566L29.4503 8.01018L30.9112 7.79569L31.5663 6.46436Z" fill="#CCCCCC"/>
<path d="M36.3869 7.63672L36.8212 8.52427L37.7927 8.6648L37.0898 9.35266L37.2554 10.329L36.3869 9.8667L35.5148 10.329L35.6841 9.35266L34.9775 8.6648L35.9527 8.52427L36.3869 7.63672Z" fill="#CCCCCC"/>
<path d="M26.7492 7.63672L27.1835 8.52427L28.155 8.6648L27.4521 9.35266L27.6177 10.329L26.7492 9.8667L25.8771 10.329L26.0427 9.35266L25.3398 8.6648L26.3113 8.52427L26.7492 7.63672Z" fill="#CCCCCC"/>
<path d="M29.4007 43.1161L29.1748 43.18C29.1606 43.1424 29.1397 43.1058 29.112 43.0703C29.085 43.0341 29.0481 43.0042 29.0012 42.9808C28.9543 42.9574 28.8943 42.9456 28.8211 42.9456C28.721 42.9456 28.6375 42.9687 28.5708 43.0149C28.5047 43.0603 28.4717 43.1182 28.4717 43.1885C28.4717 43.251 28.4944 43.3004 28.5399 43.3366C28.5853 43.3728 28.6564 43.403 28.753 43.4272L28.9958 43.4868C29.1422 43.5223 29.2512 43.5767 29.3229 43.6498C29.3946 43.7223 29.4305 43.8157 29.4305 43.93C29.4305 44.0238 29.4035 44.1076 29.3495 44.1814C29.2963 44.2553 29.2217 44.3135 29.1258 44.3562C29.0299 44.3988 28.9184 44.4201 28.7913 44.4201C28.6244 44.4201 28.4863 44.3839 28.3769 44.3114C28.2675 44.239 28.1983 44.1331 28.1691 43.9939L28.4078 43.9343C28.4305 44.0223 28.4735 44.0884 28.5367 44.1324C28.6006 44.1765 28.6841 44.1985 28.787 44.1985C28.9042 44.1985 28.9973 44.1736 29.0662 44.1239C29.1358 44.0735 29.1706 44.0131 29.1706 43.9428C29.1706 43.886 29.1507 43.8384 29.1109 43.8C29.0711 43.761 29.0101 43.7319 28.9277 43.7127L28.6549 43.6488C28.5051 43.6133 28.395 43.5582 28.3247 43.4836C28.2551 43.4084 28.2203 43.3143 28.2203 43.2013C28.2203 43.109 28.2462 43.0273 28.2981 42.9563C28.3506 42.8853 28.422 42.8295 28.5122 42.789C28.6031 42.7486 28.7061 42.7283 28.8211 42.7283C28.9831 42.7283 29.1102 42.7638 29.2025 42.8348C29.2956 42.9059 29.3616 42.9996 29.4007 43.1161ZM29.809 44.386V42.7496H30.0604V44.386H29.809ZM29.9368 42.4769C29.8878 42.4769 29.8455 42.4602 29.81 42.4268C29.7752 42.3934 29.7578 42.3533 29.7578 42.3064C29.7578 42.2596 29.7752 42.2194 29.81 42.1861C29.8455 42.1527 29.8878 42.136 29.9368 42.136C29.9858 42.136 30.0277 42.1527 30.0625 42.1861C30.098 42.2194 30.1158 42.2596 30.1158 42.3064C30.1158 42.3533 30.098 42.3934 30.0625 42.4268C30.0277 42.4602 29.9858 42.4769 29.9368 42.4769ZM30.7723 43.4016V44.386H30.5209V42.7496H30.7638V43.0053H30.7851C30.8234 42.9222 30.8817 42.8554 30.9598 42.805C31.0379 42.7539 31.1388 42.7283 31.2624 42.7283C31.3732 42.7283 31.4701 42.751 31.5532 42.7965C31.6363 42.8412 31.7009 42.9094 31.7471 43.001C31.7933 43.092 31.8163 43.207 31.8163 43.3462V44.386H31.5649V43.3633C31.5649 43.2347 31.5315 43.1346 31.4648 43.0628C31.398 42.9904 31.3064 42.9542 31.1899 42.9542C31.1097 42.9542 31.0379 42.9716 30.9747 43.0064C30.9122 43.0412 30.8629 43.092 30.8266 43.1587C30.7904 43.2255 30.7723 43.3064 30.7723 43.4016ZM32.9405 44.4201C32.7871 44.4201 32.655 44.3839 32.5442 44.3114C32.4334 44.239 32.3482 44.1392 32.2886 44.0121C32.2289 43.8849 32.1991 43.7397 32.1991 43.5763C32.1991 43.4101 32.2296 43.2635 32.2907 43.1363C32.3525 43.0085 32.4384 42.9087 32.5485 42.837C32.6593 42.7645 32.7886 42.7283 32.9363 42.7283C33.0513 42.7283 33.155 42.7496 33.2474 42.7922C33.3397 42.8348 33.4153 42.8945 33.4743 42.9712C33.5332 43.0479 33.5698 43.1374 33.584 43.2397H33.3326C33.3134 43.1651 33.2708 43.0991 33.2047 43.0415C33.1394 42.9833 33.0513 42.9542 32.9405 42.9542C32.8425 42.9542 32.7566 42.9797 32.6827 43.0309C32.6096 43.0813 32.5524 43.1527 32.5112 43.245C32.4707 43.3366 32.4505 43.4442 32.4505 43.5678C32.4505 43.6942 32.4704 43.8043 32.5101 43.8981C32.5506 43.9918 32.6074 44.0646 32.6806 44.1165C32.7545 44.1683 32.8411 44.1942 32.9405 44.1942C33.0059 44.1942 33.0652 44.1829 33.1185 44.1601C33.1717 44.1374 33.2168 44.1047 33.2538 44.0621C33.2907 44.0195 33.317 43.9684 33.3326 43.9087H33.584C33.5698 44.0053 33.5346 44.0923 33.4785 44.1697C33.4231 44.2464 33.3496 44.3075 33.258 44.353C33.1671 44.3977 33.0613 44.4201 32.9405 44.4201ZM34.6376 44.4201C34.48 44.4201 34.3439 44.3853 34.2296 44.3157C34.116 44.2454 34.0283 44.1473 33.9665 44.0216C33.9054 43.8952 33.8748 43.7482 33.8748 43.5806C33.8748 43.413 33.9054 43.2652 33.9665 43.1374C34.0283 43.0089 34.1142 42.9087 34.2243 42.837C34.3351 42.7645 34.4643 42.7283 34.6121 42.7283C34.6973 42.7283 34.7814 42.7425 34.8645 42.7709C34.9476 42.7993 35.0233 42.8455 35.0915 42.9094C35.1596 42.9726 35.214 43.0564 35.2545 43.1608C35.2949 43.2652 35.3152 43.3938 35.3152 43.5465V43.653H34.0538V43.4357H35.0595C35.0595 43.3434 35.041 43.261 35.0041 43.1885C34.9679 43.1161 34.916 43.0589 34.8486 43.017C34.7818 42.9751 34.703 42.9542 34.6121 42.9542C34.5119 42.9542 34.4253 42.979 34.3521 43.0287C34.2797 43.0777 34.2239 43.1417 34.1849 43.2205C34.1458 43.2993 34.1263 43.3839 34.1263 43.4741V43.6189C34.1263 43.7425 34.1476 43.8473 34.1902 43.9332C34.2335 44.0184 34.2935 44.0834 34.3702 44.1282C34.4469 44.1722 34.5361 44.1942 34.6376 44.1942C34.7037 44.1942 34.7633 44.185 34.8166 44.1665C34.8706 44.1473 34.9171 44.1189 34.9562 44.0813C34.9952 44.0429 35.0254 43.9954 35.0467 43.9385L35.2896 44.0067C35.264 44.0891 35.2211 44.1616 35.1607 44.2241C35.1003 44.2858 35.0258 44.3341 34.937 44.3689C34.8482 44.403 34.7484 44.4201 34.6376 44.4201Z" fill="#C97F32"/>
<path d="M28.0669 47.1127V50H27.7172V47.4793H27.7003L26.9954 47.9473V47.5921L27.7172 47.1127H28.0669ZM29.8164 47.0733C29.9349 47.0742 30.0533 47.0967 30.1717 47.1409C30.2901 47.1851 30.3982 47.2584 30.496 47.3609C30.5937 47.4624 30.6722 47.601 30.7314 47.7767C30.7906 47.9525 30.8202 48.1729 30.8202 48.4379C30.8202 48.6945 30.7958 48.9224 30.7469 49.1217C30.699 49.32 30.6294 49.4873 30.5382 49.6236C30.448 49.7599 30.3381 49.8632 30.2084 49.9337C30.0796 50.0042 29.9339 50.0395 29.7713 50.0395C29.6097 50.0395 29.4654 50.0075 29.3385 49.9436C29.2126 49.8788 29.1092 49.789 29.0283 49.6743C28.9485 49.5587 28.8972 49.4248 28.8747 49.2725H29.2187C29.2497 49.4051 29.3112 49.5146 29.4034 49.601C29.4964 49.6866 29.6191 49.7293 29.7713 49.7293C29.9941 49.7293 30.1698 49.632 30.2986 49.4375C30.4283 49.2429 30.4931 48.968 30.4931 48.6128H30.4706C30.4179 48.6917 30.3554 48.7598 30.2831 48.8172C30.2107 48.8745 30.1303 48.9187 30.042 48.9497C29.9536 48.9807 29.8597 48.9962 29.76 48.9962C29.5946 48.9962 29.4428 48.9553 29.3047 48.8736C29.1674 48.7909 29.0575 48.6776 28.9748 48.5338C28.893 48.3891 28.8521 48.2237 28.8521 48.0376C28.8521 47.8609 28.8916 47.6992 28.9705 47.5526C29.0504 47.405 29.1623 47.2875 29.3061 47.2001C29.4508 47.1127 29.6209 47.0704 29.8164 47.0733ZM29.8164 47.3834C29.698 47.3834 29.5913 47.413 29.4964 47.4722C29.4024 47.5305 29.3277 47.6094 29.2722 47.7091C29.2177 47.8078 29.1905 47.9173 29.1905 48.0376C29.1905 48.1579 29.2168 48.2674 29.2694 48.366C29.323 48.4638 29.3958 48.5418 29.4879 48.6001C29.581 48.6574 29.6867 48.6861 29.8051 48.6861C29.8944 48.6861 29.9776 48.6687 30.0547 48.6339C30.1318 48.5982 30.199 48.5498 30.2563 48.4887C30.3146 48.4267 30.3601 48.3566 30.393 48.2786C30.4259 48.1997 30.4424 48.1174 30.4424 48.0319C30.4424 47.9191 30.4151 47.8134 30.3606 47.7147C30.307 47.616 30.2328 47.5361 30.1379 47.475C30.0439 47.414 29.9367 47.3834 29.8164 47.3834ZM32.2994 50.0395C32.1058 50.0395 31.9348 50.0052 31.7863 49.9366C31.6387 49.867 31.5236 49.7716 31.4409 49.6504C31.3582 49.5282 31.3173 49.3891 31.3182 49.2331C31.3173 49.1109 31.3412 48.9981 31.3901 48.8947C31.439 48.7904 31.5057 48.7035 31.5903 48.6339C31.6758 48.5634 31.7712 48.5188 31.8765 48.5V48.4831C31.7383 48.4473 31.6284 48.3698 31.5466 48.2504C31.4648 48.1301 31.4244 47.9934 31.4254 47.8402C31.4244 47.6936 31.4615 47.5625 31.5367 47.4469C31.6119 47.3312 31.7153 47.2401 31.8469 47.1733C31.9794 47.1066 32.1303 47.0733 32.2994 47.0733C32.4667 47.0733 32.6162 47.1066 32.7478 47.1733C32.8793 47.2401 32.9827 47.3312 33.0579 47.4469C33.134 47.5625 33.1726 47.6936 33.1735 47.8402C33.1726 47.9934 33.1308 48.1301 33.048 48.2504C32.9663 48.3698 32.8577 48.4473 32.7224 48.4831V48.5C32.8267 48.5188 32.9207 48.5634 33.0043 48.6339C33.088 48.7035 33.1547 48.7904 33.2045 48.8947C33.2543 48.9981 33.2797 49.1109 33.2807 49.2331C33.2797 49.3891 33.2374 49.5282 33.1538 49.6504C33.0711 49.7716 32.9559 49.867 32.8084 49.9366C32.6618 50.0052 32.4921 50.0395 32.2994 50.0395ZM32.2994 49.7293C32.4301 49.7293 32.5429 49.7082 32.6378 49.6659C32.7327 49.6236 32.806 49.5639 32.8577 49.4868C32.9094 49.4098 32.9357 49.3195 32.9367 49.2162C32.9357 49.1071 32.9075 49.0108 32.8521 48.9271C32.7966 48.8435 32.721 48.7777 32.6251 48.7298C32.5302 48.6818 32.4216 48.6579 32.2994 48.6579C32.1763 48.6579 32.0664 48.6818 31.9695 48.7298C31.8737 48.7777 31.798 48.8435 31.7426 48.9271C31.6881 49.0108 31.6613 49.1071 31.6622 49.2162C31.6613 49.3195 31.6862 49.4098 31.7369 49.4868C31.7886 49.5639 31.8624 49.6236 31.9583 49.6659C32.0541 49.7082 32.1679 49.7293 32.2994 49.7293ZM32.2994 48.359C32.4028 48.359 32.4945 48.3383 32.5744 48.297C32.6552 48.2556 32.7186 48.1978 32.7647 48.1236C32.8107 48.0493 32.8342 47.9624 32.8352 47.8627C32.8342 47.765 32.8112 47.6799 32.7661 47.6076C32.721 47.5343 32.6585 47.4779 32.5786 47.4384C32.4987 47.398 32.4056 47.3778 32.2994 47.3778C32.1914 47.3778 32.0969 47.398 32.0161 47.4384C31.9352 47.4779 31.8727 47.5343 31.8286 47.6076C31.7844 47.6799 31.7628 47.765 31.7637 47.8627C31.7628 47.9624 31.7849 48.0493 31.83 48.1236C31.876 48.1978 31.9395 48.2556 32.0203 48.297C32.1011 48.3383 32.1942 48.359 32.2994 48.359ZM34.7627 50.0395C34.5503 50.0395 34.3694 49.9817 34.2199 49.8661C34.0705 49.7495 33.9563 49.5808 33.8774 49.36C33.7984 49.1381 33.7589 48.8703 33.7589 48.5564C33.7589 48.2443 33.7984 47.9779 33.8774 47.757C33.9572 47.5352 34.0719 47.366 34.2214 47.2495C34.3717 47.132 34.5522 47.0733 34.7627 47.0733C34.9732 47.0733 35.1532 47.132 35.3027 47.2495C35.453 47.366 35.5677 47.5352 35.6467 47.757C35.7265 47.9779 35.7665 48.2443 35.7665 48.5564C35.7665 48.8703 35.727 49.1381 35.6481 49.36C35.5691 49.5808 35.4549 49.7495 35.3055 49.8661C35.156 49.9817 34.9751 50.0395 34.7627 50.0395ZM34.7627 49.7293C34.9732 49.7293 35.1368 49.6278 35.2533 49.4248C35.3699 49.2218 35.4281 48.9323 35.4281 48.5564C35.4281 48.3064 35.4014 48.0935 35.3478 47.9177C35.2951 47.742 35.219 47.608 35.1194 47.5159C35.0207 47.4238 34.9018 47.3778 34.7627 47.3778C34.5541 47.3778 34.391 47.4807 34.2735 47.6865C34.156 47.8914 34.0973 48.1814 34.0973 48.5564C34.0973 48.8064 34.1236 49.0188 34.1762 49.1936C34.2289 49.3684 34.3045 49.5014 34.4032 49.5926C34.5028 49.6837 34.6227 49.7293 34.7627 49.7293Z" fill="#0D0D25"/>
<path d="M37.2112 43.1091L36.6224 43.4826L37.1891 43.8931L41.0457 43.4826L37.2112 43.1091Z" fill="#0D0D25"/>
<path d="M25.7925 43.1091L26.3776 43.4826L25.8109 43.8931L21.958 43.4826L25.7925 43.1091Z" fill="#0D0D25"/>
<path d="M31.5294 64.0001C32.2692 64.0001 32.8689 63.3974 32.8689 62.654C32.8689 61.9105 32.2692 61.3079 31.5294 61.3079C30.7896 61.3079 30.1899 61.9105 30.1899 62.654C30.1899 63.3974 30.7896 64.0001 31.5294 64.0001Z" fill="#BBC1C0"/>
<path d="M47.7431 16.7266L41.6418 22.8581L42.6943 23.912L47.7431 18.8382V16.7266Z" fill="#E6E6E6"/>
<path d="M47.7431 12.3777L39.478 20.6837L40.593 21.8005L47.7431 14.6151V12.3777Z" fill="#E6E6E6"/>
<path d="M47.7431 20.95L43.743 24.9698L44.7955 26.0238L47.7431 23.0616V20.95Z" fill="#E6E6E6"/>
<path d="M47.7431 25.1733L45.8442 27.0816L47.7431 28.9898V25.1733Z" fill="#E6E6E6"/>
<path d="M15.187 16.7266L21.2883 22.8581L20.2358 23.912L15.187 18.8382V16.7266Z" fill="#E6E6E6"/>
<path d="M15.187 12.3777L23.4521 20.6837L22.3371 21.8005L15.187 14.6151V12.3777Z" fill="#E6E6E6"/>
<path d="M15.187 20.95L19.1871 24.9698L18.1346 26.0238L15.187 23.0616V20.95Z" fill="#E6E6E6"/>
<path d="M15.187 25.1733L17.0858 27.0816L15.187 28.9898V25.1733Z" fill="#E6E6E6"/>
</g>
<defs>
<clipPath id="clip0_95_1300">
<rect width="63" height="64" fill="white"/>
</clipPath>
</defs>
</svg>
