<svg width="73" height="64" viewBox="0 0 73 64" fill="none" xmlns="http://www.w3.org/2000/svg">
<g clip-path="url(#clip0_95_1100)">
<path d="M39.5612 57.5572C54.8087 56.2639 66.1217 43.8101 64.8702 29.7408C64.1139 21.3502 59.0359 14.2842 51.8331 10.2209C58.5857 14.2484 63.3351 21.0101 64.0599 29.0158C65.2979 42.7763 54.2145 54.9706 39.3001 56.2281L39.5612 57.5572Z" fill="#BBC1C0"/>
<path d="M58.4552 47.2064C58.4552 47.2064 61.9171 40.8698 56.722 36.3098C56.722 36.3098 52.6119 42.266 58.4552 47.2064Z" fill="#BBC1C0"/>
<path d="M53.6968 50.6387C53.6968 50.6387 56.4654 45.5775 52.3148 41.9304C52.3148 41.9304 49.033 46.6918 53.6968 50.6387Z" fill="#BBC1C0"/>
<path d="M59.4006 47.8821C59.4006 47.8821 67.0266 48.4862 69.7547 42.3107C69.7637 42.3062 62.2862 41.0085 59.4006 47.8821Z" fill="#BBC1C0"/>
<path d="M55.1869 52.9656C55.1869 52.9656 61.7505 56.8723 66.959 52.5494C66.959 52.5494 60.8366 48.0879 55.1869 52.9656Z" fill="#BBC1C0"/>
<path d="M47.1287 57.1453C47.1287 57.1453 53.6923 61.052 58.9009 56.7292C58.9009 56.7292 52.7875 52.2631 47.1287 57.1453Z" fill="#BBC1C0"/>
<path d="M63.5377 41.3801C63.5377 41.3801 70.1778 41.9081 72.5413 36.5337C72.5413 36.5337 66.0452 35.406 63.5377 41.3801Z" fill="#BBC1C0"/>
<path d="M64.9782 35.7372C64.9782 35.7372 71.2402 33.5623 70.8936 27.7986C70.8936 27.7986 64.474 29.3648 64.9782 35.7372Z" fill="#BBC1C0"/>
<path d="M64.276 28.4473C64.276 28.4473 69.6286 25.9547 68.7058 20.8398C68.7058 20.8488 63.1506 22.8223 64.276 28.4473Z" fill="#BBC1C0"/>
<path d="M63.4072 22.4822C63.4072 22.4822 66.7655 17.8998 63.2406 13.8723C63.2406 13.8723 59.4276 18.1191 63.4072 22.4822Z" fill="#BBC1C0"/>
<path d="M58.8334 16.6469C58.8334 16.6469 61.5929 12.8834 58.6983 9.58984C58.6983 9.58984 55.5696 13.0669 58.8334 16.6469Z" fill="#BBC1C0"/>
<path d="M55.7992 11.0441C55.7992 11.0441 55.376 7.38805 51.6935 6.77051C51.6935 6.77051 51.716 10.4266 55.7992 11.0441Z" fill="#BBC1C0"/>
<path d="M62.9975 40.2747C62.9975 40.2747 64.294 34.0098 58.5542 31.2666C58.5542 31.28 56.596 37.366 62.9975 40.2747Z" fill="#BBC1C0"/>
<path d="M64.0869 32.3719C64.0869 32.3719 63.6368 26.7156 58.023 25.5745C58.023 25.5745 57.8385 31.2084 64.0869 32.3719Z" fill="#BBC1C0"/>
<path d="M63.9879 25.1985C63.9879 25.1985 61.917 20.3253 56.5824 20.7504C56.5734 20.7504 58.095 25.7668 63.9879 25.1985Z" fill="#BBC1C0"/>
<path d="M60.6745 19.2423C60.6745 19.2423 57.9735 14.8524 52.918 15.9443C52.918 15.9487 55.1328 20.5445 60.6745 19.2423Z" fill="#BBC1C0"/>
<path d="M56.3349 13.0894C56.3349 13.0894 53.1341 9.73764 48.97 11.5053C49.8432 12.5491 51.0429 13.2723 52.3777 13.5594C53.7125 13.8465 55.1057 13.681 56.3349 13.0894Z" fill="#BBC1C0"/>
<path d="M51.3064 9.21397C51.3064 9.21397 48.1101 5.85774 43.9415 7.62535C44.8136 8.67063 46.013 9.39514 47.3481 9.68312C48.6832 9.97109 50.0768 9.80591 51.3064 9.21397Z" fill="#BBC1C0"/>
<path d="M33.4388 57.5572C18.1913 56.2639 6.87831 43.8101 8.1298 29.7408C8.8861 21.3502 13.9551 14.2842 21.1534 10.2209C14.4008 14.2484 9.6514 21.0101 8.92662 29.0158C7.68863 42.7763 18.772 54.9706 33.6864 56.2281L33.4388 57.5572Z" fill="#BBC1C0"/>
<path d="M14.5494 47.2064C14.5494 47.2064 11.083 40.8698 16.2691 36.3098C16.2691 36.3098 20.3882 42.266 14.5494 47.2064Z" fill="#BBC1C0"/>
<path d="M19.6544 50.9878C19.6544 50.9878 16.8858 45.9266 21.0364 42.2795C21.0364 42.2795 24.3182 47.0409 19.6544 50.9878Z" fill="#BBC1C0"/>
<path d="M13.604 47.8821C13.604 47.8821 5.97347 48.4862 3.2499 42.3107C3.23639 42.3062 10.7138 41.0085 13.604 47.8821Z" fill="#BBC1C0"/>
<path d="M17.8132 52.9656C17.8132 52.9656 11.2496 56.8723 6.04102 52.5494C6.04102 52.5494 12.1589 48.0879 17.8132 52.9656Z" fill="#BBC1C0"/>
<path d="M25.8713 57.1453C25.8713 57.1453 19.3077 61.052 14.0992 56.7292C14.0992 56.7292 20.2171 52.2631 25.8713 57.1453Z" fill="#BBC1C0"/>
<path d="M9.47135 41.3801C9.47135 41.3801 2.83573 41.9081 0.467794 36.5337C0.454289 36.5337 6.95485 35.406 9.47135 41.3801Z" fill="#BBC1C0"/>
<path d="M8.0218 35.7372C8.0218 35.7372 1.75983 33.5623 2.10647 27.7986C2.10647 27.7986 8.526 29.3648 8.0218 35.7372Z" fill="#BBC1C0"/>
<path d="M8.72402 28.4474C8.72402 28.4474 3.37141 25.9548 4.29428 20.8489C4.29428 20.8489 9.84947 22.8223 8.72402 28.4474Z" fill="#BBC1C0"/>
<path d="M9.59742 22.4822C9.59742 22.4822 6.2346 17.8998 9.75949 13.8723C9.75949 13.8723 13.568 18.1191 9.59742 22.4822Z" fill="#BBC1C0"/>
<path d="M14.1667 16.6469C14.1667 16.6469 11.4071 12.8834 14.3017 9.58984C14.3017 9.58984 17.4305 13.0669 14.1667 16.6469Z" fill="#BBC1C0"/>
<path d="M17.2009 11.0441C17.2009 11.0441 17.6241 7.38805 21.3065 6.77051C21.3065 6.77051 21.284 10.4266 17.2009 11.0441Z" fill="#BBC1C0"/>
<path d="M10.0026 40.2747C10.0026 40.2747 8.70605 34.0098 14.4683 31.28C14.4683 31.28 16.4041 37.366 10.0026 40.2747Z" fill="#BBC1C0"/>
<path d="M8.9176 32.3719C8.9176 32.3719 9.36778 26.7156 14.9815 25.5745C14.9815 25.5745 15.1616 31.2084 8.9176 32.3719Z" fill="#BBC1C0"/>
<path d="M9.02118 25.1985C9.02118 25.1985 11.0965 20.3253 16.4266 20.7504C16.4266 20.7504 14.9185 25.7668 9.02118 25.1985Z" fill="#BBC1C0"/>
<path d="M12.3255 19.2423C12.3255 19.2423 15.0266 14.8524 20.0821 15.9443C20.0821 15.9487 17.8672 20.5445 12.3255 19.2423Z" fill="#BBC1C0"/>
<path d="M16.6787 13.0894C16.6787 13.0894 19.8705 9.73764 24.0436 11.5053C23.1704 12.5491 21.9707 13.2723 20.6359 13.5594C19.301 13.8465 17.9079 13.681 16.6787 13.0894Z" fill="#BBC1C0"/>
<path d="M21.6937 9.21397C21.6937 9.21397 24.8899 5.85774 29.0586 7.62535C28.1864 8.67063 26.987 9.39514 25.6519 9.68312C24.3168 9.97109 22.9232 9.80591 21.6937 9.21397Z" fill="#BBC1C0"/>
<path d="M49.8073 24.3708H47.6554V43.3223L42.8295 48.2358H29.8644L25.124 43.3133V24.3708H23.1927V17.0408H34.2221V23.9098H33.1192V40.9461H39.2281V23.9098H38.1522V17.0408H49.8073V24.3708ZM47.3313 21.9946V19.417H40.5426V21.9946H41.8121V41.9082L40.304 43.3223H32.0748L30.6477 41.9082V21.9946H31.7956V19.417H25.4256V21.9946H27.3524V42.5123L30.6882 45.8685H41.8121L45.1434 42.5123V21.9946H47.3313Z" fill="#FC6441"/>
<path d="M36.5495 63.0972C39.998 63.0972 42.7935 60.3183 42.7935 56.8904C42.7935 53.4625 39.998 50.6836 36.5495 50.6836C33.1011 50.6836 30.3055 53.4625 30.3055 56.8904C30.3055 60.3183 33.1011 63.0972 36.5495 63.0972Z" fill="#5CA89F"/>
<path d="M36.5 0L37.6525 3.5218H41.3754L38.3637 5.76376L39.5162 9.31688L36.5 7.15995L33.4883 9.34373L34.6363 5.75928L31.6246 3.5218H35.3475L36.5 0Z" fill="#5CA89F"/>
</g>
<defs>
<clipPath id="clip0_95_1100">
<rect width="73" height="64" fill="white"/>
</clipPath>
</defs>
</svg>
