<svg width="24" height="24" viewBox="0 0 24 24" fill="none" xmlns="http://www.w3.org/2000/svg">
<g id="014-mortarboard 1" clip-path="url(#clip0_121_1255)">
<path id="Vector" d="M23.3379 7.96332L12.2866 4.40468C12.0996 4.34444 11.8986 4.34444 11.7116 4.40468L0.64826 7.96716C-0.215079 8.24512 -0.217093 9.4732 0.64826 9.75189L3.56091 10.6897V16.288C3.56091 16.695 3.82366 17.0556 4.21111 17.1803L11.7116 19.5956C11.8986 19.6557 12.0996 19.6557 12.2866 19.5956L19.7871 17.1803C20.1745 17.0556 20.4373 16.695 20.4373 16.288V10.6897L22.1248 10.1463V16.3594C22.1248 16.8772 22.5447 17.2969 23.0625 17.2969C23.5803 17.2969 24.0002 16.8772 24.0002 16.3594V8.85943C24 8.44745 23.7266 8.0827 23.3379 7.96332ZM18.5621 15.605L11.9991 17.7182L5.43608 15.605V11.2936L11.7118 13.3144C11.8986 13.3746 12.0996 13.3746 12.2866 13.3144L18.5621 11.2936V15.605ZM11.9991 11.437C11.6706 11.3312 4.42278 8.99749 3.9945 8.85943L11.9991 6.28187L20.0037 8.85943C19.5893 8.99292 12.3276 11.3313 11.9991 11.437Z" fill="#353688"/>
</g>
<defs>
<clipPath id="clip0_121_1255">
<rect width="24" height="24" fill="white"/>
</clipPath>
</defs>
</svg>
