<svg width="12" height="12" viewBox="0 0 12 12" fill="none" xmlns="http://www.w3.org/2000/svg">
<g clip-path="url(#clip0_12_24)">
<path d="M11.998 11.9996V11.9991H12.001V7.59812C12.001 5.44512 11.5375 3.78662 9.02053 3.78662C7.81053 3.78662 6.99853 4.45062 6.66703 5.08012H6.63203V3.98762H4.24553V11.9991H6.73053V8.03212C6.73053 6.98762 6.92853 5.97762 8.22203 5.97762C9.49653 5.97762 9.51553 7.16962 9.51553 8.09912V11.9996H11.998Z" fill="white"/>
<path d="M0.19754 3.98877H2.68554V12.0003H0.19754V3.98877Z" fill="white"/>
<path d="M1.441 0C0.6455 0 0 0.6455 0 1.441C0 2.2365 0.6455 2.8955 1.441 2.8955C2.2365 2.8955 2.882 2.2365 2.882 1.441C2.8815 0.6455 2.236 0 1.441 0V0Z" fill="white"/>
</g>
<defs>
<clipPath id="clip0_12_24">
<rect width="12" height="12" fill="white"/>
</clipPath>
</defs>
</svg>
