<svg width="37" height="42" viewBox="0 0 37 42" fill="none" xmlns="http://www.w3.org/2000/svg">
<g clip-path="url(#clip0_37_328)">
<path d="M29.1674 24.5455C29.1674 24.7891 29.2466 25.0909 29.1453 25.3236C29.1453 25.3236 29.1453 25.3236 29.1361 25.3236C29.1459 25.3305 29.1534 25.34 29.1575 25.3512C29.1617 25.3623 29.1623 25.3744 29.1593 25.3858C29.1563 25.3973 29.1498 25.4076 29.1408 25.4153C29.1317 25.423 29.1204 25.4278 29.1085 25.4291C28.9778 25.4436 28.8453 25.4491 28.7146 25.4527C28.7146 25.4527 28.7146 25.4636 28.7146 25.4691C28.7379 26.2291 28.7606 26.9897 28.7827 27.7509C28.8251 28.3901 28.814 29.0317 28.7496 29.6691C28.6115 30.6691 28.0979 31.4873 27.1462 31.9036C26.1945 32.32 24.9686 32.3691 24.0169 31.8709C23.5992 31.6572 23.2446 31.3402 22.9879 30.9509C22.7192 30.4888 22.5688 29.9689 22.5498 29.4364C22.4323 28.1156 22.4243 26.7875 22.5258 25.4655C22.3669 25.4991 22.2025 25.4991 22.0435 25.4655C22.0334 25.4629 22.0247 25.4565 22.0192 25.4477C22.0137 25.4389 22.0119 25.4283 22.0141 25.4182C22.007 25.4135 22.001 25.4073 21.9965 25.4001C21.9921 25.3929 21.9893 25.3848 21.9883 25.3764C21.9681 24.8491 21.9533 24.32 21.9349 23.7964C21.9349 23.7872 21.9372 23.7782 21.9415 23.7702C21.9458 23.7621 21.952 23.7551 21.9596 23.75C21.9672 23.7448 21.9759 23.7415 21.9851 23.7404C21.9943 23.7393 22.0036 23.7404 22.0122 23.7436V23.7327C22.0075 23.7308 22.0034 23.7276 22.0005 23.7234C21.9976 23.7192 21.996 23.7142 21.996 23.7091C21.996 23.704 21.9976 23.699 22.0005 23.6948C22.0034 23.6906 22.0075 23.6874 22.0122 23.6855C22.2445 23.6328 22.4832 23.6138 22.721 23.6291C22.986 23.62 23.2548 23.6164 23.5235 23.6109C24.0574 23.6 24.5912 23.5927 25.125 23.5891C25.1349 23.5882 25.1448 23.5903 25.1534 23.5952C25.1619 23.6001 25.1688 23.6075 25.1729 23.6164C25.1818 23.6124 25.1916 23.6108 25.2014 23.6115C25.2111 23.6123 25.2205 23.6154 25.2287 23.6206C25.237 23.6259 25.2437 23.633 25.2484 23.6415C25.2532 23.65 25.2557 23.6594 25.2557 23.6691C25.2557 24.0564 25.2797 24.4491 25.2852 24.8382C25.2852 25.0091 25.2852 25.1764 25.2852 25.3455C25.2845 25.3554 25.2808 25.3649 25.2746 25.3727C25.2683 25.3804 25.2598 25.3862 25.2502 25.3891C25.2488 25.4028 25.2421 25.4154 25.2314 25.4242C25.2207 25.433 25.207 25.4374 25.1931 25.4364C25.029 25.4227 24.864 25.4227 24.6998 25.4364C24.7305 25.8897 24.7354 26.3443 24.7145 26.7982C24.7145 27.2309 24.7145 27.6636 24.7053 28.0964C24.7053 28.7836 24.6851 30.0491 25.6828 30.0618C26.7173 30.0709 26.5609 28.7891 26.548 28.1055C26.5296 27.2236 26.5093 26.3418 26.4964 25.4564C26.34 25.4564 26.1835 25.4564 26.027 25.4564C26.0194 25.4564 26.0119 25.4547 26.0052 25.4514C25.9984 25.448 25.9925 25.4431 25.988 25.4371C25.9835 25.4311 25.9805 25.4241 25.9793 25.4167C25.9781 25.4093 25.9787 25.4017 25.981 25.3946C25.9673 25.3937 25.9545 25.3878 25.9449 25.378C25.9354 25.3683 25.9299 25.3554 25.9295 25.3418C25.9203 25.1709 25.9129 25.0018 25.9092 24.8309C25.8982 24.4546 25.8982 24.0709 25.9092 23.6982C25.9092 23.691 25.9106 23.6839 25.9134 23.6773C25.9162 23.6707 25.9203 23.6647 25.9254 23.6596C25.9305 23.6546 25.9366 23.6505 25.9433 23.6478C25.95 23.6451 25.9572 23.6436 25.9644 23.6436L25.9792 23.6236C25.9712 23.6165 25.9656 23.6071 25.963 23.5968C25.9604 23.5865 25.9608 23.5757 25.9643 23.5656C25.9679 23.5556 25.9743 23.5468 25.9828 23.5403C25.9913 23.5338 26.0016 23.5299 26.0123 23.5291C26.9953 23.4382 27.9875 23.5473 28.9723 23.4582C28.9862 23.4863 29.0064 23.5111 29.0312 23.5306C29.056 23.5501 29.085 23.5638 29.1159 23.5709C29.1545 23.8982 29.1545 24.2236 29.1674 24.5455Z" fill="#362983"/>
<path d="M19.9616 38.1637C19.9413 38.4091 19.5456 38.5019 19.4959 38.2273C19.0301 35.6019 19.1792 32.7564 19.0596 30.0964C18.9381 27.3437 18.6914 24.5564 18.7559 21.7982L19.2253 21.8091C19.5216 24.4691 19.5308 27.1782 19.656 29.8509C19.7793 32.5619 20.1954 35.4419 19.9634 38.1419C19.9634 38.1491 19.9616 38.1564 19.9616 38.1637Z" fill="#362983"/>
<path d="M36.8012 4.45458C36.7988 4.41977 36.7894 4.38578 36.7736 4.35458C36.7766 4.30778 36.7656 4.26114 36.7421 4.22043C36.7185 4.17972 36.6834 4.14671 36.6411 4.12549C31.1444 1.27276 24.5286 0.0909424 18.3675 0.0909424C12.2928 0.0909424 5.4819 1.18185 0.119661 4.17276C0.086252 4.19529 0.0589147 4.22553 0.0400232 4.26085C0.0211317 4.29618 0.0112572 4.33553 0.0112572 4.37549C0.0112572 4.41544 0.0211317 4.45479 0.0400232 4.49012C0.0589147 4.52545 0.086252 4.55569 0.119661 4.57822C0.084501 4.62578 0.0652004 4.68297 0.0644376 4.74185C-0.0239206 9.16973 -0.0239206 13.597 0.0644376 18.0237C0.104935 20.1564 0.156477 22.2891 0.248517 24.4182C0.320308 26.2109 0.552249 27.8237 1.55732 29.3637C5.20578 34.9328 11.4976 39.6655 17.7563 41.9655C17.8079 41.9828 17.864 41.982 17.915 41.9631C17.966 41.9442 18.0088 41.9084 18.0361 41.8619C21.6938 41.2673 25.0588 39.4273 27.9599 37.2073C30.6677 35.1346 33.5209 32.6018 35.347 29.7073C36.2674 28.2418 36.6263 26.6691 36.7312 24.9618C36.8693 22.7091 36.8896 20.4419 36.9282 18.1873C37.0092 13.6237 37.1123 9.00003 36.8012 4.45458ZM3.29872 5.70003C3.28034 5.73003 3.26843 5.76346 3.26374 5.79821C3.2659 5.76336 3.2753 5.72932 3.29135 5.69822L3.29872 5.70003ZM3.26926 5.88185C3.24783 5.88007 3.22627 5.88007 3.20484 5.88185C3.22388 5.88106 3.24295 5.88167 3.2619 5.88367L3.26926 5.88185ZM2.97105 5.96367C2.93987 5.99596 2.91712 6.03528 2.90479 6.07821C2.91524 6.03661 2.93542 5.99801 2.96369 5.96549L2.97105 5.96367ZM2.8919 19.6164C3.60981 19.6164 4.32956 19.6164 5.04931 19.5946C4.3222 19.6146 3.60245 19.6255 2.88454 19.6182L2.8919 19.6164ZM9.79857 19.4164C10.3711 19.3964 10.9472 19.3837 11.5234 19.3728C10.9399 19.3855 10.3637 19.3982 9.7912 19.4182L9.79857 19.4164ZM16.9556 3.79821C16.6518 6.22367 16.8691 8.80367 16.8304 11.2528C16.7917 13.7019 16.6868 16.1618 16.7163 18.6146H16.7052C14.4134 18.5418 12.0885 18.7418 9.79673 18.8218C7.562 18.9018 5.31439 18.9291 3.0815 19.0946C3.28215 14.7855 3.39812 10.4655 3.48648 6.1564C3.48687 6.12027 3.47998 6.08442 3.46623 6.05094C3.51544 6.0597 3.56616 6.05444 3.61245 6.03576C3.65874 6.01708 3.69869 5.98577 3.72762 5.94549C4.36822 5.09276 5.90896 4.9764 6.88643 4.7764C7.9185 4.56428 8.95794 4.38246 10.0047 4.23094C12.2395 3.9164 14.4852 3.95276 16.7163 3.70549C16.7869 3.70145 16.853 3.67009 16.9004 3.61821H17.0421C16.9901 3.66505 16.9574 3.7291 16.9501 3.79821H16.9556ZM32.8104 27.3819C32.6152 28.3837 32.3446 29.3546 31.6562 30.1491C31.0726 30.8237 30.3161 31.3782 29.6313 31.9418C28.0445 33.2309 26.4062 34.4618 24.7182 35.6182C24.0335 36.1029 23.3205 36.5473 22.5829 36.9491C21.7987 37.3637 20.8746 37.5582 20.142 38.0509C20.1249 38.0613 20.1108 38.0757 20.1008 38.0928C20.0908 38.11 20.0854 38.1293 20.0849 38.1491H19.9671C19.9671 38.1491 19.9671 38.1637 19.9671 38.1709C19.9469 38.4164 19.5511 38.5091 19.5014 38.2346C19.0357 35.6091 19.1848 32.7637 19.0651 30.1037C18.9436 27.3509 18.697 24.5637 18.7614 21.8055L19.2308 21.8164C21.6091 22.1128 24.0887 22.0219 26.4799 21.9491C27.6285 21.9109 28.7809 21.8528 29.9277 21.7673C30.583 21.72 31.2383 21.6673 31.8936 21.6055C32.2195 21.5746 32.5471 21.5419 32.8729 21.5073C32.8951 21.5093 32.9174 21.5062 32.9381 21.4983C32.9589 21.4904 32.9775 21.478 32.9926 21.4619C33.0244 21.4964 33.0645 21.5224 33.1093 21.5373C33.1541 21.5523 33.202 21.5557 33.2485 21.5473C33.3077 23.5019 33.1608 25.4573 32.8104 27.3819Z" fill="#362983"/>
<path d="M7.22 16.0001V14.1961H7.77V9.24612H7.22V7.44212H11.862V9.24612H10.85V14.1961H11.84V13.1841H14.029V16.0001H7.22Z" fill="#362983"/>
</g>
<defs>
<clipPath id="clip0_37_328">
<rect width="37" height="42" fill="white"/>
</clipPath>
</defs>
</svg>
