<svg width="46" height="46" viewBox="0 0 46 46" fill="none" xmlns="http://www.w3.org/2000/svg">
<g id="quote">
<g id="Group">
<path id="Vector" d="M9.48747 27.6575C8.53875 30.0437 7.04378 32.4012 5.04564 34.6725C4.41314 35.3912 4.32689 36.4262 4.84437 37.2312C5.24692 37.8637 5.90811 38.2087 6.62686 38.2087C6.82812 38.2087 7.0294 38.1944 7.23067 38.1224C11.4568 36.8862 21.3325 32.5018 21.6057 18.4431C21.7062 13.0237 17.7388 8.36625 12.5781 7.83437C9.71751 7.54686 6.87129 8.48118 4.75812 10.3787C2.64504 12.2906 1.4375 15.0219 1.4375 17.8681C1.4375 22.6118 4.80129 26.7662 9.48747 27.6575Z" fill="#7768E5"/>
<path id="Vector_2" d="M35.5209 7.83437C32.6745 7.54686 29.8283 8.48118 27.7152 10.3787C25.6021 12.2906 24.3945 15.0219 24.3945 17.8681C24.3945 22.6118 27.7583 26.7662 32.4446 27.6575C31.4958 30.0437 30.0008 32.4012 28.0027 34.6725C27.3702 35.3912 27.2839 36.4262 27.8015 37.2312C28.2039 37.8637 28.8652 38.2087 29.584 38.2087C29.7852 38.2087 29.9864 38.1944 30.1877 38.1224C34.4139 36.8862 44.2896 32.5018 44.5627 18.443V18.2419C44.5627 12.9087 40.6384 8.36625 35.5209 7.83437Z" fill="#7768E5"/>
</g>
</g>
</svg>
