<svg width="46" height="46" viewBox="0 0 46 46" fill="none" xmlns="http://www.w3.org/2000/svg">
<g id="047-trophy" clip-path="url(#clip0_77_152)">
<g id="Group">
<path id="Vector" d="M25.5379 12.8963L23 7.75391L20.4622 12.8963L14.7873 13.7208L18.8937 17.7235L17.9243 23.3754L23 20.7069L28.0758 23.3753L27.1064 17.7235L31.2128 13.7207L25.5379 12.8963ZM24.482 18.429L23 17.65L21.518 18.4291L21.801 16.7789L20.6021 15.6102L22.259 15.3694L23 13.868L23.741 15.3693L25.3979 15.6101L24.1989 16.7788L24.482 18.429Z" fill="#FC6441"/>
<path id="Vector_2" d="M41.9412 31.1176H40.5882V22.6233C43.04 20.91 44.6471 18.0673 44.6471 14.8559V8.11765H36.5294V2.70588H39.2353V0C37.9263 0 9.02962 0 6.76471 0V2.70588H9.47059V8.11765H1.35294V14.8559C1.35294 18.0673 2.95996 20.91 5.41176 22.6233V31.1176H4.05882C1.82079 31.1176 0 32.9325 0 35.1632C0 37.3939 1.82079 39.2088 4.05882 39.2088C6.29686 39.2088 8.11765 37.388 8.11765 35.15V33.8235H10.8235V31.1176H8.11765V23.9319C8.90758 24.1678 9.74028 24.3036 10.6012 24.3236C11.086 25.4366 11.72 26.486 12.492 27.4367C14.6181 30.0549 15.9023 33.2411 16.1784 36.5294H12.1765V43.2941H9.47059V46H36.5294V43.2941H33.8235V36.5294H29.8216C30.098 33.2451 31.3822 30.061 33.5079 27.4433C34.2813 26.491 34.9161 25.4393 35.4012 24.3235C36.2613 24.3034 37.0931 24.1677 37.8824 23.9319V31.1176H35.1765V33.8235H37.8824V35.15C37.8824 37.388 39.7031 39.2088 41.9412 39.2088C44.1792 39.2088 46 37.394 46 35.1632C46 32.9325 44.1792 31.1176 41.9412 31.1176ZM5.41176 35.15C5.41176 35.896 4.80484 36.5029 4.05882 36.5029C3.31281 36.5029 2.70588 35.9019 2.70588 35.1632C2.70588 34.4245 3.31281 33.8235 4.05882 33.8235H5.41176V35.15ZM9.47059 21.4846C6.38669 20.856 4.05882 18.1226 4.05882 14.8559V10.8235H9.47059V18.9147V21.4846ZM31.1176 43.2941H14.8824V39.2353H31.1176V43.2941ZM31.4074 25.7375C28.8903 28.8371 27.3883 32.6258 27.1071 36.5294H18.893C18.6121 32.6218 17.11 28.8309 14.5926 25.7309C13.0345 23.8122 12.1765 21.3916 12.1765 18.9147C12.1765 18.0359 12.1765 3.67197 12.1765 2.70588H33.8235V18.9147C33.8235 21.3959 32.9655 23.8189 31.4074 25.7375ZM36.5294 10.8235H41.9412V14.8559C41.9412 18.1226 39.6133 20.856 36.5294 21.4846C36.5294 19.6067 36.5294 11.9658 36.5294 10.8235ZM41.9412 36.5029C41.1952 36.5029 40.5882 35.896 40.5882 35.15V33.8235H41.9412C42.6872 33.8235 43.2941 34.4245 43.2941 35.1632C43.2941 35.9019 42.6872 36.5029 41.9412 36.5029Z" fill="#FC6441"/>
</g>
</g>
<defs>
<clipPath id="clip0_77_152">
<rect width="46" height="46" fill="white"/>
</clipPath>
</defs>
</svg>
