<svg width="24" height="24" viewBox="0 0 24 24" fill="none" xmlns="http://www.w3.org/2000/svg">
<path d="M21.42 10.922C21.786 10.7606 22.0205 10.3966 22.0164 9.99673C22.0122 9.59681 21.7702 9.23782 21.401 9.08399L12.83 5.17999C12.3028 4.93951 11.6972 4.93951 11.17 5.17999L2.60004 9.07999C2.23625 9.23932 2.00122 9.59884 2.00122 9.99599C2.00122 10.3931 2.23625 10.7527 2.60004 10.912L11.17 14.82C11.6972 15.0605 12.3028 15.0605 12.83 14.82L21.42 10.922" stroke="white" stroke-width="2" stroke-linecap="round" stroke-linejoin="round"/>
<path d="M22 10V16" stroke="white" stroke-width="2" stroke-linecap="round" stroke-linejoin="round"/>
<path d="M6 12.5V16C6 17.6557 8.68851 19 12 19C15.3115 19 18 17.6557 18 16V12.5" stroke="white" stroke-width="2" stroke-linecap="round" stroke-linejoin="round"/>
</svg>
