<svg width="24" height="24" viewBox="0 0 24 24" fill="none" xmlns="http://www.w3.org/2000/svg">
<path d="M12 15V20C13.45 20.97 15.03 19.45 16 18C17.08 16.38 16 13 16 13" stroke="white" stroke-width="2" stroke-linecap="round" stroke-linejoin="round"/>
<path d="M4.5 16.5C3 17.76 2.5 21.5 2.5 21.5C2.5 21.5 6.24 21 7.5 19.5C8.21 18.66 8.2 17.37 7.41 16.59C6.60511 15.8218 5.35083 15.783 4.5 16.5" stroke="white" stroke-width="2" stroke-linecap="round" stroke-linejoin="round"/>
<path d="M9 12C9.53214 10.6194 10.2022 9.29607 11 8.05C13.3692 4.26196 17.5322 1.97229 22 2C22 4.72 21.22 9.5 16 13C14.7367 13.7984 13.3967 14.4684 12 15L9 12" stroke="white" stroke-width="2" stroke-linecap="round" stroke-linejoin="round"/>
<path d="M9 12H4C4.97 13.45 4.55 8.96999 6 7.99999C7.62 6.91999 11 8.04999 11 8.04999" stroke="white" stroke-width="2" stroke-linecap="round" stroke-linejoin="round"/>
</svg>
